<?xml version="1.0" standalone="no"?>
<!DOCTYPE svg PUBLIC "-//W3C//DTD SVG 1.1//EN" "http://www.w3.org/Graphics/SVG/1.1/DTD/svg11.dtd" >
<svg xmlns="http://www.w3.org/2000/svg">
<metadata>
Created by FontPrep 20130207 at Tue Apr 29 11:32:34 2014
 By Tony Tisell
Copyright (c) 1981, 1982, 1983, 1989 and 1993, Linotype Library GmbH or its affiliated Linotype-Hell companies. All rights reserved.

The digitally encoded machine readable software for producing the Typefaces licensed to you is now the property of Heidelberger Druckmaschinen AG and its licensors, and may not be reproduced, used, displayed, modified, disclosed or transferred without the express written approval of Heidelberger Druckmaschinen AG.

Copyright (c) 1988, 1990, 1993 Adobe Systems Incorporated. All Rights Reserved.
</metadata>
<defs>
<font id="742171b431310a8283213206fd340c77" horiz-adv-x='1024' >
  <font-face 
    font-family="HelveticaNeue-Italic"
    font-weight="400"
    font-style="italic"
    font-stretch="normal"
    units-per-em="2048"
    panose-1="2 0 5 3 0 0 0 9 0 4"
    ascent="1638"
    descent="-410"
    x-height="1059"
    cap-height="1462"
    bbox="-969 -766 2828 2423"
    underline-thickness="102"
    underline-position="-153"
    slope="-12"
    unicode-range="U+0008-FB02"
  />
<missing-glyph horiz-adv-x="1024" 
d="M946 1458v-1458h-844v1458h844zM883 1389h-717v-1313h717v1313z" />
    <glyph glyph-name="fi" unicode="fi" horiz-adv-x="1062" 
d="M819 1059h174l-221 -1059h-174zM1034 1249h-176l45 213h176zM632 1325q-44 0 -79 -23.5t-54.5 -61.5t-28.5 -85t-24 -96h203l-28 -154h-205l-195 -905h-174l197 905h-181l31 154h180q20 80 38 155.5t70.5 170t233.5 94.5q92 0 146 -17l-29 -147q-57 10 -101 10z" />
    <glyph glyph-name="fl" unicode="fl" horiz-adv-x="1062" 
d="M632 1325q-44 0 -79 -23.5t-54.5 -61.5t-28.5 -85t-24 -96h203l-28 -154h-205l-195 -905h-174l197 905h-181l31 154h180q20 80 38 155.5t70.5 170t233.5 94.5q92 0 146 -17l-29 -147q-57 10 -101 10zM905 1462h174l-307 -1462h-174z" />
    <glyph glyph-name=".notdef" horiz-adv-x="1024" 
d="M946 1458v-1458h-844v1458h844zM883 1389h-717v-1313h717v1313z" />
    <glyph glyph-name=".null" horiz-adv-x="0" 
 />
    <glyph glyph-name=".null" horiz-adv-x="0" 
 />
    <glyph glyph-name="nonmarkingreturn" horiz-adv-x="681" 
 />
    <glyph glyph-name="controlBS" horiz-adv-x="0" 
 />
    <glyph glyph-name="controlHT" unicode="&#x9;" horiz-adv-x="569" 
 />
    <glyph glyph-name="space" unicode="&#xa;" horiz-adv-x="569" 
 />
    <glyph glyph-name="space" unicode=" " horiz-adv-x="569" 
 />
    <glyph glyph-name="controlCR" unicode="&#xd;" horiz-adv-x="569" 
 />
    <glyph glyph-name="controlGS" horiz-adv-x="0" 
 />
    <glyph glyph-name="exclam" unicode="!" horiz-adv-x="530" 
d="M49 227h227l-49 -227h-227zM420 1006l-184 -631h-95l88 631l97 456h190z" />
    <glyph glyph-name="quotedbl" unicode="&#x22;" horiz-adv-x="872" 
d="M299 1462h139v-528h-139v528zM586 1462h139v-528h-139v528z" />
    <glyph glyph-name="numbersign" unicode="#" 
d="M268 422h-198l18 139h199l43 307h-207l18 140h209l60 419h141l-59 -419h249l60 419h141l-59 -419h186l-18 -140h-187l-43 -307h191l-19 -139h-190l-60 -422h-141l60 422h-252l-60 -422h-141zM473 868l-43 -307h250l43 307h-250z" />
    <glyph glyph-name="dollar" unicode="$" 
d="M317 1078q0 -81 56.5 -133t130.5 -77l26 -12l99 487q-195 0 -253.5 -92t-58.5 -173zM872 397q0 80 -22.5 122t-60 66.5t-87 40t-102.5 33.5l-111 -540q41 -10 105.5 0t126 45t106.5 94t45 139zM133 1071q0 96 44 181t160 175.5t322 69.5l27 129h109l-29 -141
q248 -69 293 -215t39 -240h-185q7 244 -178 303l-100 -504l110 -38q311 -88 312 -369q0 -123 -55.5 -215t-142.5 -150.5t-192.5 -81t-207.5 -8.5l-35 -164h-109l37 174q-197 31 -289 161t-81 341h182q-14 -297 221 -346l111 551q-175 54 -240.5 110t-94 118.5t-28.5 158.5z
" />
    <glyph glyph-name="percent" unicode="%" horiz-adv-x="1896" 
d="M301 918q0 -74 35 -123.5t115 -49.5t125 41t84.5 132t39.5 256t-149 165q-121 0 -185.5 -136t-64.5 -285zM1319 1485h131l-891 -1540h-131zM1051 272q0 191 98.5 357t280.5 166q299 0 299 -297q0 -203 -98 -362t-285 -159q-137 0 -216 77t-79 218zM1190 260
q0 -74 35 -123t115 -49t164.5 78t84.5 351q0 165 -149 165q-121 0 -185.5 -136.5t-64.5 -285.5zM162 930q0 190 98 356t281 166q299 0 299 -297q0 -201 -97 -361.5t-286 -160.5q-137 0 -216 78t-79 219z" />
    <glyph glyph-name="ampersand" unicode="&#x26;" horiz-adv-x="1290" 
d="M293 189q76 -60 175 -60t170 36t148 101l-260 426q-143 -76 -226 -150.5t-83 -183.5t76 -169zM451 -23q-174 0 -291 101t-117 276q0 231 168 327.5t240 133.5q-43 68 -82 146.5t-39 164.5q0 156 102.5 246t251.5 90t246.5 -73.5t97.5 -204.5q0 -193 -149.5 -287
t-210.5 -127l229 -377q110 151 129 297h168q-33 -145 -85 -241.5t-126 -182.5l174 -266h-199l-90 152q-188 -175 -417 -175zM504 1136q0 -78 28.5 -134t63.5 -113q39 23 148.5 87.5t109.5 173.5q0 77 -47 118t-121 41t-128 -47.5t-54 -125.5z" />
    <glyph glyph-name="quotesingle" unicode="'" horiz-adv-x="569" 
d="M291 1462h139v-528h-139v528z" />
    <glyph glyph-name="parenleft" unicode="(" horiz-adv-x="530" 
d="M238 -403q-166 359 -166 794q0 131 40 284.5t134.5 342t353.5 479.5h143q-497 -596 -497 -1223q0 -370 106 -677h-114z" />
    <glyph glyph-name="parenright" unicode=")" horiz-adv-x="530" 
d="M258 815q0 373 -106 682h114q67 -149 116.5 -360.5t49.5 -391.5q0 -325 -131.5 -582.5t-394.5 -565.5h-144q496 576 496 1218z" />
    <glyph glyph-name="asterisk" unicode="*" horiz-adv-x="720" 
d="M506 1231l225 22l10 -98l-219 -29l101 -204l-101 -48l-96 211l-160 -178l-76 76l158 172l-194 98l51 95l196 -101l45 215h111z" />
    <glyph glyph-name="plus" unicode="+" horiz-adv-x="1228" 
d="M684 588h446v-139h-446v-449h-139v449h-447v139h447v448h139v-448z" />
    <glyph glyph-name="comma" unicode="," horiz-adv-x="569" 
d="M80 227h227q-20 -84 -35.5 -174t-47 -164.5t-90 -127t-165.5 -60.5l21 98q98 14 121.5 90t33.5 111h-114z" />
    <glyph glyph-name="hyphen" unicode="-" horiz-adv-x="796" 
d="M86 651h594l-33 -164h-594z" />
    <glyph glyph-name="period" unicode="." horiz-adv-x="569" 
d="M80 227h227l-49 -227h-227z" />
    <glyph glyph-name="slash" unicode="/" horiz-adv-x="681" 
d="M569 1497h150l-606 -1530h-148z" />
    <glyph glyph-name="zero" unicode="0" 
d="M51 539q0 183 90 464.5t261 365t284 83.5q190 0 290.5 -129t100.5 -420q0 -163 -42 -313t-90 -251t-161.5 -231.5t-330.5 -130.5q-402 0 -402 562zM289 232.5q53 -103.5 191 -103.5t249.5 165.5t137.5 347t26 217.5t1 84t-4 131t-54 153.5t-164 70.5q-145 0 -243 -144
t-145.5 -329.5t-47.5 -337.5q0 -151 53 -254.5z" />
    <glyph glyph-name="one" unicode="1" 
d="M578 0h-185l236 1104q-175 -41 -375 -41l29 139q227 0 331.5 94.5t137.5 155.5h135z" />
    <glyph glyph-name="two" unicode="2" 
d="M648 1452q194 0 307.5 -105.5t113.5 -281.5q0 -229 -166.5 -357.5t-290 -197t-171.5 -99.5q-202 -131 -251 -257h756l-33 -154h-923q21 285 194 412.5t307 204.5t189 119q111 85 158 151t47 176q0 109 -65.5 172t-159.5 63q-160 0 -243.5 -96.5t-92.5 -243.5h-185
q38 355 222.5 424.5t286.5 69.5z" />
    <glyph glyph-name="three" unicode="3" 
d="M795 758q188 -83 188 -290q0 -188 -138.5 -339.5t-369.5 -151.5t-353 114t-120 358h184q-8 -222 91.5 -271t179.5 -49q153 0 247.5 87t94.5 234t-95.5 192.5t-265.5 45.5l31 139q274 -16 337.5 80.5t63.5 176.5t-21.5 118.5t-67 67t-156.5 28.5q-260 0 -295 -294h-185
q26 193 149.5 320.5t328.5 127.5t318.5 -89t113.5 -273q0 -118 -76 -209.5t-184 -122.5z" />
    <glyph glyph-name="four" unicode="4" 
d="M193 494h466l138 657h-4zM629 340h-635l33 172l860 940h147l-200 -958h192l-31 -154h-192l-74 -340h-174z" />
    <glyph glyph-name="five" unicode="5" 
d="M590 956q190 0 298.5 -122t108.5 -316q0 -259 -163 -405q-158 -136 -370 -136t-331 106.5t-119 305.5h185q0 -260 262 -260q168 0 260 110t92 261q0 303 -289 303q-78 0 -149.5 -38t-108.5 -103h-155l225 765h735l-31 -153h-596l-114 -393l4 -4q102 79 256 79z" />
    <glyph glyph-name="six" unicode="6" 
d="M760.5 702.5q-68.5 77.5 -207.5 77.5t-224 -102t-85 -244t65.5 -223.5t210.5 -81.5t227 108t82 248t-68.5 217.5zM603 934q182 0 296.5 -123t114.5 -303q0 -230 -141 -380.5t-368 -150.5t-336.5 133t-109.5 355t80 483.5t230.5 382.5t348.5 121t296 -99.5t102 -277.5
h-184q-4 223 -218 223q-262 0 -335.5 -215t-95.5 -295h4q51 76 138 111t178 35z" />
    <glyph glyph-name="seven" unicode="7" 
d="M1155 1282q-236 -221 -441 -577t-317 -705h-198q221 700 766 1274h-756l35 153h936z" />
    <glyph glyph-name="eight" unicode="8" 
d="M397 1055q0 -113 71 -163t175.5 -50t170 65t65.5 173t-60.5 163t-171 55t-180.5 -65t-70 -178zM517 129q130 0 218 78t88 207t-69.5 201.5t-205.5 72.5t-227.5 -75t-91.5 -215t79 -204.5t209 -64.5zM213 1067q0 178 128 281.5t305 103.5t297 -98.5t120 -261.5
q0 -123 -71.5 -211t-188.5 -115v-4q106 -45 155.5 -137.5t49.5 -198.5q0 -201 -143.5 -325t-344.5 -124t-338 105t-137 305q0 166 94 270.5t254 133.5v4q-78 35 -129 108.5t-51 163.5z" />
    <glyph glyph-name="nine" unicode="9" 
d="M879 993q0 143 -70 224t-211 81t-222 -116t-81 -249q0 -134 67.5 -212t208.5 -78t224.5 103.5t83.5 246.5zM193 346q0 -217 210 -217q182 0 265.5 122t116 210t57.5 168l-4 4q-51 -76 -139.5 -110t-179.5 -34q-176 0 -292 122.5t-116 303.5q0 228 140 382.5t364 154.5
t336 -130.5t112 -356.5q0 -143 -32 -300t-81 -269t-148 -265.5t-393 -153.5t-348.5 137.5t-52.5 231.5h185z" />
    <glyph glyph-name="colon" unicode=":" horiz-adv-x="569" 
d="M76 227h231l-47 -227h-229zM432 831h-229l47 228h229z" />
    <glyph glyph-name="semicolon" unicode=";" horiz-adv-x="569" 
d="M80 227h227q-20 -84 -35.5 -174t-47 -164.5t-90 -127t-165.5 -60.5l21 98q98 14 121.5 90t33.5 111h-114zM430 831h-227l49 228h227z" />
    <glyph glyph-name="less" unicode="&#x3c;" horiz-adv-x="1228" 
d="M1135 913l-871 -395l871 -395v-137l-1041 469v127l1041 471v-140z" />
    <glyph glyph-name="equal" unicode="=" horiz-adv-x="1228" 
d="M1130 655h-1032v140h1032v-140zM98 381h1032v-139h-1032v139z" />
    <glyph glyph-name="greater" unicode="&#x3e;" horiz-adv-x="1228" 
d="M94 123l871 395l-871 395v140l1041 -471v-127l-1041 -469v137z" />
    <glyph glyph-name="question" unicode="?" 
d="M658 1479q183 0 310.5 -87.5t127.5 -259.5q0 -232 -195 -368t-250 -201t-71 -143l-9 -45h-170q28 170 103 264q61 80 213 184q194 131 194 287q0 111 -65.5 163t-154.5 52q-157 0 -243 -93t-98 -233h-174q12 208 113.5 308t189 136t179.5 36zM346 227h227l-49 -227h-227z
" />
    <glyph glyph-name="at" unicode="@" horiz-adv-x="1638" 
d="M840 1034q-52 0 -112 -42t-128 -142.5t-68 -243.5q0 -86 49.5 -142t122.5 -56q130 0 226 148.5t96 275.5t-67 164.5t-119 37.5zM860 1174q166 0 230 -168l47 129h129l-172 -582q-23 -78 -23 -104q0 -63 48 -63t98.5 42.5t118 153.5t67.5 253q0 258 -165.5 403.5
t-389.5 145.5q-131 0 -245 -52t-246 -194.5t-132 -410.5q0 -137 50.5 -256t187.5 -256t395 -137q147 0 283.5 67.5t224.5 180.5h129q-96 -169 -267.5 -264t-353.5 -95t-322 59.5t-243.5 163t-163 243.5t-59.5 301t60.5 299t164 241.5t241.5 163t286 59.5q294 0 499 -178
t205 -453q0 -133 -48 -242.5t-119.5 -187.5t-156 -121t-146.5 -43q-133 0 -140 134h-6q-122 -138 -253 -138t-212.5 93.5t-81.5 215.5q0 121 35 225.5t97 186.5t151.5 133.5t197.5 51.5z" />
    <glyph glyph-name="A" unicode="A" horiz-adv-x="1366" 
d="M449 604h503l-108 686h-4zM768 1462h213l264 -1462h-201l-67 440h-617l-256 -440h-215z" />
    <glyph glyph-name="B" unicode="B" horiz-adv-x="1402" 
d="M707 164q128 0 199 37t113 94t42 143t-24.5 128t-82.5 73t-194 31h-418l-106 -506h471zM907 1462q408 0 408 -350q0 -126 -77.5 -229.5t-201.5 -122.5v-4q100 -29 159.5 -108t59.5 -189q0 -214 -148.5 -336.5t-369.5 -122.5h-723l305 1462h588zM809 834q311 0 311 278
q0 162 -120.5 174t-165.5 12h-361l-98 -464h434z" />
    <glyph glyph-name="C" unicode="C" horiz-adv-x="1478" 
d="M690 -33q-286 0 -449 167t-163 472q0 178 55 339t158.5 284t253 195.5t336.5 72.5q245 0 401 -130t156 -376h-195q0 172 -101.5 257t-257.5 85q-288 0 -450 -218.5t-162 -508.5q0 -218 109.5 -347.5t306.5 -129.5t309.5 95t159.5 270h195q-55 -246 -215.5 -386.5
t-446.5 -140.5z" />
    <glyph glyph-name="D" unicode="D" horiz-adv-x="1441" 
d="M836 1462q272 0 412.5 -149.5t140.5 -409.5q0 -410 -223.5 -656.5t-590.5 -246.5h-561l310 1462h512zM1194 883q0 415 -403 415h-312l-239 -1134h338q293 0 454.5 214.5t161.5 504.5z" />
    <glyph glyph-name="E" unicode="E" horiz-adv-x="1251" 
d="M324 1462h1007l-33 -164h-813l-98 -464h758l-33 -164h-760l-106 -506h823l-37 -164h-1018z" />
    <glyph glyph-name="F" unicode="F" horiz-adv-x="1175" 
d="M319 1462h963l-35 -164h-768l-96 -464h676l-35 -164h-676l-139 -670h-195z" />
    <glyph glyph-name="G" unicode="G" horiz-adv-x="1554" 
d="M705 -33q-301 0 -464 167t-163 472q0 178 55 339t158.5 284t253 195.5t336.5 72.5q406 0 496.5 -181t90.5 -308h-194q0 158 -111 241.5t-273 83.5q-294 0 -456 -218.5t-162 -508.5q0 -218 109.5 -347.5t323.5 -129.5q324 0 412.5 185.5t115.5 291.5h-467l33 164h637
l-160 -770h-123l-12 145q-86 -92 -202 -135t-234 -43z" />
    <glyph glyph-name="H" unicode="H" horiz-adv-x="1478" 
d="M322 1462h196l-133 -628h766l131 628h195l-308 -1462h-194l141 670h-766l-141 -670h-195z" />
    <glyph glyph-name="I" unicode="I" horiz-adv-x="530" 
d="M322 1462h194l-307 -1462h-195z" />
    <glyph glyph-name="J" unicode="J" horiz-adv-x="1062" 
d="M391 129q188 0 227 136t52 196l213 1001h192l-231 -1102q-43 -200 -145 -296.5t-312 -96.5q-285 0 -344 117t-59 197t16 198h197q-17 -80 -21 -151q0 -199 215 -199z" />
    <glyph glyph-name="K" unicode="K" horiz-adv-x="1366" 
d="M324 1462h194l-153 -721l4 -4l827 725h260l-704 -602l469 -860h-215l-400 741l-293 -247l-104 -494h-195z" />
    <glyph glyph-name="L" unicode="L" 
d="M322 1462h194l-270 -1298h772l-35 -164h-969z" />
    <glyph glyph-name="M" unicode="M" horiz-adv-x="1781" 
d="M322 1462h270l194 -1257h5l722 1257h271l-309 -1462h-187l299 1280h-4l-745 -1280h-187l-190 1280h-4l-256 -1280h-187z" />
    <glyph glyph-name="N" unicode="N" horiz-adv-x="1478" 
d="M324 1462h208l523 -1210h4l244 1210h188l-309 -1462h-209l-518 1202h-4l-248 -1202h-189z" />
    <glyph glyph-name="O" unicode="O" horiz-adv-x="1554" 
d="M78 606q0 178 55 339t158.5 284t253 195.5t313.5 72.5q300 0 466.5 -183.5t166.5 -463.5q0 -172 -54.5 -332t-155.5 -282.5t-247.5 -195.5t-328.5 -73q-301 0 -464 167t-163 472zM272 620q0 -232 109.5 -361.5t323.5 -129.5q145 0 255.5 63.5t223 217.5t112.5 440
q0 214 -110.5 348.5t-304.5 134.5q-285 0 -409 -167t-162 -296.5t-38 -249.5z" />
    <glyph glyph-name="P" unicode="P" horiz-adv-x="1327" 
d="M895 1462q434 0 434 -403q0 -68 -26.5 -149t-133.5 -196.5t-399 -115.5h-434l-127 -598h-195l305 1462h576zM811 762q160 0 242 83t82 214q0 239 -240 239h-412l-112 -536h440z" />
    <glyph glyph-name="Q" unicode="Q" horiz-adv-x="1554" 
d="M705 -33q-301 0 -464 167t-163 472q0 178 55 339t158.5 284t253 195.5t313.5 72.5q300 0 466.5 -183.5t166.5 -463.5q0 -211 -81 -400.5t-230 -314.5l178 -170l-111 -115l-203 195q-150 -78 -339 -78zM1296 860q0 204 -110.5 338.5t-304.5 134.5q-285 0 -447 -218.5
t-162 -508.5q0 -218 109.5 -347.5t323.5 -129.5q117 0 208 43l-133 127l111 117l162 -158q179 149 211 329.5t32 272.5z" />
    <glyph glyph-name="R" unicode="R" horiz-adv-x="1402" 
d="M1174 1077q0 221 -287 221h-404l-108 -510h438q201 0 281 90t80 199zM887 1462q333 0 407 -132t74 -223q0 -163 -91 -276t-239 -135v-4q134 -40 146.5 -166t-2.5 -211.5t-21.5 -166t29.5 -148.5h-203q-36 107 4 313q41 253 -33.5 281.5t-107.5 30.5h-510l-131 -625h-195
l310 1462h563z" />
    <glyph glyph-name="S" unicode="S" horiz-adv-x="1327" 
d="M225 479q-14 -350 379 -350q160 0 268.5 70.5t108.5 213.5t-103.5 183.5t-156.5 54.5l-199 54q-327 89 -327 368q0 196 158.5 310t381.5 114t377 -118t145 -349h-194q6 244 -127.5 273.5t-197.5 29.5q-139 0 -244 -61t-105 -178q0 -143 94.5 -182.5t143.5 -53.5l196 -53
q160 -42 256.5 -129t96.5 -266q0 -211 -174.5 -327t-395.5 -116q-431 0 -508.5 188.5t-66.5 323.5h194z" />
    <glyph glyph-name="T" unicode="T" horiz-adv-x="1175" 
d="M1300 1298h-491l-274 -1298h-195l274 1298h-491l35 164h1179z" />
    <glyph glyph-name="U" unicode="U" horiz-adv-x="1478" 
d="M360.5 233.5q90.5 -104.5 307.5 -104.5t291.5 93t102.5 177t50 187l184 876h195l-182 -876q-44 -208 -77 -290q-68 -165 -217.5 -247t-348.5 -82q-326 0 -460 163t-71 472l182 860h195l-193 -909q-49 -215 41.5 -319.5z" />
    <glyph glyph-name="V" unicode="V" horiz-adv-x="1251" 
d="M590 0h-219l-209 1462h198l150 -1272h4l694 1272h207z" />
    <glyph glyph-name="W" unicode="W" horiz-adv-x="1896" 
d="M1341 0h-202l-92 1262h-5l-577 -1262h-209l-92 1462h192l52 -1231h4l561 1231h221l82 -1235h4l532 1235h201z" />
    <glyph glyph-name="X" unicode="X" horiz-adv-x="1251" 
d="M545 764l-352 698h208l271 -577l469 577h219l-602 -725l370 -737h-200l-295 618l-500 -618h-221z" />
    <glyph glyph-name="Y" unicode="Y" horiz-adv-x="1251" 
d="M520 588l-385 874h207l299 -708l555 708h225l-708 -874l-127 -588h-191z" />
    <glyph glyph-name="Z" unicode="Z" horiz-adv-x="1251" 
d="M-41 162l1096 1136h-838l41 164h1067l-35 -166l-1106 -1132h934l-35 -164h-1159z" />
    <glyph glyph-name="bracketleft" unicode="[" horiz-adv-x="530" 
d="M334 1497h387l-29 -133h-221l-336 -1634h221l-28 -133h-385z" />
    <glyph glyph-name="backslash" unicode="\" horiz-adv-x="681" 
d="M719 -33h-150l-604 1530h148z" />
    <glyph glyph-name="bracketright" unicode="]" horiz-adv-x="530" 
d="M125 -403h-385l29 133h221l334 1634h-222l29 133h387z" />
    <glyph glyph-name="asciicircum" unicode="^" horiz-adv-x="1228" 
d="M549 1427h131l446 -886h-143l-371 737l-364 -737h-146z" />
    <glyph glyph-name="underscore" unicode="_" horiz-adv-x="1024" 
d="M0 -152h1024v-102h-1024v102z" />
    <glyph glyph-name="grave" unicode="`" horiz-adv-x="454" 
d="M500 1204h-138l-206 293h206z" />
    <glyph glyph-name="a" unicode="a" horiz-adv-x="1062" 
d="M344 129q207 0 297 139q43 59 58.5 129t33.5 144h-4q-54 -39 -221.5 -56.5t-227 -41t-92 -61.5t-33.5 -109t57 -107.5t132 -36.5zM657 129q-113 -152 -321 -152q-102 0 -159.5 15.5t-126 73t-68.5 191.5t50 199.5t128 99.5t172 46t173 20q168 16 221.5 42.5t53.5 114.5
t-63 119.5t-131 31.5q-129 0 -208.5 -48t-94.5 -143h-174q23 166 150.5 255t307.5 89q387 0 387 -270q0 -54 -32 -192l-68 -289q-6 -33 -17.5 -74t-11.5 -92t52 -51q13 0 55 14l-27 -129q-58 -23 -118 -23t-97 39t-28 109z" />
    <glyph glyph-name="b" unicode="b" horiz-adv-x="1214" 
d="M930 620q0 137 -62 223.5t-178 86.5q-210 0 -322 -169t-112 -368q0 -125 80 -194.5t192 -69.5t183 49t120.5 123t74 161.5t24.5 157.5zM365 924q123 159 325 159t308 -122.5t106 -333.5q0 -266 -152.5 -458t-406.5 -192q-139 0 -238.5 67t-118.5 153h-4l-39 -197h-153
l307 1462h174l-113 -534z" />
    <glyph glyph-name="c" unicode="c" horiz-adv-x="1099" 
d="M963 346q-96 -369 -499 -369q-202 0 -311.5 119t-109.5 336q0 268 156.5 459.5t429.5 191.5q180 0 285.5 -87t111.5 -273h-174q0 98 -59.5 152.5t-161.5 54.5q-190 0 -302 -153.5t-112 -354.5t94.5 -247t187.5 -46t173 59.5t116 157.5h175z" />
    <glyph glyph-name="d" unicode="d" horiz-adv-x="1214" 
d="M209 390q0 -108 64.5 -184.5t207.5 -76.5q98 0 176 51t130.5 129t80 171.5t27.5 193.5t-68.5 178t-184.5 78t-194.5 -48t-132 -124t-80 -168t-26.5 -200zM454 -23q-198 0 -308.5 116.5t-110.5 316.5q0 256 114.5 404.5t224 208.5t249.5 60q184 0 248.5 -66.5t80.5 -119.5
h4l113 565h172l-309 -1462h-164l37 152h-4q-78 -102 -161 -138.5t-186 -36.5z" />
    <glyph glyph-name="e" unicode="e" horiz-adv-x="1099" 
d="M357 848.5q-90 -81.5 -132 -217.5h615q9 124 -52.5 211.5t-201.5 87.5q-139 0 -229 -81.5zM1014 614q0 -39 -17 -137h-796q-6 -45 -6 -99q0 -114 82.5 -181.5t191.5 -67.5q229 0 305 203h174q-39 -172 -171 -263.5t-286 -91.5q-153 0 -240 40t-159 127.5t-72 247.5
q0 161 44.5 287t119 216t174 139t207.5 49q449 0 449 -469z" />
    <glyph glyph-name="f" unicode="f" horiz-adv-x="606" 
d="M632 1325q-44 0 -79 -23.5t-54.5 -61.5t-28.5 -85t-24 -96h203l-28 -154h-205l-195 -905h-174l197 905h-181l31 154h180q20 80 38 155.5t70.5 170t233.5 94.5q92 0 146 -17l-29 -147q-57 10 -101 10z" />
    <glyph glyph-name="g" unicode="g" horiz-adv-x="1175" 
d="M217 438q0 -128 67.5 -210.5t179.5 -82.5q196 0 297 162.5t101 345.5q0 125 -66.5 201t-203.5 76q-92 0 -162 -51.5t-117 -126t-71.5 -161.5t-24.5 -153zM43 430q0 249 108.5 393t211 202t226.5 58t221 -59t120 -156v-4h4l33 195h163l-190 -905q-42 -191 -82 -287
q-68 -160 -188.5 -227.5t-292.5 -67.5q-280 0 -349 120t-71 208h172q13 -174 266 -174t306 173t73 251l-4 4q-106 -160 -315 -160t-310.5 120t-101.5 316z" />
    <glyph glyph-name="h" unicode="h" 
d="M748 1083q276 0 276 -272q0 -79 -31 -207l-129 -604h-174l135 618q2 16 13.5 72t11.5 92q0 76 -54 112t-128 36t-144.5 -35t-120.5 -88q-77 -67 -116 -221l-123 -586h-172l307 1462h174l-125 -559l4 -4q132 184 396 184z" />
    <glyph glyph-name="i" unicode="i" horiz-adv-x="454" 
d="M211 1059h174l-221 -1059h-172zM426 1249h-176l45 213h176z" />
    <glyph glyph-name="j" unicode="j" horiz-adv-x="454" 
d="M-71.5 -215q22.5 35 53.5 164l229 1110h174l-266 -1256q-48 -206 -248 -206q-72 0 -115 12l31 153q48 -12 84 -12q35 0 57.5 35zM426 1249h-176l45 213h176z" />
    <glyph glyph-name="k" unicode="k" horiz-adv-x="985" 
d="M299 1462h172l-182 -860l4 -4l532 461h228l-461 -391l262 -668h-195l-206 563l-209 -186l-80 -377h-172z" />
    <glyph glyph-name="l" unicode="l" horiz-adv-x="454" 
d="M297 1462h174l-307 -1462h-172z" />
    <glyph glyph-name="m" unicode="m" horiz-adv-x="1744" 
d="M711 1083q224 0 266 -190q61 86 159 138t212 52t200 -57.5t86 -179.5q0 -76 -30 -211l-134 -635h-174l148 672q16 67 16 121t-46 95.5t-100 41.5q-84 0 -158 -41.5t-124 -104.5q-43 -47 -63.5 -108.5t-34.5 -128.5l-117 -547h-174l127 604q33 144 33 198q0 55 -38 91.5
t-109.5 36.5t-142.5 -41t-118 -94q-55 -53 -75.5 -107.5t-36.5 -132.5l-119 -555h-172l223 1059h162l-39 -158l4 -4q68 86 163 136t206 50z" />
    <glyph glyph-name="n" unicode="n" 
d="M748 1083q276 0 276 -272q0 -79 -31 -207l-129 -604h-174l135 618q2 16 13.5 72t11.5 92q0 76 -54 112t-128 36t-144.5 -35t-120.5 -88q-77 -67 -116 -221l-123 -586h-172l221 1059h168l-33 -160h4q132 184 396 184z" />
    <glyph glyph-name="o" unicode="o" horiz-adv-x="1175" 
d="M209 420q0 -131 73.5 -211t217.5 -80q175 0 284 162t109 340q0 206 -103.5 252.5t-189.5 46.5t-162 -49.5t-152.5 -161t-76.5 -299.5zM35 434q0 112 40 233t162 268.5t390 147.5q215 0 327.5 -111.5t112.5 -326.5q0 -275 -159.5 -471.5t-426.5 -196.5
q-205 0 -325.5 122.5t-120.5 334.5z" />
    <glyph glyph-name="p" unicode="p" horiz-adv-x="1214" 
d="M932 670q0 108 -64.5 184t-208.5 76q-98 0 -175.5 -51.5t-157.5 -169.5t-80 -306q0 -119 69 -196.5t185 -77.5t194 48t131.5 124t80 168.5t26.5 200.5zM688 1083q199 0 308.5 -117.5t109.5 -316.5q0 -256 -114.5 -404.5t-224.5 -208t-249 -59.5q-185 0 -250 66t-80 119
h-4l-112 -565h-170l307 1462h164l-37 -152h4q78 102 161 139t187 37z" />
    <glyph glyph-name="q" unicode="q" horiz-adv-x="1214" 
d="M35 434q0 260 152.5 454.5t404.5 194.5q117 0 208 -42t134 -150h4l35 168h176l-309 -1462h-176l114 538h-4q-127 -158 -331 -158t-306 125.5t-102 331.5zM209 444q0 -145 67.5 -230t186.5 -85q120 0 196 53.5t150 170t74 317.5q0 123 -72.5 191.5t-184.5 68.5t-186.5 -47
t-126 -119t-78 -160t-26.5 -160z" />
    <glyph glyph-name="r" unicode="r" horiz-adv-x="681" 
d="M713 1083q16 0 30.5 2t30.5 -2l-41 -186q-8 2 -26 2h-25q-67 0 -121 -14q-55 -14 -111.5 -59.5t-103.5 -116.5t-82 -240l-100 -469h-172l219 1059h164l-51 -228h4q61 109 156.5 180.5t228.5 71.5z" />
    <glyph glyph-name="s" unicode="s" horiz-adv-x="985" 
d="M508 930q-149 0 -187 -47t-38 -86t23.5 -65.5t63.5 -49.5t90 -42t102 -41q129 -55 204.5 -119.5t75.5 -164.5q0 -175 -128 -256.5t-304 -81.5q-305 0 -365.5 127t-60.5 230h172q-8 -108 70 -156.5t200 -48.5q161 0 201.5 58.5t40.5 100.5t-25 69.5t-63.5 50t-89 41.5
t-102.5 41q-134 56 -206.5 117.5t-72.5 170.5q0 144 119.5 224.5t330 80.5t276.5 -121.5t66 -213.5h-174q4 90 -61.5 136t-157.5 46z" />
    <glyph glyph-name="t" unicode="t" horiz-adv-x="645" 
d="M334 -10q-238 0 -238 170q0 26 10 88l140 657h-178l32 154h179l65 313h174l-65 -313h211l-33 -154h-211l-131 -622q-2 -18 -4 -35t-2 -35q0 -72 104 -72q43 0 100 19l-30 -160q-77 -10 -123 -10z" />
    <glyph glyph-name="u" unicode="u" 
d="M31 248q0 74 30 207l129 604h175l-136 -619q-24 -84 -24 -162t53 -113.5t129 -35.5q143 0 247 103t134 241l123 586h174l-223 -1059h-168l33 160h-5q-131 -183 -396 -183q-275 0 -275 271z" />
    <glyph glyph-name="v" unicode="v" horiz-adv-x="985" 
d="M424 0h-186l-152 1059h184l90 -881h5l458 881h189z" />
    <glyph glyph-name="w" unicode="w" horiz-adv-x="1554" 
d="M1014 0h-185l-53 823h-4l-379 -823h-184l-125 1059h184l66 -842h4l381 842h196l52 -842h4l401 842h189z" />
    <glyph glyph-name="x" unicode="x" horiz-adv-x="985" 
d="M360 561l-235 498h201l159 -385l316 385h211l-455 -512l270 -547h-198l-193 434l-360 -434h-209z" />
    <glyph glyph-name="y" unicode="y" horiz-adv-x="985" 
d="M7 -289q54 0 91 32t68 83l106 174l-186 1059h186l123 -842h4l445 842h190l-700 -1237q-33 -51 -102.5 -150.5t-237.5 -99.5q-69 0 -121 27l31 141q49 -29 103 -29z" />
    <glyph glyph-name="z" unicode="z" horiz-adv-x="909" 
d="M-82 131l735 774h-569l31 154h805l-27 -125l-743 -780h632l-28 -154h-860z" />
    <glyph glyph-name="braceleft" unicode="{" horiz-adv-x="681" 
d="M680 1374q-57 0 -90 -56t-45 -124l-76 -371q-28 -125 -104 -193.5t-132 -80.5l-2 -6q78 -11 106 -77t28 -102t-4.5 -54.5t-8.5 -41.5l-76 -368q-6 -35 -6 -76t12.5 -73t55.5 -32h102l-26 -122h-144q-68 0 -121 48.5t-53 135.5q0 38 8 84l78 371q8 46 8 100t-37.5 96.5
t-91.5 42.5l31 139q68 0 132 67t87 175l78 373q22 121 107.5 194.5t169.5 73.5h143l-27 -123h-102z" />
    <glyph glyph-name="bar" unicode="|" horiz-adv-x="454" 
d="M158 1610h139v-2046h-139v2046z" />
    <glyph glyph-name="braceright" unicode="}" horiz-adv-x="681" 
d="M-55 -281q75 0 101 73t32 108l76 368q24 125 101 193.5t134 81.5l2 6q-77 11 -105 76t-28 101t4 55.5t8 41.5l76 371q6 35 6 76t-12 72.5t-55 31.5h-103l27 123h143q68 0 121 -49t53 -135q0 -40 -8 -84l-78 -373q-8 -46 -8 -102t38 -98t91 -42l-31 -139q-67 0 -130 -67.5
t-89 -171.5l-78 -371q-22 -122 -106 -195t-168 -73h-143l26 122h103z" />
    <glyph glyph-name="asciitilde" unicode="~" horiz-adv-x="1228" 
d="M397 645q110 0 253 -73.5t179 -73.5t61 14t46.5 36.5t40 50.5t37.5 54l73 -102q-62 -89 -117 -132.5t-126 -43.5q-70 0 -120 19.5t-100 47.5t-108 54t-110 26t-78.5 -14t-53 -41.5t-59.5 -99.5l-74 102q85 176 256 176z" />
    <glyph glyph-name="nonbreakingspace" unicode="&#xa0;" horiz-adv-x="569" 
 />
    <glyph glyph-name="exclamdown" unicode="&#xa1;" horiz-adv-x="530" 
d="M412 831h-228l49 228h228zM41 51l184 631h94l-88 -631l-96 -454h-188z" />
    <glyph glyph-name="cent" unicode="&#xa2;" 
d="M238 446q0 -291 208 -321l172 815q-177 -12 -254 -129t-101.5 -205t-24.5 -160zM63 432q0 264 163.5 457.5t422.5 193.5l39 187h80l-41 -191q147 -18 233.5 -104t86.5 -252h-175q0 92 -47 146.5t-129 66.5l-172 -817q104 8 177 68.5t108 158.5h174q-47 -180 -173 -274.5
t-316 -94.5l-45 -213h-80l47 220q-178 20 -265.5 138t-87.5 310z" />
    <glyph glyph-name="sterling" unicode="&#xa3;" 
d="M434 546q0 -112 -83 -223.5t-191 -177.5v-4q45 23 110.5 39.5t121.5 16.5q56 1 133 -23t119 -39.5t93 -15.5t100.5 32.5t90.5 61.5l65 -147q-55 -39 -133 -69t-139 -30t-114.5 15.5t-105.5 32.5t-102.5 32.5t-110.5 15.5t-118.5 -27.5t-116.5 -58.5l-57 152
q135 110 194.5 189t59.5 178t-21 174h-176l21 92h127q-16 63 -31.5 128.5t-15.5 149.5t41 171t148.5 186.5t318.5 99.5t329.5 -143.5t106.5 -360.5h-185q13 140 -54 245t-203 105t-227 -97.5t-91 -232.5t47 -251h315l-20 -92h-266q20 -58 20 -124z" />
    <glyph glyph-name="currency" unicode="&#xa4;" 
d="M575 1227q82 0 160 -28t133 -75l117 115l102 -104l-112 -113q106 -114 106 -299t-106 -311l112 -115l-96 -96l-114 118q-120 -112 -306 -112q-185 0 -309 110l-112 -118l-99 98l113 119q-107 128 -107 309.5t111 292.5l-117 119l101 100l114 -115q126 105 309 105z
M330.5 969.5q-99.5 -103.5 -99.5 -254.5q0 -150 100.5 -252.5t242 -102.5t237.5 105t96 252t-95.5 251.5t-238.5 104.5t-242.5 -103.5z" />
    <glyph glyph-name="yen" unicode="&#xa5;" 
d="M422 356h-297l29 123h295l16 107l-16 47h-267l29 123h199l-226 706h201l207 -704l489 704h222l-510 -706h196l-26 -123h-265l-49 -68l-18 -86h301l-29 -123h-299l-74 -356h-182z" />
    <glyph glyph-name="brokenbar" unicode="&#xa6;" horiz-adv-x="454" 
d="M158 330h139v-510h-139v510zM297 842h-139v512h139v-512z" />
    <glyph glyph-name="section" unicode="&#xa7;" 
d="M842 418q0 57 -50.5 123.5t-116 133t-132 128t-97.5 108.5q-36 0 -78 -28.5t-49 -34.5q-61 -50 -61 -120t40 -127.5t81 -100.5l143 -154q20 -20 46 -49t44.5 -49.5t30.5 -34.5q199 42 199 205zM713 109q59 -63 59 -203q0 -64 -62 -183t-335 -126q-169 4 -265 109.5
t-96 277.5h164q0 -106 56.5 -170t152.5 -64t153.5 43t57.5 125t-100 201l-275 297q-47 53 -88 127.5t-41 150.5q0 258 285 322q-45 62 -45 152q0 161 110 245t269 84t261.5 -96.5t90.5 -263.5h-164q2 92 -46 149t-164 57t-149.5 -61t-33.5 -108q0 -78 91 -173
q91 -94 177 -180.5t140 -158.5t72 -117t18 -105q0 -135 -79 -225t-214 -106z" />
    <glyph glyph-name="dieresis" unicode="&#xa8;" horiz-adv-x="454" 
d="M494 1425h182l-43 -213h-182zM160 1425h182l-43 -213h-182z" />
    <glyph glyph-name="copyright" unicode="&#xa9;" horiz-adv-x="1638" 
d="M49 733q0 164 61.5 303.5t167 241.5t246 160.5t298 58.5t296.5 -58.5t243.5 -160.5t166 -241.5t61.5 -303.5t-61.5 -304t-166 -243.5t-243.5 -161t-296.5 -57.5t-298 57.5t-246 161t-167 243.5t-61.5 304zM370 266q182 -188 450 -188t449 187.5t181 467.5q0 279 -182 465
t-448 186q-267 0 -449.5 -186.5t-182.5 -464.5q0 -279 182 -467zM864 262q-224 0 -348.5 132.5t-124.5 338.5t120.5 335.5t328.5 129.5q147 0 253.5 -79t131.5 -232h-129q-16 86 -83 142t-157 56q-164 0 -245 -99.5t-81 -251.5q0 -151 87 -255t229 -104q104 0 169.5 58.5
t80.5 150.5h131q-33 -150 -137 -236t-226 -86z" />
    <glyph glyph-name="ordfeminine" unicode="&#xaa;" horiz-adv-x="636" 
d="M510 872q-72 -94 -224 -94q-84 0 -151 41t-67 143t76 146t158 52q165 15 227.5 35.5t62.5 82.5q0 45 -44 58.5t-93 13.5q-155 0 -179 -109h-122q14 106 101 158.5t189 52.5t186.5 -37t84.5 -112q0 -23 -8.5 -53.5t-12.5 -55.5l-41 -170q-6 -27 -16 -61.5t-10 -58.5
q-1 -24 25 -23q26 0 40 6l-16 -94q-33 -15 -75 -15t-65.5 26.5t-19.5 67.5h-6zM190 957q0 -40 36 -58t85 -18q113 6 160 39.5t66 101.5l24 92h-4q-31 -25 -102.5 -32t-113.5 -11t-76 -16.5t-54.5 -35t-20.5 -62.5z" />
    <glyph glyph-name="guillemotleft" unicode="&#xab;" horiz-adv-x="948" 
d="M61 512l45 188l357 205l-43 -174l-246 -139l178 -184l-39 -175zM463 512l45 188l356 205l-43 -174l-246 -139l179 -184l-39 -175z" />
    <glyph glyph-name="logicalnot" unicode="&#xac;" horiz-adv-x="1228" 
d="M1130 223h-139v432h-893v140h1032v-572z" />
    <glyph glyph-name="uni00AD" unicode="&#xad;" horiz-adv-x="796" 
d="M680 651l-33 -164h-594l33 164h594z" />
    <glyph glyph-name="registered" unicode="&#xae;" horiz-adv-x="1638" 
d="M49 733q0 164 61.5 303.5t167 241.5t246 160.5t298 58.5t296.5 -58.5t243.5 -160.5t166 -241.5t61.5 -303.5t-61.5 -304t-166 -243.5t-243.5 -161t-296.5 -57.5t-298 57.5t-246 161t-167 243.5t-61.5 304zM370 266q182 -188 450 -188t449 187.5t181 467.5q0 279 -182 465
t-448 186q-267 0 -449.5 -186.5t-182.5 -464.5q0 -279 182 -467zM868 1180q314 0 314 -256q0 -121 -67.5 -177.5t-168.5 -66.5l256 -395h-149l-244 385h-147v-385h-140v895h346zM662 782h145q117 0 176 26t59 122q0 114 -80.5 125.5t-115.5 11.5h-184v-285z" />
    <glyph glyph-name="macron" unicode="&#xaf;" horiz-adv-x="454" 
d="M133 1382h551l-22 -112h-553z" />
    <glyph glyph-name="degree" unicode="&#xb0;" horiz-adv-x="819" 
d="M158 1148.5q0 63.5 23.5 119t64.5 96.5t96 64.5t118.5 23.5t119 -23.5t96.5 -64.5t64.5 -96.5t23.5 -119t-23.5 -118.5t-64.5 -96t-96.5 -64.5t-119 -23.5t-118.5 23.5t-96 64.5t-64.5 96t-23.5 118.5zM260 1149q0 -86 57.5 -143.5t143.5 -57.5t143.5 57.5t57.5 143.5
t-57.5 143.5t-143.5 57.5t-143.5 -57.5t-57.5 -143.5z" />
    <glyph glyph-name="plusminus" unicode="&#xb1;" horiz-adv-x="1228" 
d="M98 694h447v340h139v-340h446v-139h-446v-342h-139v342h-447v139zM98 139h1032v-139h-1032v139z" />
    <glyph glyph-name="twosuperior" unicode="&#xb2;" horiz-adv-x="681" 
d="M598 1208q0 133 -158 129q-80 -2 -132 -52t-56 -136h-139q14 137 102 220t227 83t217 -65t78 -167q0 -174 -219 -294l-129 -74q-143 -78 -175 -111.5t-36 -54.5h473l-20 -113h-606q0 118 55.5 188t198.5 161l131 82q85 50 136.5 95.5t51.5 108.5z" />
    <glyph glyph-name="threesuperior" unicode="&#xb3;" horiz-adv-x="681" 
d="M692 844q0 -111 -95.5 -198t-257.5 -87q-161 0 -235.5 76t-68.5 211h139q-5 -85 30 -129.5t134 -44.5q98 0 156.5 44t58.5 130q0 129 -92 131t-133 0l18 102q167 -16 210.5 41.5t43.5 115.5q0 102 -151 103q-80 0 -129.5 -44t-53.5 -115h-139q6 119 93 195.5t235 76.5
q195 0 239.5 -83t44.5 -147t-51 -118.5t-129 -73.5v-4q133 -45 133 -182z" />
    <glyph glyph-name="acute" unicode="&#xb4;" horiz-adv-x="454" 
d="M471 1497h231l-278 -293h-143z" />
    <glyph glyph-name="mu" unicode="&#xb5;" 
d="M359 -23q-81 0 -132 26t-67 50h-4l-97 -456h-172l303 1462h175l-136 -619q-24 -84 -24 -162t53 -113.5t129 -35.5q143 0 247 103t134 241l123 586h174l-223 -1059h-168l33 160h-5q-66 -90 -164 -136.5t-179 -46.5z" />
    <glyph glyph-name="paragraph" unicode="&#xb6;" horiz-adv-x="1228" 
d="M696 1462h488l-371 -1777h-131l346 1665h-258l-346 -1665h-133l209 1003q-186 0 -285 110t-65 271q41 199 186 296t360 97z" />
    <glyph glyph-name="periodcentered" unicode="&#xb7;" horiz-adv-x="569" 
d="M137 520q0 55 40 92t93 37t91 -38t38 -94t-37.5 -93t-91.5 -37t-93.5 39t-39.5 94z" />
    <glyph glyph-name="cedilla" unicode="&#xb8;" horiz-adv-x="454" 
d="M306 -136.5q54 -38.5 54 -119.5t-74.5 -126.5t-172.5 -45.5t-195 45l37 88q33 -10 63.5 -20.5t71.5 -10.5t79 10.5t38 48.5q0 66 -94 66q-54 0 -86 -16l-37 61l149 183h97l-119 -133h4q20 8 76 8q55 0 109 -38.5z" />
    <glyph glyph-name="onesuperior" unicode="&#xb9;" horiz-adv-x="681" 
d="M438 573h-135l135 666q-103 -35 -239 -35l18 103q111 0 193 43t116 102h97z" />
    <glyph glyph-name="ordmasculine" unicode="&#xba;" horiz-adv-x="704" 
d="M213 1040q0 -60 42.5 -109.5t116.5 -49.5q128 0 200.5 90.5t72.5 206.5q0 72 -40.5 122t-118.5 50t-126.5 -28t-81 -72t-49 -97t-16.5 -113zM768 1186q0 -165 -106.5 -286.5t-274.5 -121.5q-135 0 -217 67t-81 218t108.5 270t265.5 119q305 0 305 -266z" />
    <glyph glyph-name="guillemotright" unicode="&#xbb;" horiz-adv-x="948" 
d="M457 627l-45 -189l-357 -205l43 175l246 139l-178 184l39 174zM858 627l-45 -189l-356 -205l43 175l245 139l-178 184l39 174z" />
    <glyph glyph-name="onequarter" unicode="&#xbc;" horiz-adv-x="1708" 
d="M1251 197h-407l22 118l551 564h119l-131 -570h125l-27 -112h-123l-45 -197h-129zM1272 309l84 371h-4l-365 -371h285zM401 573h-135l135 666q-103 -35 -239 -35l18 103q111 0 193 43t116 102h97zM1145 1485h131l-891 -1540h-131z" />
    <glyph glyph-name="onehalf" unicode="&#xbd;" horiz-adv-x="1708" 
d="M401 573h-135l135 666q-103 -35 -239 -35l18 103q111 0 193 43t116 102h97zM1456 635q0 131 -158 131q-80 0 -132 -52t-56 -139h-139q14 137 102 220.5t228 83.5t217 -66t77 -168q0 -174 -219 -293l-129 -73q-141 -77 -174 -111.5t-37 -54.5h473l-20 -113h-606
q0 118 55 186.5t199 161.5l131 82q86 50 137 96t51 109zM1145 1485h131l-891 -1540h-131z" />
    <glyph glyph-name="threequarters" unicode="&#xbe;" horiz-adv-x="1708" 
d="M1329 197h-407l22 118l551 564h119l-131 -570h125l-27 -112h-123l-45 -197h-129zM1434 680h-4l-365 -371h285zM692 844q0 -111 -95.5 -198t-257.5 -87q-161 0 -235.5 76t-68.5 211h139q-5 -85 30 -129.5t134 -44.5q98 0 156.5 44t58.5 130q0 129 -92 131t-133 0l18 102
q167 -16 210.5 41.5t43.5 115.5q0 102 -151 103q-80 0 -129.5 -44t-53.5 -115h-139q6 119 93 195.5t235 76.5q195 0 239.5 -83t44.5 -147t-51 -118.5t-129 -73.5v-4q133 -45 133 -182zM1298 1485h132l-891 -1540h-131z" />
    <glyph glyph-name="questiondown" unicode="&#xbf;" 
d="M371 -274q278 0 338 325h174q-24 -220 -161 -349.5t-357 -129.5q-169 0 -285.5 97.5t-116.5 267.5q0 123 62.5 212t138.5 143t126 91t116 105t77 192h170q-25 -168 -95.5 -258.5t-233.5 -202.5q-68 -49 -123.5 -114.5t-55.5 -156.5t63 -156.5t163 -65.5zM713 831h-226
l45 228h232z" />
    <glyph glyph-name="Agrave" unicode="&#xc0;" horiz-adv-x="1366" 
d="M449 604h503l-108 686h-4zM768 1462h213l264 -1462h-201l-67 440h-617l-256 -440h-215zM997 1546h-137l-207 293h207z" />
    <glyph glyph-name="Aacute" unicode="&#xc1;" horiz-adv-x="1366" 
d="M449 604h503l-108 686h-4zM768 1462h213l264 -1462h-201l-67 440h-617l-256 -440h-215zM969 1839h231l-278 -293h-144z" />
    <glyph glyph-name="Acircumflex" unicode="&#xc2;" horiz-adv-x="1366" 
d="M449 604h503l-108 686h-4zM768 1462h213l264 -1462h-201l-67 440h-617l-256 -440h-215zM831 1839h177l153 -293h-151l-105 191l-178 -191h-168z" />
    <glyph glyph-name="Atilde" unicode="&#xc3;" horiz-adv-x="1366" 
d="M449 604h503l-108 686h-4zM768 1462h213l264 -1462h-201l-67 440h-617l-256 -440h-215zM746 1788q44 0 82 -16.5t77 -33.5t72 -32.5t59 -11.5q47 0 66.5 24.5t38.5 59.5h104q-31 -101 -78 -162.5t-131 -61.5q-45 0 -120.5 35t-110.5 49.5t-57 10.5q-41 0 -62.5 -25
t-34.5 -59h-106q49 152 103 187.5t98 35.5z" />
    <glyph glyph-name="Adieresis" unicode="&#xc4;" horiz-adv-x="1366" 
d="M449 604h503l-108 686h-4zM768 1462h213l264 -1462h-201l-67 440h-617l-256 -440h-215zM991 1767h183l-44 -213h-182zM657 1767h183l-43 -213h-183z" />
    <glyph glyph-name="Aring" unicode="&#xc5;" horiz-adv-x="1366" 
d="M449 604h503l-108 686h-4zM768 1462h213l264 -1462h-201l-67 440h-617l-256 -440h-215zM766 1728.5q0 -59.5 40 -99.5t99.5 -40t99 40t39.5 99.5t-39.5 99.5t-99 40t-99.5 -40t-40 -99.5zM674 1728.5q0 47.5 18.5 89.5t50 73.5t73.5 50t89 18.5t89 -18.5t74 -50
t50.5 -73.5t18.5 -89.5t-18.5 -89.5t-50.5 -73.5t-74 -50t-89 -18.5t-89 18.5t-73.5 50t-50 73.5t-18.5 89.5z" />
    <glyph glyph-name="AE" unicode="&#xc6;" horiz-adv-x="1896" 
d="M481 590h393l154 708h-45zM903 1462h1073l-34 -164h-719l-97 -464h676l-37 -164h-673l-109 -506h731l-33 -164h-931l88 426h-471l-306 -426h-221z" />
    <glyph glyph-name="Ccedilla" unicode="&#xc7;" horiz-adv-x="1478" 
d="M719 -264q0 63 -104 63q-44 0 -76 -16l-39 61l108 131q-258 25 -394 188t-136 443q0 178 55 339t158.5 284t253 195.5t336.5 72.5q245 0 401 -130t156 -376h-195q0 172 -101.5 257t-257.5 85q-288 0 -450 -218.5t-162 -508.5q0 -218 109.5 -347.5t306.5 -129.5t309.5 95
t159.5 270h195q-55 -246 -216 -386.5t-431 -140.5h-11l-65 -73h4q46 19 100.5 5t96.5 -44t42 -111t-74.5 -126.5t-172.5 -45.5t-197 45l37 88q33 -10 64.5 -20.5t72.5 -10.5t79 10.5t38 51.5z" />
    <glyph glyph-name="Egrave" unicode="&#xc8;" horiz-adv-x="1251" 
d="M324 1462h1007l-33 -164h-813l-98 -464h758l-33 -164h-760l-106 -506h823l-37 -164h-1018zM961 1546h-138l-207 293h207z" />
    <glyph glyph-name="Eacute" unicode="&#xc9;" horiz-adv-x="1251" 
d="M324 1462h1007l-33 -164h-813l-98 -464h758l-33 -164h-760l-106 -506h823l-37 -164h-1018zM932 1839h231l-278 -293h-144z" />
    <glyph glyph-name="Ecircumflex" unicode="&#xca;" horiz-adv-x="1251" 
d="M324 1462h1007l-33 -164h-813l-98 -464h758l-33 -164h-760l-106 -506h823l-37 -164h-1018zM795 1839h176l153 -293h-151l-105 191l-178 -191h-168z" />
    <glyph glyph-name="Edieresis" unicode="&#xcb;" horiz-adv-x="1251" 
d="M324 1462h1007l-33 -164h-813l-98 -464h758l-33 -164h-760l-106 -506h823l-37 -164h-1018zM954 1767h183l-43 -213h-183zM621 1767h182l-43 -213h-182z" />
    <glyph glyph-name="Igrave" unicode="&#xcc;" horiz-adv-x="530" 
d="M322 1462h194l-307 -1462h-195zM559 1546h-137l-207 293h207z" />
    <glyph glyph-name="Iacute" unicode="&#xcd;" horiz-adv-x="530" 
d="M322 1462h194l-307 -1462h-195zM530 1839h232l-279 -293h-143z" />
    <glyph glyph-name="Icircumflex" unicode="&#xce;" horiz-adv-x="530" 
d="M322 1462h194l-307 -1462h-195zM393 1839h176l154 -293h-152l-104 191l-178 -191h-168z" />
    <glyph glyph-name="Idieresis" unicode="&#xcf;" horiz-adv-x="530" 
d="M322 1462h194l-307 -1462h-195zM553 1767h182l-43 -213h-182zM219 1767h182l-43 -213h-182z" />
    <glyph glyph-name="Eth" unicode="&#xd0;" horiz-adv-x="1441" 
d="M836 1462q272 0 412.5 -149.5t140.5 -409.5q0 -410 -223.5 -656.5t-590.5 -246.5h-561l148 694h-135l28 140h135l134 628h512zM1194 883q0 415 -403 415h-312l-98 -464h410l-29 -140h-410l-112 -530h338q293 0 454.5 214.5t161.5 504.5z" />
    <glyph glyph-name="Ntilde" unicode="&#xd1;" horiz-adv-x="1478" 
d="M324 1462h208l523 -1210h4l244 1210h188l-309 -1462h-209l-518 1202h-4l-248 -1202h-189zM600 1565q72 223 201 223q43 0 82 -16.5t78 -33.5t71.5 -32.5t59.5 -11.5q47 0 66.5 24.5t37.5 59.5h104q-31 -101 -78 -162.5t-130 -61.5q-46 0 -121.5 35t-110.5 49.5t-57 10.5
q-66 0 -96 -84h-107z" />
    <glyph glyph-name="Ograve" unicode="&#xd2;" horiz-adv-x="1554" 
d="M78 606q0 178 55 339t158.5 284t253 195.5t313.5 72.5q300 0 466.5 -183.5t166.5 -463.5q0 -172 -54.5 -332t-155.5 -282.5t-247.5 -195.5t-328.5 -73q-301 0 -464 167t-163 472zM272 620q0 -232 109.5 -361.5t323.5 -129.5q145 0 255.5 63.5t223 217.5t112.5 440
q0 214 -110.5 348.5t-304.5 134.5q-285 0 -409 -167t-162 -296.5t-38 -249.5zM1051 1546h-138l-206 293h206z" />
    <glyph glyph-name="Oacute" unicode="&#xd3;" horiz-adv-x="1554" 
d="M78 606q0 178 55 339t158.5 284t253 195.5t313.5 72.5q300 0 466.5 -183.5t166.5 -463.5q0 -172 -54.5 -332t-155.5 -282.5t-247.5 -195.5t-328.5 -73q-301 0 -464 167t-163 472zM272 620q0 -232 109.5 -361.5t323.5 -129.5q145 0 255.5 63.5t223 217.5t112.5 440
q0 214 -110.5 348.5t-304.5 134.5q-285 0 -409 -167t-162 -296.5t-38 -249.5zM1022 1839h231l-278 -293h-144z" />
    <glyph glyph-name="Ocircumflex" unicode="&#xd4;" horiz-adv-x="1554" 
d="M78 606q0 178 55 339t158.5 284t253 195.5t313.5 72.5q300 0 466.5 -183.5t166.5 -463.5q0 -172 -54.5 -332t-155.5 -282.5t-247.5 -195.5t-328.5 -73q-301 0 -464 167t-163 472zM272 620q0 -232 109.5 -361.5t323.5 -129.5q145 0 255.5 63.5t223 217.5t112.5 440
q0 214 -110.5 348.5t-304.5 134.5q-285 0 -409 -167t-162 -296.5t-38 -249.5zM885 1839h176l153 -293h-151l-105 191l-178 -191h-168z" />
    <glyph glyph-name="Otilde" unicode="&#xd5;" horiz-adv-x="1554" 
d="M78 606q0 178 55 339t158.5 284t253 195.5t313.5 72.5q300 0 466.5 -183.5t166.5 -463.5q0 -172 -54.5 -332t-155.5 -282.5t-247.5 -195.5t-328.5 -73q-301 0 -464 167t-163 472zM272 620q0 -232 109.5 -361.5t323.5 -129.5q145 0 255.5 63.5t223 217.5t112.5 440
q0 214 -110.5 348.5t-304.5 134.5q-285 0 -409 -167t-162 -296.5t-38 -249.5zM598 1565q72 223 201 223q43 0 82 -16.5t77 -33.5t71.5 -32.5t60.5 -11.5q47 0 66.5 24.5t37.5 59.5h104q-31 -101 -78 -162.5t-130 -61.5q-46 0 -121.5 35t-110.5 49.5t-57 10.5q-66 0 -96 -84
h-107z" />
    <glyph glyph-name="Odieresis" unicode="&#xd6;" horiz-adv-x="1554" 
d="M78 606q0 178 55 339t158.5 284t253 195.5t313.5 72.5q300 0 466.5 -183.5t166.5 -463.5q0 -172 -54.5 -332t-155.5 -282.5t-247.5 -195.5t-328.5 -73q-301 0 -464 167t-163 472zM272 620q0 -232 109.5 -361.5t323.5 -129.5q145 0 255.5 63.5t223 217.5t112.5 440
q0 214 -110.5 348.5t-304.5 134.5q-285 0 -409 -167t-162 -296.5t-38 -249.5zM1044 1767h183l-43 -213h-183zM711 1767h182l-43 -213h-182z" />
    <glyph glyph-name="multiply" unicode="&#xd7;" horiz-adv-x="1228" 
d="M145 147l373 373l-371 369l99 98l370 -369l369 369l98 -98l-368 -369l370 -373l-98 -98l-371 373l-372 -373z" />
    <glyph glyph-name="Oslash" unicode="&#xd8;" horiz-adv-x="1554" 
d="M78 580q0 204 55 365t158.5 284t253 195.5t336.5 72.5q275 0 444 -186l201 190l59 -65l-205 -195q111 -172 111 -367q0 -196 -54.5 -356t-155.5 -282.5t-247.5 -195.5t-328.5 -73q-305 0 -469 178h-7l-194 -188l-58 63l203 197q-102 159 -102 363zM881 1333
q-285 0 -447 -218.5t-162 -508.5q0 -147 52 -252l870 832q-111 147 -313 147zM705 129q145 0 255.5 63.5t223 217.5t112.5 440q0 147 -55 258l-870 -832q111 -147 334 -147z" />
    <glyph glyph-name="Ugrave" unicode="&#xd9;" horiz-adv-x="1478" 
d="M360.5 233.5q90.5 -104.5 307.5 -104.5t291.5 93t102.5 177t50 187l184 876h195l-182 -876q-44 -208 -77 -290q-68 -165 -217.5 -247t-348.5 -82q-326 0 -460 163t-71 472l182 860h195l-193 -909q-49 -215 41.5 -319.5zM1032 1546h-137l-207 293h207z" />
    <glyph glyph-name="Uacute" unicode="&#xda;" horiz-adv-x="1478" 
d="M360.5 233.5q90.5 -104.5 307.5 -104.5t291.5 93t102.5 177t50 187l184 876h195l-182 -876q-44 -208 -77 -290q-68 -165 -217.5 -247t-348.5 -82q-326 0 -460 163t-71 472l182 860h195l-193 -909q-49 -215 41.5 -319.5zM1004 1839h231l-279 -293h-143z" />
    <glyph glyph-name="Ucircumflex" unicode="&#xdb;" horiz-adv-x="1478" 
d="M360.5 233.5q90.5 -104.5 307.5 -104.5t291.5 93t102.5 177t50 187l184 876h195l-182 -876q-44 -208 -77 -290q-68 -165 -217.5 -247t-348.5 -82q-326 0 -460 163t-71 472l182 860h195l-193 -909q-49 -215 41.5 -319.5zM866 1839h176l154 -293h-152l-104 191l-178 -191
h-168z" />
    <glyph glyph-name="Udieresis" unicode="&#xdc;" horiz-adv-x="1478" 
d="M360.5 233.5q90.5 -104.5 307.5 -104.5t291.5 93t102.5 177t50 187l184 876h195l-182 -876q-44 -208 -77 -290q-68 -165 -217.5 -247t-348.5 -82q-326 0 -460 163t-71 472l182 860h195l-193 -909q-49 -215 41.5 -319.5zM1026 1767h182l-43 -213h-182zM692 1767h182
l-43 -213h-182z" />
    <glyph glyph-name="Yacute" unicode="&#xdd;" horiz-adv-x="1251" 
d="M520 588l-385 874h207l299 -708l555 708h225l-708 -874l-127 -588h-191zM870 1839h232l-279 -293h-143z" />
    <glyph glyph-name="Thorn" unicode="&#xde;" horiz-adv-x="1327" 
d="M844 1229q211 0 322.5 -100.5t111.5 -287.5t-133.5 -331.5t-425.5 -144.5h-434l-76 -365h-195l305 1462h195l-47 -233h377zM760 528q160 0 241.5 83t81.5 214q0 185 -95 212.5t-144 27.5h-412l-113 -537h441z" />
    <glyph glyph-name="germandbls" unicode="&#xdf;" horiz-adv-x="1099" 
d="M944 1422q109 -75 109 -228t-87.5 -259t-217.5 -122v-4q106 -15 168.5 -98.5t62.5 -197.5q0 -222 -145.5 -379t-364.5 -157q-82 0 -150 11l29 145q20 -4 31 -4h31q167 0 281 97t114 268q0 208 -131 223.5t-199 13.5l31 143q152 -9 262.5 63.5t110.5 217.5
q0 87 -62.5 137.5t-139.5 50.5q-137 0 -201 -87t-95 -238l-215 -1018h-174l217 1032q43 226 151 345.5t292 119.5q183 0 292 -75z" />
    <glyph glyph-name="agrave" unicode="&#xe0;" horiz-adv-x="1062" 
d="M344 129q207 0 297 139q43 59 58.5 129t33.5 144h-4q-54 -39 -221.5 -56.5t-227 -41t-92 -61.5t-33.5 -109t57 -107.5t132 -36.5zM657 129q-113 -152 -321 -152q-102 0 -159.5 15.5t-126 73t-68.5 191.5t50 199.5t128 99.5t172 46t173 20q168 16 221.5 42.5t53.5 114.5
t-63 119.5t-131 31.5q-129 0 -208.5 -48t-94.5 -143h-174q23 166 150.5 255t307.5 89q387 0 387 -270q0 -54 -32 -192l-68 -289q-6 -33 -17.5 -74t-11.5 -92t52 -51q13 0 55 14l-27 -129q-58 -23 -118 -23t-97 39t-28 109zM754 1204h-138l-206 293h206z" />
    <glyph glyph-name="aacute" unicode="&#xe1;" horiz-adv-x="1062" 
d="M344 129q207 0 297 139q43 59 58.5 129t33.5 144h-4q-54 -39 -221.5 -56.5t-227 -41t-92 -61.5t-33.5 -109t57 -107.5t132 -36.5zM657 129q-113 -152 -321 -152q-102 0 -159.5 15.5t-126 73t-68.5 191.5t50 199.5t128 99.5t172 46t173 20q168 16 221.5 42.5t53.5 114.5
t-63 119.5t-131 31.5q-129 0 -208.5 -48t-94.5 -143h-174q23 166 150.5 255t307.5 89q387 0 387 -270q0 -54 -32 -192l-68 -289q-6 -33 -17.5 -74t-11.5 -92t52 -51q13 0 55 14l-27 -129q-58 -23 -118 -23t-97 39t-28 109zM725 1497h231l-278 -293h-143z" />
    <glyph glyph-name="acircumflex" unicode="&#xe2;" horiz-adv-x="1062" 
d="M344 129q207 0 297 139q43 59 58.5 129t33.5 144h-4q-54 -39 -221.5 -56.5t-227 -41t-92 -61.5t-33.5 -109t57 -107.5t132 -36.5zM657 129q-113 -152 -321 -152q-102 0 -159.5 15.5t-126 73t-68.5 191.5t50 199.5t128 99.5t172 46t173 20q168 16 221.5 42.5t53.5 114.5
t-63 119.5t-131 31.5q-129 0 -208.5 -48t-94.5 -143h-174q23 166 150.5 255t307.5 89q387 0 387 -270q0 -54 -32 -192l-68 -289q-6 -33 -17.5 -74t-11.5 -92t52 -51q13 0 55 14l-27 -129q-58 -23 -118 -23t-97 39t-28 109zM588 1497h176l154 -293h-152l-104 191l-179 -191
h-168z" />
    <glyph glyph-name="atilde" unicode="&#xe3;" horiz-adv-x="1062" 
d="M344 129q207 0 297 139q43 59 58.5 129t33.5 144h-4q-54 -39 -221.5 -56.5t-227 -41t-92 -61.5t-33.5 -109t57 -107.5t132 -36.5zM657 129q-113 -152 -321 -152q-102 0 -159.5 15.5t-126 73t-68.5 191.5t50 199.5t128 99.5t172 46t173 20q168 16 221.5 42.5t53.5 114.5
t-63 119.5t-131 31.5q-129 0 -208.5 -48t-94.5 -143h-174q23 166 150.5 255t307.5 89q387 0 387 -270q0 -54 -32 -192l-68 -289q-6 -33 -17.5 -74t-11.5 -92t52 -51q13 0 55 14l-27 -129q-58 -23 -118 -23t-97 39t-28 109zM301 1223q72 223 201 223q43 0 82 -16.5t78 -33.5
t71.5 -32.5t59.5 -11.5q47 0 66.5 24.5t37.5 59.5h104q-31 -101 -78 -162.5t-130 -61.5q-46 0 -121.5 35t-110.5 49.5t-57 10.5q-66 0 -96 -84h-107z" />
    <glyph glyph-name="adieresis" unicode="&#xe4;" horiz-adv-x="1062" 
d="M344 129q207 0 297 139q43 59 58.5 129t33.5 144h-4q-54 -39 -221.5 -56.5t-227 -41t-92 -61.5t-33.5 -109t57 -107.5t132 -36.5zM657 129q-113 -152 -321 -152q-102 0 -159.5 15.5t-126 73t-68.5 191.5t50 199.5t128 99.5t172 46t173 20q168 16 221.5 42.5t53.5 114.5
t-63 119.5t-131 31.5q-129 0 -208.5 -48t-94.5 -143h-174q23 166 150.5 255t307.5 89q387 0 387 -270q0 -54 -32 -192l-68 -289q-6 -33 -17.5 -74t-11.5 -92t52 -51q13 0 55 14l-27 -129q-58 -23 -118 -23t-97 39t-28 109zM748 1425h182l-43 -213h-182zM414 1425h182
l-43 -213h-182z" />
    <glyph glyph-name="aring" unicode="&#xe5;" horiz-adv-x="1062" 
d="M344 129q207 0 297 139q43 59 58.5 129t33.5 144h-4q-54 -39 -221.5 -56.5t-227 -41t-92 -61.5t-33.5 -109t57 -107.5t132 -36.5zM657 129q-113 -152 -321 -152q-102 0 -159.5 15.5t-126 73t-68.5 191.5t50 199.5t128 99.5t172 46t173 20q168 16 221.5 42.5t53.5 114.5
t-63 119.5t-131 31.5q-129 0 -208.5 -48t-94.5 -143h-174q23 166 150.5 255t307.5 89q387 0 387 -270q0 -54 -32 -192l-68 -289q-6 -33 -17.5 -74t-11.5 -92t52 -51q13 0 55 14l-27 -129q-58 -23 -118 -23t-97 39t-28 109zM502 1355.5q0 -59.5 40 -99t99 -39.5t99 39.5
t40 99t-40 99.5t-99 40t-99 -40t-40 -99.5zM410 1356q0 47 18 89t50 73.5t74 50t89 18.5t89 -18.5t74 -50t50 -73.5t18 -89t-18 -89t-50 -74t-74 -50.5t-89 -18.5t-89 18.5t-74 50.5t-50 74t-18 89z" />
    <glyph glyph-name="ae" unicode="&#xe6;" horiz-adv-x="1781" 
d="M1041.5 841.5q-92.5 -88.5 -121.5 -210.5h593q17 126 -41.5 212.5t-197.5 86.5q-140 0 -232.5 -88.5zM795 788q0 142 -232 142q-98 0 -168.5 -48t-93.5 -141h-170q26 176 154.5 259t318.5 83q257 0 338 -165q57 80 148.5 122.5t189.5 42.5q205 0 306.5 -108.5
t101.5 -306.5q0 -77 -29 -191h-768q-10 -62 -10 -108q0 -100 64 -170t190 -70q229 0 313 203h178q-23 -63 -57 -119q-82 -123 -190.5 -179.5t-258.5 -56.5q-298 0 -372 228q-136 -228 -416 -228q-239 0 -289.5 102.5t-50.5 189.5t33.5 145.5t90 95.5t129 56.5t148.5 27.5
t239 24t163 170zM219 164q55 -35 134 -35q229 0 297 132.5t91 283.5q-71 -35 -188 -50.5t-177.5 -26.5t-136 -47t-75.5 -129t55 -128z" />
    <glyph glyph-name="ccedilla" unicode="&#xe7;" horiz-adv-x="1099" 
d="M436 -201q-52 0 -86 -16l-39 61l113 138q-193 16 -287 133.5t-94 316.5q0 268 156.5 459.5t429.5 191.5q180 0 285.5 -87t111.5 -273h-174q0 98 -59.5 152.5t-161.5 54.5q-190 0 -302 -153.5t-112 -354.5t94.5 -247t187.5 -46t173 59.5t116 157.5h175q-43 -168 -159 -262
t-288 -104l-76 -86h4q47 19 101.5 5t96.5 -44.5t42 -90.5q0 -102 -75 -147t-173 -45t-196 45l36 88q33 -10 65 -20.5t73 -10.5t78.5 10.5t37.5 51.5q0 63 -94 63z" />
    <glyph glyph-name="egrave" unicode="&#xe8;" horiz-adv-x="1099" 
d="M357 848.5q-90 -81.5 -132 -217.5h615q9 124 -52.5 211.5t-201.5 87.5q-139 0 -229 -81.5zM1014 614q0 -39 -17 -137h-796q-6 -45 -6 -99q0 -114 82.5 -181.5t191.5 -67.5q229 0 305 203h174q-39 -172 -171 -263.5t-286 -91.5q-153 0 -240 40t-159 127.5t-72 247.5
q0 161 44.5 287t119 216t174 139t207.5 49q449 0 449 -469zM772 1204h-137l-207 293h207z" />
    <glyph glyph-name="eacute" unicode="&#xe9;" horiz-adv-x="1099" 
d="M357 848.5q-90 -81.5 -132 -217.5h615q9 124 -52.5 211.5t-201.5 87.5q-139 0 -229 -81.5zM1014 614q0 -39 -17 -137h-796q-6 -45 -6 -99q0 -114 82.5 -181.5t191.5 -67.5q229 0 305 203h174q-39 -172 -171 -263.5t-286 -91.5q-153 0 -240 40t-159 127.5t-72 247.5
q0 161 44.5 287t119 216t174 139t207.5 49q449 0 449 -469zM743 1497h232l-279 -293h-143z" />
    <glyph glyph-name="ecircumflex" unicode="&#xea;" horiz-adv-x="1099" 
d="M357 848.5q-90 -81.5 -132 -217.5h615q9 124 -52.5 211.5t-201.5 87.5q-139 0 -229 -81.5zM1014 614q0 -39 -17 -137h-796q-6 -45 -6 -99q0 -114 82.5 -181.5t191.5 -67.5q229 0 305 203h174q-39 -172 -171 -263.5t-286 -91.5q-153 0 -240 40t-159 127.5t-72 247.5
q0 161 44.5 287t119 216t174 139t207.5 49q449 0 449 -469zM606 1497h176l154 -293h-152l-104 191l-178 -191h-168z" />
    <glyph glyph-name="edieresis" unicode="&#xeb;" horiz-adv-x="1099" 
d="M357 848.5q-90 -81.5 -132 -217.5h615q9 124 -52.5 211.5t-201.5 87.5q-139 0 -229 -81.5zM1014 614q0 -39 -17 -137h-796q-6 -45 -6 -99q0 -114 82.5 -181.5t191.5 -67.5q229 0 305 203h174q-39 -172 -171 -263.5t-286 -91.5q-153 0 -240 40t-159 127.5t-72 247.5
q0 161 44.5 287t119 216t174 139t207.5 49q449 0 449 -469zM766 1425h182l-43 -213h-182zM432 1425h182l-43 -213h-182z" />
    <glyph glyph-name="igrave" unicode="&#xec;" horiz-adv-x="454" 
d="M-8 0l219 1059h174l-221 -1059h-172zM500 1204h-138l-206 293h206z" />
    <glyph glyph-name="iacute" unicode="&#xed;" horiz-adv-x="454" 
d="M-8 0l219 1059h174l-221 -1059h-172zM471 1497h231l-278 -293h-143z" />
    <glyph glyph-name="icircumflex" unicode="&#xee;" horiz-adv-x="454" 
d="M-8 0l219 1059h174l-221 -1059h-172zM313 1497h176l154 -293h-151l-105 191l-178 -191h-168z" />
    <glyph glyph-name="idieresis" unicode="&#xef;" horiz-adv-x="454" 
d="M-8 0l219 1059h174l-221 -1059h-172zM473 1425h182l-43 -213h-182zM139 1425h183l-43 -213h-183z" />
    <glyph glyph-name="eth" unicode="&#xf0;" horiz-adv-x="1175" 
d="M614 883q-185 0 -295 -151t-110 -322q0 -123 73.5 -202t217.5 -79q177 0 288 157.5t111 325.5q0 117 -71 194t-214 77zM1083 733q0 -349 -157 -552.5t-445 -203.5q-204 0 -325 121t-121 310q0 259 162 443.5t430 184.5q164 0 264 -108h4q-26 87 -94.5 178t-128.5 133
l-234 -117l-86 82l232 115q-48 38 -121 86l131 92q96 -63 141 -102l215 108l90 -78l-221 -112q135 -130 199.5 -263.5t64.5 -316.5z" />
    <glyph glyph-name="ntilde" unicode="&#xf1;" 
d="M748 1083q276 0 276 -272q0 -79 -31 -207l-129 -604h-174l135 618q2 16 13.5 72t11.5 92q0 76 -54 112t-128 36t-144.5 -35t-120.5 -88q-77 -67 -116 -221l-123 -586h-172l221 1059h168l-33 -160h4q132 184 396 184zM389 1223q72 223 201 223q43 0 82 -16.5t78 -33.5
t71.5 -32.5t59.5 -11.5q47 0 66.5 24.5t37.5 59.5h105q-30 -99 -78 -161.5t-131 -62.5q-46 0 -121.5 35t-110.5 49.5t-57 10.5q-66 0 -96 -84h-107z" />
    <glyph glyph-name="ograve" unicode="&#xf2;" horiz-adv-x="1175" 
d="M209 420q0 -131 73.5 -211t217.5 -80q175 0 284 162t109 340q0 206 -103.5 252.5t-189.5 46.5t-162 -49.5t-152.5 -161t-76.5 -299.5zM35 434q0 112 40 233t162 268.5t390 147.5q215 0 327.5 -111.5t112.5 -326.5q0 -275 -159.5 -471.5t-426.5 -196.5
q-205 0 -325.5 122.5t-120.5 334.5zM809 1204h-137l-207 293h207z" />
    <glyph glyph-name="oacute" unicode="&#xf3;" horiz-adv-x="1175" 
d="M209 420q0 -131 73.5 -211t217.5 -80q175 0 284 162t109 340q0 206 -103.5 252.5t-189.5 46.5t-162 -49.5t-152.5 -161t-76.5 -299.5zM35 434q0 112 40 233t162 268.5t390 147.5q215 0 327.5 -111.5t112.5 -326.5q0 -275 -159.5 -471.5t-426.5 -196.5
q-205 0 -325.5 122.5t-120.5 334.5zM780 1497h232l-279 -293h-143z" />
    <glyph glyph-name="ocircumflex" unicode="&#xf4;" horiz-adv-x="1175" 
d="M209 420q0 -131 73.5 -211t217.5 -80q175 0 284 162t109 340q0 206 -103.5 252.5t-189.5 46.5t-162 -49.5t-152.5 -161t-76.5 -299.5zM35 434q0 112 40 233t162 268.5t390 147.5q215 0 327.5 -111.5t112.5 -326.5q0 -275 -159.5 -471.5t-426.5 -196.5
q-205 0 -325.5 122.5t-120.5 334.5zM643 1497h176l154 -293h-152l-104 191l-178 -191h-168z" />
    <glyph glyph-name="otilde" unicode="&#xf5;" horiz-adv-x="1175" 
d="M209 420q0 -131 73.5 -211t217.5 -80q175 0 284 162t109 340q0 206 -103.5 252.5t-189.5 46.5t-162 -49.5t-152.5 -161t-76.5 -299.5zM35 434q0 112 40 233t162 268.5t390 147.5q215 0 327.5 -111.5t112.5 -326.5q0 -275 -159.5 -471.5t-426.5 -196.5
q-205 0 -325.5 122.5t-120.5 334.5zM356 1223q72 223 201 223q43 0 82 -16.5t78 -33.5t71.5 -32.5t59.5 -11.5q47 0 66.5 24.5t37.5 59.5h105q-31 -101 -78 -162.5t-131 -61.5q-46 0 -121.5 35t-110 49.5t-57.5 10.5q-66 0 -96 -84h-107z" />
    <glyph glyph-name="odieresis" unicode="&#xf6;" horiz-adv-x="1175" 
d="M209 420q0 -131 73.5 -211t217.5 -80q175 0 284 162t109 340q0 206 -103.5 252.5t-189.5 46.5t-162 -49.5t-152.5 -161t-76.5 -299.5zM35 434q0 112 40 233t162 268.5t390 147.5q215 0 327.5 -111.5t112.5 -326.5q0 -275 -159.5 -471.5t-426.5 -196.5
q-205 0 -325.5 122.5t-120.5 334.5zM803 1425h182l-43 -213h-182zM469 1425h182l-43 -213h-182z" />
    <glyph glyph-name="divide" unicode="&#xf7;" horiz-adv-x="1228" 
d="M98 588h1032v-139h-1032v139zM483 940q0 53 39 92t92.5 39t92 -39t38.5 -90t-38.5 -92t-90.5 -41t-92.5 39t-40.5 92zM483 96.5q0 53.5 39 92t92.5 38.5t92 -38.5t38.5 -90.5t-38.5 -91.5t-90.5 -39.5t-92.5 38t-40.5 91.5z" />
    <glyph glyph-name="oslash" unicode="&#xf8;" horiz-adv-x="1175" 
d="M893 631q0 74 -23 135l-604 -545q79 -92 244 -92t274 162t109 340zM209 420q0 -80 20 -129h2l605 547q-79 92 -222 92q-184 0 -294.5 -161t-110.5 -349zM35 410q0 282 162 477.5t430 195.5q227 0 338 -129l143 129l51 -57l-149 -135q57 -95 57 -235q0 -285 -159.5 -482
t-426.5 -197q-227 0 -340 132l-151 -138l-49 56l155 143q-61 102 -61 240z" />
    <glyph glyph-name="ugrave" unicode="&#xf9;" 
d="M31 248q0 74 30 207l129 604h175l-136 -619q-24 -84 -24 -162t53 -113.5t129 -35.5q143 0 247 103t134 241l123 586h174l-223 -1059h-168l33 160h-5q-131 -183 -396 -183q-275 0 -275 271zM752 1204h-138l-206 293h206z" />
    <glyph glyph-name="uacute" unicode="&#xfa;" 
d="M31 248q0 74 30 207l129 604h175l-136 -619q-24 -84 -24 -162t53 -113.5t129 -35.5q143 0 247 103t134 241l123 586h174l-223 -1059h-168l33 160h-5q-131 -183 -396 -183q-275 0 -275 271zM702 1497h232l-279 -293h-143z" />
    <glyph glyph-name="ucircumflex" unicode="&#xfb;" 
d="M31 248q0 74 30 207l129 604h175l-136 -619q-24 -84 -24 -162t53 -113.5t129 -35.5q143 0 247 103t134 241l123 586h174l-223 -1059h-168l33 160h-5q-131 -183 -396 -183q-275 0 -275 271zM635 1497h176l154 -293h-152l-104 191l-179 -191h-168z" />
    <glyph glyph-name="udieresis" unicode="&#xfc;" 
d="M31 248q0 74 30 207l129 604h175l-136 -619q-24 -84 -24 -162t53 -113.5t129 -35.5q143 0 247 103t134 241l123 586h174l-223 -1059h-168l33 160h-5q-131 -183 -396 -183q-275 0 -275 271zM725 1425h182l-43 -213h-182zM391 1425h182l-43 -213h-182z" />
    <glyph glyph-name="yacute" unicode="&#xfd;" horiz-adv-x="985" 
d="M7 -289q54 0 91 32t68 83l106 174l-186 1059h186l123 -842h4l445 842h190l-700 -1237q-33 -51 -102.5 -150.5t-237.5 -99.5q-69 0 -121 27l31 141q49 -29 103 -29zM639 1497h231l-278 -293h-143z" />
    <glyph glyph-name="thorn" unicode="&#xfe;" horiz-adv-x="1214" 
d="M932 670q0 108 -64.5 184t-208.5 76q-98 0 -175.5 -51.5t-157.5 -169.5t-80 -306q0 -119 69 -196.5t185 -77.5t194 48t131.5 124t80 168.5t26.5 200.5zM688 1083q199 0 308.5 -117.5t109.5 -316.5q0 -256 -114.5 -404.5t-224.5 -208t-249 -59.5q-185 0 -250 66t-80 119
h-4l-112 -565h-170l389 1865h174l-129 -555h4q78 102 161 139t187 37z" />
    <glyph glyph-name="ydieresis" unicode="&#xff;" horiz-adv-x="985" 
d="M7 -289q54 0 91 32t68 83l106 174l-186 1059h186l123 -842h4l445 842h190l-700 -1237q-33 -51 -102.5 -150.5t-237.5 -99.5q-69 0 -121 27l31 141q49 -29 103 -29zM662 1425h182l-43 -213h-183zM328 1425h182l-43 -213h-182z" />
    <glyph glyph-name="Amacron" unicode="&#x100;" horiz-adv-x="1366" 
d="M449 604h503l-108 686h-4zM768 1462h213l264 -1462h-201l-67 440h-617l-256 -440h-215zM1040 1677l-22 -112h-553l24 112h551z" />
    <glyph glyph-name="amacron" unicode="&#x101;" horiz-adv-x="1062" 
d="M344 129q207 0 297 139q43 59 58 129t34 144h-4q-53 -38 -220 -56q-168 -17 -228 -41q-61 -24 -93 -62t-33 -109t57 -107t132 -37zM780 786q0 144 -213 144q-172 0 -250 -104q-27 -36 -34 -87h-174q23 168 150 256t308 88q271 0 356 -138q51 -83 20 -229q-11 -52 -21 -95
l-68 -289q-6 -33 -17 -74t-12 -78q0 -65 52 -65q12 0 27 5t28 9l-27 -129q-51 -21 -115 -22q-63 -1 -100 38t-28 109l-5 4q-113 -152 -321 -152q-102 -1 -159 15q-58 16 -101 52q-96 80 -94 230q0 207 178 282q78 34 172 46t173 20t129 14q105 15 131 71q15 31 15 79z
M905 1300l-22 -112h-553l24 112h551z" />
    <glyph glyph-name="Abreve" unicode="&#x102;" horiz-adv-x="1366" 
d="M449 604h503l-108 686h-4zM768 1462h213l264 -1462h-201l-67 440h-617l-256 -440h-215zM754 1677q96 0 151 40t84 132h92q-18 -137 -111 -211q-94 -74 -230 -74t-208 72t-67 213h92q2 -94 51 -133q50 -39 146 -39z" />
    <glyph glyph-name="abreve" unicode="&#x103;" horiz-adv-x="1062" 
d="M344 129q207 0 297 139q43 59 58 129t34 144h-4q-53 -38 -220 -56q-168 -17 -228 -41q-61 -24 -93 -62t-33 -109t57 -107t132 -37zM780 786q0 144 -213 144q-172 0 -250 -104q-27 -36 -34 -87h-174q23 168 150 256t308 88q271 0 356 -138q51 -83 20 -229q-11 -52 -21 -95
l-68 -289q-6 -33 -17 -74t-12 -78q0 -65 52 -65q12 0 27 5t28 9l-27 -129q-51 -21 -115 -22q-63 -1 -100 38t-28 109l-5 4q-113 -152 -321 -152q-102 -1 -159 15q-58 16 -101 52q-96 80 -94 230q0 207 178 282q78 34 172 46t173 20t129 14q105 15 131 71q15 31 15 79z
M618 1300q96 0 152 40q55 40 84 133h92q-18 -137 -111 -211t-229 -74t-209 72q-72 72 -67 213h92q2 -93 51 -133t145 -40z" />
    <glyph glyph-name="Aogonek" unicode="&#x104;" horiz-adv-x="1366" 
d="M952 604l-108 686h-4l-391 -686h503zM1245 -301q-103 -127 -231 -127q-102 0 -153.5 33t-51.5 112q0 134 250 283h-15l-67 440h-617l-256 -440h-215l879 1462h213l264 -1462h-51l-57 -38q-39 -26 -115 -92.5t-76 -119.5q0 -76 78 -76t145 50z" />
    <glyph glyph-name="aogonek" unicode="&#x105;" horiz-adv-x="1062" 
d="M344 129q207 0 297 139q43 59 58.5 129t33.5 144h-4q-54 -39 -221.5 -56.5t-227 -41t-92 -61.5t-33.5 -109t57 -107.5t132 -36.5zM657 129q-113 -152 -321 -152q-102 0 -159.5 15.5t-126 73t-68.5 191.5t50 199.5t128 99.5t172 46t173 20q168 16 221.5 42.5t53.5 114.5
t-63 119.5t-131 31.5q-129 0 -208.5 -48t-94.5 -143h-174q23 166 150.5 255t307.5 89q387 0 387 -270q0 -54 -32 -192l-68 -289q-6 -33 -17.5 -74t-11.5 -92t52 -51q12 0 26 4l29 10l-27 -129q-40 -16 -57 -16q-122 -82 -171.5 -142.5t-49.5 -91.5q0 -76 78 -76t145 50
l76 -25q-104 -127 -232 -127q-103 0 -154 33t-51 112q0 130 236 275q-76 30 -63 133z" />
    <glyph glyph-name="Cacute" unicode="&#x106;" horiz-adv-x="1478" 
d="M1192 1839l-279 -293h-143l191 293h231zM690 -33q-286 0 -449 167t-163 472q0 178 55 339t158.5 284t253 195.5t336.5 72.5q245 0 401 -130t156 -376h-195q0 172 -101.5 257t-257.5 85q-288 0 -450 -218.5t-162 -508.5q0 -218 109.5 -347.5t306.5 -129.5t309.5 95
t159.5 270h195q-55 -246 -215.5 -386.5t-446.5 -140.5z" />
    <glyph glyph-name="cacute" unicode="&#x107;" horiz-adv-x="1099" 
d="M924 1497l-279 -293h-143l190 293h232zM963 346q-96 -369 -499 -369q-202 0 -311.5 119t-109.5 336q0 268 156.5 459.5t429.5 191.5q180 0 285.5 -87t111.5 -273h-174q0 98 -59.5 152.5t-161.5 54.5q-190 0 -302 -153.5t-112 -354.5t94.5 -247t187.5 -46t173 59.5
t116 157.5h175z" />
    <glyph glyph-name="Ccircumflex" unicode="&#x108;" horiz-adv-x="1478" 
d="M78 606q0 178 55 339q115 336 412 479q150 73 336 73q244 0 400 -130q157 -130 157 -376h-195q0 172 -101 257t-258 85q-157 -1 -271 -65q-224 -127 -303 -399q-38 -129 -38 -249q0 -351 241 -456q81 -35 192 -35q181 0 293 95t159 270h195q-55 -246 -216 -386
q-160 -140 -446 -140t-449 166q-163 167 -163 472zM1118 1892l154 -293h-152l-104 191l-178 -191h-168l272 293h176z" />
    <glyph glyph-name="ccircumflex" unicode="&#x109;" horiz-adv-x="1099" 
d="M852 723q0 99 -59 153t-161 54q-192 0 -304 -154q-111 -154 -111 -355q0 -200 138 -267q49 -25 143 -25t174 59t116 158h175q-96 -368 -499 -368q-202 0 -312 118q-110 119 -109 336q0 269 158 460t428 191q180 0 285 -87t112 -273h-174zM852 1481l154 -293h-152
l-104 190l-179 -190h-168l273 293h176z" />
    <glyph glyph-name="Cdotaccent" unicode="&#x10a;" horiz-adv-x="1478" 
d="M78 606q0 178 55 339q115 336 412 479q150 73 336 73q244 0 400 -130q157 -130 157 -376h-195q0 172 -101 257t-258 85q-157 -1 -271 -65q-224 -127 -303 -399q-38 -129 -38 -249q0 -351 241 -456q81 -35 192 -35q181 0 293 95t159 270h195q-55 -246 -216 -386
q-160 -140 -446 -140t-449 166q-163 167 -163 472zM1075 1812l-43 -213h-182l43 213h182z" />
    <glyph glyph-name="cdotaccent" unicode="&#x10b;" horiz-adv-x="1099" 
d="M852 723q0 99 -59 153t-161 54q-192 0 -304 -154q-111 -154 -111 -355q0 -200 138 -267q49 -25 143 -25t174 59t116 158h175q-96 -368 -499 -368q-202 0 -312 118q-110 119 -109 336q0 269 158 460t428 191q180 0 285 -87t112 -273h-174zM809 1401l-43 -213h-182l43 213
h182z" />
    <glyph glyph-name="Ccaron" unicode="&#x10c;" horiz-adv-x="1478" 
d="M78 606q0 178 55 339q115 336 412 479q150 73 336 73q244 0 400 -130q157 -130 157 -376h-195q0 172 -101 257t-258 85q-157 -1 -271 -65q-224 -127 -303 -399q-38 -129 -38 -249q0 -351 241 -456q81 -35 192 -35q181 0 293 95t159 270h195q-55 -246 -216 -386
q-160 -140 -446 -140t-449 166q-163 167 -163 472zM823 1599l-157 293h155l105 -190l190 190h160l-277 -293h-176z" />
    <glyph glyph-name="ccaron" unicode="&#x10d;" horiz-adv-x="1099" 
d="M852 723q0 99 -59 153t-161 54q-192 0 -304 -154q-111 -154 -111 -355q0 -200 138 -267q49 -25 143 -25t174 59t116 158h175q-96 -368 -499 -368q-202 0 -312 118q-110 119 -109 336q0 269 158 460t428 191q180 0 285 -87t112 -273h-174zM557 1188l-158 293h156l104 -191
l191 191h160l-277 -293h-176z" />
    <glyph glyph-name="Dcaron" unicode="&#x10e;" horiz-adv-x="1441" 
d="M836 1462q272 0 412 -150t141 -409q0 -411 -226 -658q-220 -245 -588 -245h-561l310 1462h512zM1194 883q0 418 -403 415h-312l-239 -1134h338q295 0 463 226q153 201 153 493zM760 1565l-158 293h156l104 -191l191 191h159l-276 -293h-176z" />
    <glyph glyph-name="dcaron" unicode="&#x10f;" horiz-adv-x="1783" 
d="M209 410q0 -281 272 -281q98 0 176 51t130 129t80 171q28 94 28 194t-69 178t-185 78q-117 0 -195 -48q-155 -95 -210 -292q-27 -92 -27 -180zM454 -23q-199 0 -310 117t-109 316q0 256 154 456q75 96 185 156t249 61q181 0 278 -97q35 -36 51 -89h4l113 565h172
l-309 -1462h-164l37 152h-4q-78 -102 -161 -138t-186 -37zM1546 1462h228q-20 -86 -36 -176t-47 -165q-32 -75 -90 -127t-167 -60l20 98q101 15 137 134q10 34 21 69h-115z" />
    <glyph glyph-name="Dcroat" unicode="&#x110;" horiz-adv-x="1441" 
d="M836 1462q272 0 412 -150t141 -409q0 -411 -226 -658q-220 -245 -588 -245h-561l148 694h-135l28 140h135l134 628h512zM1194 883q0 418 -403 415h-312l-98 -464h410l-29 -140h-410l-112 -530h338q295 0 463 226q153 201 153 493z" />
    <glyph glyph-name="dcroat" unicode="&#x111;" horiz-adv-x="1214" 
d="M209 390q0 -108 64.5 -184.5t207.5 -76.5q98 0 176 51t130.5 129t80 171.5t27.5 193.5t-68.5 178t-184.5 78t-194.5 -48t-132 -124t-80 -168t-26.5 -200zM454 -23q-198 0 -308.5 116.5t-110.5 316.5q0 256 114.5 404.5t224 208.5t249.5 60q184 0 248.5 -66.5t80.5 -119.5
h4l60 301h-228l33 143h223l25 121h172l-27 -121h201l-33 -143h-198l-252 -1198h-164l37 152h-4q-78 -102 -161 -138.5t-186 -36.5z" />
    <glyph glyph-name="Emacron" unicode="&#x112;" horiz-adv-x="1251" 
d="M324 1462h1007l-33 -164h-813l-98 -464h758l-33 -164h-760l-106 -506h823l-37 -164h-1018zM1147 1677l-23 -112h-553l25 112h551z" />
    <glyph glyph-name="emacron" unicode="&#x113;" horiz-adv-x="1099" 
d="M588 930q-137 0 -238 -88q-86 -78 -125 -211h615q9 124 -53 212q-62 87 -199 87zM1014 614q0 -59 -17 -137h-796q-6 -45 -6 -99q0 -115 83 -182t191 -67q231 0 305 203h174q-40 -175 -174 -265q-129 -90 -282 -90q-154 0 -241 40q-227 104 -231 384q0 152 45 278
q89 254 292 355q99 49 208 49q449 0 449 -469zM954 1300l-22 -112h-553l24 112h551z" />
    <glyph glyph-name="Ebreve" unicode="&#x114;" horiz-adv-x="1251" 
d="M324 1462h1007l-33 -164h-813l-98 -464h758l-33 -164h-760l-106 -506h823l-37 -164h-1018zM860 1677q96 0 152 40q55 40 84 132h92q-18 -137 -112 -211t-229 -74q-136 0 -208 72t-68 213h93q2 -94 51 -133t145 -39z" />
    <glyph glyph-name="ebreve" unicode="&#x115;" horiz-adv-x="1099" 
d="M588 930q-137 0 -238 -88q-86 -78 -125 -211h615q9 124 -53 212q-62 87 -199 87zM1014 614q0 -59 -17 -137h-796q-6 -45 -6 -99q0 -115 83 -182t191 -67q231 0 305 203h174q-40 -175 -174 -265q-129 -90 -282 -90q-154 0 -241 40q-227 104 -231 384q0 152 45 278
q89 254 292 355q99 49 208 49q449 0 449 -469zM668 1300q96 0 151 40t84 133h92q-18 -137 -111 -211q-94 -74 -230 -74t-208 72t-67 213h92q2 -93 51 -133q50 -40 146 -40z" />
    <glyph glyph-name="Edotaccent" unicode="&#x116;" horiz-adv-x="1251" 
d="M324 1462h1007l-33 -164h-813l-98 -464h758l-33 -164h-760l-106 -506h823l-37 -164h-1018zM983 1778l-43 -213h-182l43 213h182z" />
    <glyph glyph-name="edotaccent" unicode="&#x117;" horiz-adv-x="1099" 
d="M588 930q-137 0 -238 -88q-86 -78 -125 -211h615q9 124 -53 212q-62 87 -199 87zM1014 614q0 -59 -17 -137h-796q-6 -45 -6 -99q0 -115 83 -182t191 -67q231 0 305 203h174q-40 -175 -174 -265q-129 -90 -282 -90q-154 0 -241 40q-227 104 -231 384q0 152 45 278
q89 254 292 355q99 49 208 49q449 0 449 -469zM791 1401l-43 -213h-183l43 213h183z" />
    <glyph glyph-name="Eogonek" unicode="&#x118;" horiz-adv-x="1251" 
d="M1071 -301q-103 -127 -231 -127q-102 0 -153.5 33t-51.5 112q0 134 250 283h-871l310 1462h1007l-33 -164h-813l-98 -464h758l-33 -164h-760l-106 -506h823l-39 -164q-62 -26 -160 -111.5t-98 -138.5q0 -76 78 -76t145 50z" />
    <glyph glyph-name="eogonek" unicode="&#x119;" horiz-adv-x="1099" 
d="M357 848.5q-90 -81.5 -132 -217.5h615q9 124 -52.5 211.5t-201.5 87.5q-139 0 -229 -81.5zM686 -301q-104 -127 -232 -127q-102 0 -153 33t-51 107t57.5 135.5t155.5 129.5q-236 4 -339.5 129.5t-103.5 285.5q0 161 44.5 287t119 216t174 139t207.5 49q449 0 449 -469
q0 -39 -17 -137h-796q-6 -45 -6 -99q0 -114 82.5 -181.5t191.5 -67.5q229 0 305 203h174q-39 -171 -174 -266q-61 -41 -135 -64q-138 -83 -195 -152t-57 -100q0 -76 78 -76t145 50z" />
    <glyph glyph-name="Ecaron" unicode="&#x11a;" horiz-adv-x="1251" 
d="M324 1462h1007l-33 -164h-813l-98 -464h758l-33 -164h-760l-106 -506h823l-37 -164h-1018zM731 1565l-158 293h156l105 -191l190 191h160l-277 -293h-176z" />
    <glyph glyph-name="ecaron" unicode="&#x11b;" horiz-adv-x="1099" 
d="M588 930q-137 0 -238 -88q-86 -78 -125 -211h615q9 124 -53 212q-62 87 -199 87zM1014 614q0 -59 -17 -137h-796q-6 -45 -6 -99q0 -115 83 -182t191 -67q231 0 305 203h174q-40 -175 -174 -265q-129 -90 -282 -90q-154 0 -241 40q-227 104 -231 384q0 152 45 278
q89 254 292 355q99 49 208 49q449 0 449 -469zM539 1188l-158 293h156l104 -191l190 191h160l-276 -293h-176z" />
    <glyph glyph-name="Gcircumflex" unicode="&#x11c;" horiz-adv-x="1554" 
d="M705 -33q-301 0 -464 167t-163 472q0 178 55 339q115 336 412 479q150 73 336 73q260 0 415 -118q172 -129 172 -371h-194q0 158 -111 241q-111 84 -273 84q-296 0 -466 -231q-152 -204 -152 -496q0 -338 241 -442q81 -35 195 -35q322 0 456 283q42 88 69 194h-467
l33 164h637l-160 -770h-123l-12 145q-86 -92 -202 -135t-234 -43zM1133 1892l153 -293h-151l-105 191l-178 -191h-168l272 293h177z" />
    <glyph glyph-name="gcircumflex" unicode="&#x11d;" horiz-adv-x="1175" 
d="M217 438q0 -200 145 -269q49 -24 131 -24q82 -1 155 49t120 126q96 155 94 333q0 125 -66 201q-67 76 -204 76q-92 0 -162 -51t-117 -126t-71 -162t-25 -153zM129 -100q13 -174 267 -174t334 269q24 77 44 155l-4 4q-106 -160 -315 -160t-310 120q-102 120 -102 316
q0 117 38 234q79 244 281 361q102 58 226 58t221 -59t121 -156v-4h4l33 195h163l-190 -905q-42 -191 -82 -287q-68 -159 -188 -227t-293 -68q-279 0 -382 177q-36 62 -38 151h172zM903 1481l154 -293h-152l-104 190l-178 -190h-168l272 293h176z" />
    <glyph glyph-name="Gbreve" unicode="&#x11e;" horiz-adv-x="1554" 
d="M705 -33q-301 0 -464 167t-163 472q0 178 55 339q115 336 412 479q150 73 336 73q260 0 415 -118q172 -129 172 -371h-194q0 158 -111 241q-111 84 -273 84q-296 0 -466 -231q-152 -204 -152 -496q0 -338 241 -442q81 -35 195 -35q322 0 456 283q42 88 69 194h-467
l33 164h637l-160 -770h-123l-12 145q-86 -92 -202 -135t-234 -43zM966 1712q96 0 152 40q55 40 84 132h92q-18 -137 -111 -211t-229 -74t-209 72q-72 72 -67 213h92q2 -94 51 -133t145 -39z" />
    <glyph glyph-name="gbreve" unicode="&#x11f;" horiz-adv-x="1175" 
d="M217 438q0 -200 145 -269q49 -24 131 -24q82 -1 155 49t120 126q96 155 94 333q0 125 -66 201q-67 76 -204 76q-92 0 -162 -51t-117 -126t-71 -162t-25 -153zM129 -100q13 -174 267 -174t334 269q24 77 44 155l-4 4q-106 -160 -315 -160t-310 120q-102 120 -102 316
q0 117 38 234q79 244 281 361q102 58 226 58t221 -59t121 -156v-4h4l33 195h163l-190 -905q-42 -191 -82 -287q-68 -159 -188 -227t-293 -68q-279 0 -382 177q-36 62 -38 151h172zM737 1300q96 0 152 40q55 40 84 133h92q-17 -137 -111 -211t-230 -74t-208 72t-67 213h92
q2 -93 51 -133t145 -40z" />
    <glyph glyph-name="Gdotaccent" unicode="&#x120;" horiz-adv-x="1554" 
d="M705 -33q-301 0 -464 167t-163 472q0 178 55 339q115 336 412 479q150 73 336 73q260 0 415 -118q172 -129 172 -371h-194q0 158 -111 241q-111 84 -273 84q-296 0 -466 -231q-152 -204 -152 -496q0 -338 241 -442q81 -35 195 -35q322 0 456 283q42 88 69 194h-467
l33 164h637l-160 -770h-123l-12 145q-86 -92 -202 -135t-234 -43zM1090 1812l-43 -213h-183l43 213h183z" />
    <glyph glyph-name="gdotaccent" unicode="&#x121;" horiz-adv-x="1175" 
d="M217 438q0 -200 145 -269q49 -24 131 -24q82 -1 155 49t120 126q96 155 94 333q0 125 -66 201q-67 76 -204 76q-92 0 -162 -51t-117 -126t-71 -162t-25 -153zM129 -100q13 -174 267 -174t334 269q24 77 44 155l-4 4q-106 -160 -315 -160t-310 120q-102 120 -102 316
q0 117 38 234q79 244 281 361q102 58 226 58t221 -59t121 -156v-4h4l33 195h163l-190 -905q-42 -191 -82 -287q-68 -159 -188 -227t-293 -68q-279 0 -382 177q-36 62 -38 151h172zM860 1401l-43 -213h-182l43 213h182z" />
    <glyph glyph-name="Gcommaaccent" unicode="&#x122;" horiz-adv-x="1554" 
d="M705 -33q-301 0 -464 167t-163 472q0 178 55 339q115 336 412 479q150 73 336 73q260 0 415 -118q172 -129 172 -371h-194q0 158 -111 241q-111 84 -273 84q-296 0 -466 -231q-152 -204 -152 -496q0 -338 241 -442q81 -35 195 -35q322 0 456 283q42 88 69 194h-467
l33 164h637l-160 -770h-123l-12 145q-86 -92 -202 -135t-234 -43zM496 -33h227q-19 -86 -35 -176t-48 -165t-90 -127t-167 -60l20 98q76 11 111 73q20 34 47 130h-115z" />
    <glyph glyph-name="gcommaaccent" unicode="&#x123;" horiz-adv-x="1175" 
d="M217 438q0 -200 145 -269q49 -24 131 -24q82 -1 155 49t120 126q96 155 94 333q0 125 -66 201q-67 76 -204 76q-92 0 -162 -51t-117 -126t-71 -162t-25 -153zM129 -100q13 -174 267 -174t334 269q24 77 44 155l-4 4q-106 -160 -315 -160t-310 120q-102 120 -102 316
q0 117 38 234q79 244 281 361q102 58 226 58t221 -59t121 -156v-4h4l33 195h163l-190 -905q-42 -191 -82 -287q-68 -159 -188 -227t-293 -68q-279 0 -382 177q-36 62 -38 151h172zM608 1186q20 86 36 176q33 201 138 291q59 51 166 61l-20 -98q-100 -15 -140 -134
q-10 -34 -18 -69h115l-49 -227h-228z" />
    <glyph glyph-name="Hcircumflex" unicode="&#x124;" horiz-adv-x="1478" 
d="M322 1462h196l-133 -628h766l131 628h195l-308 -1462h-194l141 670h-766l-141 -670h-195zM1098 1858l153 -293h-151l-105 190l-178 -190h-168l273 293h176z" />
    <glyph glyph-name="hcircumflex" unicode="&#x125;" 
d="M748 1083q276 0 276 -272q0 -79 -31 -207l-129 -604h-174l135 618q4 33 15 85q10 52 10 79q0 76 -53 112t-128 36t-146 -35t-120 -88q-78 -68 -116 -221l-123 -586h-172l307 1462h174l-125 -559l4 -4q132 184 396 184zM860 1858l154 -293h-152l-104 190l-178 -190h-168
l272 293h176z" />
    <glyph glyph-name="Hbar" unicode="&#x126;" horiz-adv-x="1478" 
d="M1151 834l47 227h-766l-47 -227h766zM518 1462l-55 -258h764l55 258h195l-308 -1462h-194l141 670h-766l-141 -670h-195l308 1462h196z" />
    <glyph glyph-name="hbar" unicode="&#x127;" 
d="M748 1083q276 0 276 -272q0 -79 -31 -207l-129 -604h-174l135 618q2 16 13.5 72t11.5 92q0 76 -54 112t-128 36t-144.5 -35t-120.5 -88q-77 -67 -116 -221l-123 -586h-172l252 1204h-183l33 144h180l25 114h174l-27 -114h242l-33 -144h-239l-68 -301l4 -4
q132 184 396 184z" />
    <glyph glyph-name="Itilde" unicode="&#x128;" horiz-adv-x="530" 
d="M322 1462h194l-307 -1462h-195zM606 1565q-51 1 -124 35q-72 34 -107 48t-58 11q-66 0 -96 -84h-106q32 99 62 140q63 85 140 83q53 0 158 -51q39 -15 72 -31t59 -12q47 0 67 25q19 25 38 59h104q-31 -101 -63 -142q-63 -81 -146 -81z" />
    <glyph glyph-name="itilde" unicode="&#x129;" horiz-adv-x="454" 
d="M-8 0l219 1059h174l-221 -1059h-172zM-4 1174q72 223 201 223q57 0 219 -77q45 -21 71 -17q47 0 67 24q19 25 38 59h104q-31 -102 -63 -142q-62 -79 -146 -81q-43 1 -119 35q-77 34 -112 48t-57 11q-68 0 -97 -83h-106z" />
    <glyph glyph-name="Imacron" unicode="&#x12a;" horiz-adv-x="530" 
d="M322 1462h194l-307 -1462h-195zM739 1677l-22 -112h-553l24 112h551z" />
    <glyph glyph-name="imacron" unicode="&#x12b;" horiz-adv-x="454" 
d="M-8 0l219 1059h174l-221 -1059h-172zM621 1276l-23 -113h-553l25 113h551z" />
    <glyph glyph-name="Ibreve" unicode="&#x12c;" horiz-adv-x="530" 
d="M322 1462h194l-307 -1462h-195zM454 1677q96 0 152 40q55 40 84 132h92q-18 -137 -111 -211t-229 -74t-209 72q-72 72 -67 213h92q2 -94 51 -133t145 -39z" />
    <glyph glyph-name="ibreve" unicode="&#x12d;" horiz-adv-x="454" 
d="M-8 0l219 1059h174l-221 -1059h-172zM340 1278q96 0 152 40q55 40 83 132h93q-18 -137 -112 -211t-229 -74q-136 0 -208 72t-68 213h92q1 -94 51 -133t146 -39z" />
    <glyph glyph-name="Iogonek" unicode="&#x12e;" horiz-adv-x="530" 
d="M322 1462h194l-307 -1460h-105q-2 -1 -3 -2h-87zM27 -430q-178 0 -181 145q0 67 69 142t186 143h108v2h33q-67 -33 -130 -88q-130 -113 -128 -166q0 -76 78 -76t145 49l76 -24q-59 -71 -117 -99t-139 -28z" />
    <glyph glyph-name="iogonek" unicode="&#x12f;" horiz-adv-x="454" 
d="M211 1059h174l-221 -1057h-94l-4 -2h-74zM426 1249h-176l45 213h176zM248 -303q-104 -127 -220 -127t-150 22q-66 43 -66 123q0 135 254 285h98v2h43q-67 -33 -130 -88q-128 -111 -128 -166q0 -76 78 -76t145 49z" />
    <glyph glyph-name="Idotaccent" unicode="&#x130;" horiz-adv-x="530" 
d="M322 1462h194l-307 -1462h-195zM393 1778h182l-43 -213h-182z" />
    <glyph glyph-name="dotlessi" unicode="&#x131;" horiz-adv-x="454" 
d="M-8 0l219 1059h174l-221 -1059h-172z" />
    <glyph glyph-name="IJ" unicode="&#x132;" horiz-adv-x="1593" 
d="M322 1462h194l-307 -1462h-195zM922 129q129 0 200 107q44 66 78 225l213 1001h193l-232 -1102q-43 -200 -145 -297q-102 -96 -311 -96q-283 0 -374 175q-30 58 -30 138t16 199h197q-16 -74 -20 -151q0 -199 215 -199z" />
    <glyph glyph-name="ij" unicode="&#x133;" horiz-adv-x="909" 
d="M211 1059h174l-221 -1059h-172zM426 1249h-176l45 213h176zM242 -238q48 -12 83 -12q59 0 89 105q10 39 22 94l230 1110h174l-267 -1256q-48 -206 -247 -206q-73 0 -115 12zM881 1249h-176l45 213h176z" />
    <glyph glyph-name="Jcircumflex" unicode="&#x134;" horiz-adv-x="1062" 
d="M391 129q130 0 201 107q44 66 78 225l213 1001h192l-231 -1102q-43 -200 -145 -297q-102 -96 -312 -96q-283 0 -374 175q-29 58 -29 138t16 199h197q-17 -80 -21 -151q0 -199 215 -199zM997 1858h177l153 -293h-151l-105 190l-178 -190h-168z" />
    <glyph glyph-name="jcircumflex" unicode="&#x135;" horiz-adv-x="454" 
d="M-140 -250q70 0 93 87q16 57 29 112l229 1110h174l-266 -1256q-48 -206 -248 -206q-72 0 -115 12l31 153q49 -12 73 -12zM254 1458h176l154 -293h-152l-104 191l-178 -191h-168z" />
    <glyph glyph-name="Kcommaaccent" unicode="&#x136;" horiz-adv-x="1366" 
d="M324 1462h194l-153 -721l4 -4l827 725h260l-704 -602l469 -860h-215l-400 741l-293 -247l-104 -494h-195zM692 0q-20 -86 -36 -176t-47 -165q-32 -75 -90 -127t-167 -60l21 98q75 11 110 73q20 34 47 130h-114l49 227h227z" />
    <glyph glyph-name="kcommaaccent" unicode="&#x137;" horiz-adv-x="985" 
d="M299 1462h172l-182 -860l4 -4l532 461h228l-461 -391l262 -668h-195l-206 563l-209 -186l-80 -377h-172zM479 0q-19 -86 -35 -176t-48 -165t-90 -127t-167 -60l21 98q75 11 110 73q20 34 47 130h-114l49 227h227z" />
    <glyph glyph-name="kgreenlandic" unicode="&#x138;" horiz-adv-x="985" 
d="M385 1059l-92 -461l532 461h228l-461 -391l262 -668h-195l-206 563l-209 -186l-80 -377h-172l221 1059h172z" />
    <glyph glyph-name="Lacute" unicode="&#x139;" 
d="M322 1462h194l-270 -1298h772l-35 -164h-969zM932 1858l-279 -293h-143l190 293h232z" />
    <glyph glyph-name="lacute" unicode="&#x13a;" horiz-adv-x="454" 
d="M297 1462h174l-307 -1462h-172zM647 1858l-278 -293h-144l191 293h231z" />
    <glyph glyph-name="Lcommaaccent" unicode="&#x13b;" 
d="M14 0h459q-19 -86 -35 -176t-48 -165t-90 -127t-167 -60l21 98q75 11 110 73q20 34 47 130h-114l49 227h737l35 164h-772l270 1298h-194z" />
    <glyph glyph-name="lcommaaccent" unicode="&#x13c;" horiz-adv-x="454" 
d="M-39 0h203l307 1462h-174l-305 -1462h196q-20 -86 -35 -176t-47 -165t-91 -127q-58 -52 -167 -60l21 98q101 15 137 134q10 34 21 69h-115z" />
    <glyph glyph-name="Lcaron" unicode="&#x13d;" 
d="M322 1462h194l-270 -1298h772l-35 -164h-969zM1137 1462q-19 -86 -35 -176t-48 -165t-90 -127t-167 -60l20 98q101 15 137 134q10 34 21 69h-115l49 227h228z" />
    <glyph glyph-name="lcaron" unicode="&#x13e;" horiz-adv-x="454" 
d="M297 1462h174l-307 -1462h-172zM872 1462q-20 -86 -35 -176q-33 -200 -138 -292q-58 -52 -167 -60l21 98q101 15 137 134q10 34 21 69h-115l49 227h227z" />
    <glyph glyph-name="Ldot" unicode="&#x13f;" 
d="M621 774q0 55 39.5 92t93.5 37t91.5 -38t37.5 -94t-38 -93t-92 -37t-93 39t-39 94zM516 1462l-270 -1298h772l-35 -164h-969l308 1462h194z" />
    <glyph glyph-name="ldot" unicode="&#x140;" horiz-adv-x="747" 
d="M489 750q0 55 39.5 92t93.5 37t92 -38t38 -94t-38 -93.5t-92 -37.5t-93.5 39.5t-39.5 94.5zM471 1462l-307 -1462h-172l305 1462h174z" />
    <glyph glyph-name="Lslash" unicode="&#x141;" 
d="M117 481l-158 -98l35 168l158 98l170 813h194l-141 -676l452 279l-34 -170l-453 -277l-94 -454h772l-35 -164h-969z" />
    <glyph glyph-name="lslash" unicode="&#x142;" horiz-adv-x="454" 
d="M471 1462l-109 -475l5 -4l135 107l-21 -160l-151 -117l-166 -813h-172l137 659l-141 -110l18 158l152 116l139 639h174z" />
    <glyph glyph-name="Nacute" unicode="&#x143;" horiz-adv-x="1478" 
d="M1217 1839l-279 -293h-143l190 293h232zM532 1462l523 -1210h4l244 1210h188l-309 -1462h-209l-518 1202h-4l-248 -1202h-189l310 1462h208z" />
    <glyph glyph-name="nacute" unicode="&#x144;" 
d="M965 1497l-279 -293h-143l190 293h232zM748 1083q276 0 276 -272q0 -79 -31 -207l-129 -604h-174l135 618q2 16 13.5 72t11.5 92q0 76 -54 112t-128 36t-144.5 -35t-120.5 -88q-77 -67 -116 -221l-123 -586h-172l221 1059h168l-33 -160h4q132 184 396 184z" />
    <glyph glyph-name="Ncommaaccent" unicode="&#x145;" horiz-adv-x="1478" 
d="M324 1462h208l523 -1210h4l244 1210h188l-309 -1462h-209l-518 1202h-4l-248 -1202h-189zM711 0q-19 -86 -35 -176t-48 -165t-90 -127t-167 -60l20 98q101 15 137 134q10 34 21 69h-115l49 227h228z" />
    <glyph glyph-name="ncedilla" unicode="&#x146;" 
d="M748 1083q276 0 276 -272q0 -79 -31 -207l-129 -604h-174l135 618q4 33 15 85q10 52 10 79q0 76 -53 112t-128 36t-146 -35t-120 -88q-78 -68 -116 -221l-123 -586h-172l221 1059h168l-33 -160h4q132 184 396 184zM506 0q-20 -86 -36 -176t-47 -165q-32 -75 -90 -127
t-167 -60l20 98q76 11 111 73q20 34 47 130h-115l50 227h227z" />
    <glyph glyph-name="Ncaron" unicode="&#x147;" horiz-adv-x="1478" 
d="M324 1462h208l523 -1210h4l244 1210h188l-309 -1462h-209l-518 1202h-4l-248 -1202h-189zM811 1565l-158 293h156l104 -191l191 191h160l-277 -293h-176z" />
    <glyph glyph-name="ncaron" unicode="&#x148;" 
d="M748 1083q276 0 276 -272q0 -79 -31 -207l-129 -604h-174l135 618q4 33 15 85q10 52 10 79q0 76 -53 112t-128 36t-146 -35t-120 -88q-78 -68 -116 -221l-123 -586h-172l221 1059h168l-33 -160h4q132 184 396 184zM528 1188l-157 293h155l105 -191l190 191h160l-276 -293
h-177z" />
    <glyph glyph-name="napostrophe" unicode="&#x149;" horiz-adv-x="1708" 
d="M332 1462h227q-19 -86 -35 -176t-48 -165t-90 -127t-167 -60l21 98q75 11 110 73q20 34 47 130h-114zM1318 1083q277 0 275 -272q0 -74 -30 -207l-129 -604h-174l135 618q2 16 13 76t11 88q0 76 -53 112t-128 36q-76 0 -146 -35t-119 -88q-79 -69 -117 -221l-123 -586
h-172l221 1059h168l-32 -160h4q132 184 396 184z" />
    <glyph glyph-name="Eng" unicode="&#x14a;" horiz-adv-x="1478" 
d="M948 -213.5q24 36.5 51 162.5l-26 51l-518 1202h-4l-248 -1202h-189l310 1462h208l523 -1210h4l244 1210h188l-309 -1462h-4l-41 -197q-48 -206 -248 -206q-72 0 -115 12l31 153q48 -12 84 -12q35 0 59 36.5z" />
    <glyph glyph-name="eng" unicode="&#x14b;" 
d="M352 899q132 184 396 184q276 0 276 -272q0 -79 -31 -207l-178 -801q-48 -206 -248 -206q-72 0 -114 12l30 153q49 -12 73 -12q47 0 71 37.5t51 161.5l147 669q2 16 13.5 72t11.5 92q0 76 -54 112t-128 36t-144.5 -35t-120.5 -88q-77 -67 -116 -221l-123 -586h-172
l221 1059h168l-33 -160h4z" />
    <glyph glyph-name="Omacron" unicode="&#x14c;" horiz-adv-x="1554" 
d="M78 606q0 178 55 339q115 336 412 479q149 73 313 73q302 0 468 -183q165 -183 165 -464q0 -172 -54 -332q-112 -333 -404 -478q-146 -73 -328 -73q-301 0 -464 167t-163 472zM272 620q0 -351 241 -456q81 -35 209 -35q128 -1 239 63q220 126 297 398q38 130 38 246
q0 346 -236 459q-77 38 -205 38t-242 -64q-224 -127 -303 -399q-38 -130 -38 -250zM1266 1712l-23 -113h-553l25 113h551z" />
    <glyph glyph-name="omacron" unicode="&#x14d;" horiz-adv-x="1175" 
d="M209 420q0 -131 74 -211t217 -80q177 0 292 173q50 75 75 163q26 87 26 157q0 215 -155 284q-52 24 -138 24t-162 -49q-148 -95 -204 -289q-25 -90 -25 -172zM35 434q0 112 40 234q83 250 303 360q110 55 249 55q215 1 327 -111t113 -327q0 -276 -160 -471t-426 -197
q-205 0 -327 124q-119 121 -119 333zM989 1300l-22 -112h-553l24 112h551z" />
    <glyph glyph-name="Obreve" unicode="&#x14e;" horiz-adv-x="1554" 
d="M78 606q0 178 55 339q115 336 412 479q149 73 313 73q302 0 468 -183q165 -183 165 -464q0 -172 -54 -332q-112 -333 -404 -478q-146 -73 -328 -73q-301 0 -464 167t-163 472zM272 620q0 -351 241 -456q81 -35 209 -35q128 -1 239 63q220 126 297 398q38 130 38 246
q0 346 -236 459q-77 38 -205 38t-242 -64q-224 -127 -303 -399q-38 -130 -38 -250zM979 1712q96 0 151 40t84 132h93q-17 -137 -111 -211t-230 -74t-208 72t-68 213h92q2 -94 52 -133t145 -39z" />
    <glyph glyph-name="obreve" unicode="&#x14f;" horiz-adv-x="1175" 
d="M209 420q0 -131 74 -211t217 -80q177 0 292 173q50 75 75 163q26 87 26 157q0 215 -155 284q-52 24 -138 24t-162 -49q-148 -95 -204 -289q-25 -90 -25 -172zM35 434q0 112 40 234q83 250 303 360q110 55 249 55q215 1 327 -111t113 -327q0 -276 -160 -471t-426 -197
q-205 0 -327 124q-119 121 -119 333zM702 1300q96 0 152 40q55 40 84 133h92q-18 -137 -111 -211t-229 -74t-209 72q-72 72 -67 213h92q2 -93 51 -133t145 -40z" />
    <glyph glyph-name="Ohungarumlaut" unicode="&#x150;" horiz-adv-x="1554" 
d="M78 606q0 178 55 339q115 336 412 479q149 73 313 73q302 0 468 -183q165 -183 165 -464q0 -172 -54 -332q-112 -333 -404 -478q-146 -73 -328 -73q-301 0 -464 167t-163 472zM272 620q0 -351 241 -456q81 -35 209 -35q128 -1 239 63q220 126 297 398q38 130 38 246
q0 346 -236 459q-77 38 -205 38t-242 -64q-224 -127 -303 -399q-38 -130 -38 -250zM1038 1892l-278 -293h-144l191 293h231zM1378 1892l-278 -293h-144l191 293h231z" />
    <glyph glyph-name="ohungarumlaut" unicode="&#x151;" horiz-adv-x="1175" 
d="M209 420q0 -131 74 -211t217 -80q177 0 292 173q50 75 75 163q26 87 26 157q0 215 -155 284q-52 24 -138 24t-162 -49q-148 -95 -204 -289q-25 -90 -25 -172zM35 434q0 112 40 234q83 250 303 360q110 55 249 55q215 1 327 -111t113 -327q0 -276 -160 -471t-426 -197
q-205 0 -327 124q-119 121 -119 333zM762 1481l-279 -293h-143l190 293h232zM1102 1481l-279 -293h-143l190 293h232z" />
    <glyph glyph-name="OE" unicode="&#x152;" horiz-adv-x="2199" 
d="M281 598q0 -195 102.5 -332t288.5 -137t277 89t113.5 157.5t39.5 150.5l115 568q15 86 -103.5 162.5t-252.5 76.5t-245.5 -65.5t-223 -223t-111.5 -446.5zM86 614q0 164 53.5 322t153.5 282.5t242.5 201.5t333.5 77t283.5 -72.5t125.5 -126.5l33 164h954l-33 -164h-776
l-98 -464h710l-32 -164h-711l-106 -506h786l-33 -164h-973l27 117h-4q-118 -150 -382 -150q-122 0 -229.5 50.5t-216 180.5t-108.5 416z" />
    <glyph glyph-name="oe" unicode="&#x153;" horiz-adv-x="1857" 
d="M967 369q0 -123 72.5 -181.5t186.5 -58.5t195.5 56.5t116.5 148.5h178q-59 -180 -192 -268.5t-320 -88.5q-125 0 -221 42t-145 165q-57 -100 -158.5 -153.5t-218.5 -53.5q-199 0 -312.5 99.5t-113.5 314.5q0 125 41 249t116.5 222.5t184.5 159.5t241 61t225 -42t138 -164
q57 106 164.5 156t224.5 50q207 0 308.5 -114.5t101.5 -304.5q0 -78 -23 -187h-776q-14 -58 -14 -108zM209 412q0 -129 68 -206t185 -77q204 0 298 185t94 393q0 111 -70 167t-172 56t-176 -52.5t-125 -131t-76.5 -172.5t-25.5 -162zM1606 700q0 90 -61 160t-189 70
t-223 -82t-125 -217h594q4 32 4 69z" />
    <glyph glyph-name="Racute" unicode="&#x154;" horiz-adv-x="1402" 
d="M887 1298h-404l-108 -510h438q201 0 295 106q63 71 66 183q0 221 -287 221zM887 1462q336 0 441 -192q40 -72 40 -163q0 -162 -92 -277t-238 -134v-4q131 -39 151 -211q8 -79 -7 -165q-14 -86 -18 -134q-10 -112 26 -182h-203q-36 107 4 313q42 254 -76 297
q-33 12 -65 15h-510l-131 -625h-195l310 1462h563zM1108 1858l-279 -293h-143l191 293h231z" />
    <glyph glyph-name="racute" unicode="&#x155;" horiz-adv-x="681" 
d="M707 899h-25q-65 0 -121 -14q-55 -13 -111 -59t-102 -114t-84 -243l-100 -469h-172l219 1059h164l-51 -228h4q61 109 156 181t229 71q16 0 30 2t31 -2l-41 -186q-8 2 -26 2zM762 1485l-279 -293h-143l190 293h232z" />
    <glyph glyph-name="Rcommaaccent" unicode="&#x156;" horiz-adv-x="1402" 
d="M887 1298h-404l-108 -510h438q201 0 295 106q63 71 66 183q0 221 -287 221zM887 1462q336 0 441 -192q40 -72 40 -163q0 -162 -92 -277t-238 -134v-4q131 -39 151 -211q8 -79 -7 -165q-14 -86 -18 -134q-10 -112 26 -182h-203q-36 107 4 313q42 254 -76 297
q-33 12 -65 15h-510l-131 -625h-195l310 1462h563zM649 0q-19 -86 -35 -176t-48 -165t-90 -127t-167 -60l21 98q75 11 110 73q20 34 47 130h-114l49 227h227z" />
    <glyph glyph-name="rcommaaccent" unicode="&#x157;" horiz-adv-x="681" 
d="M707 899h-25q-65 0 -121 -14q-55 -13 -111 -59t-102 -114t-84 -243l-100 -469h-172l219 1059h164l-51 -228h4q61 109 156 181t229 71q16 0 30 2t31 -2l-41 -186q-8 2 -26 2zM154 0h227q-19 -86 -35 -176t-48 -165t-90 -127t-167 -60l20 98q76 11 111 73q20 34 47 130
h-115z" />
    <glyph glyph-name="Rcaron" unicode="&#x158;" horiz-adv-x="1402" 
d="M887 1298h-404l-108 -510h438q201 0 295 106q63 71 66 183q0 221 -287 221zM887 1462q336 0 441 -192q40 -72 40 -163q0 -162 -92 -277t-238 -134v-4q131 -39 151 -211q8 -79 -7 -165q-14 -86 -18 -134q-10 -112 26 -182h-203q-36 107 4 313q42 254 -76 297
q-33 12 -65 15h-510l-131 -625h-195l310 1462h563zM750 1565l-158 293h156l104 -191l190 191h160l-276 -293h-176z" />
    <glyph glyph-name="rcaron" unicode="&#x159;" horiz-adv-x="681" 
d="M707 899h-25q-65 0 -121 -14q-55 -13 -111 -59t-102 -114t-84 -243l-100 -469h-172l219 1059h164l-51 -228h4q61 109 156 181t229 71q16 0 30 2t31 -2l-41 -186q-8 2 -26 2zM403 1192l-157 293h155l105 -191l190 191h160l-276 -293h-177z" />
    <glyph glyph-name="Sacute" unicode="&#x15a;" horiz-adv-x="1327" 
d="M1038 1839l-278 -293h-144l191 293h231zM225 479q-14 -350 379 -350q160 0 268.5 70.5t108.5 213.5t-103.5 183.5t-156.5 54.5l-199 54q-327 89 -327 368q0 196 158.5 310t381.5 114t377 -118t145 -349h-194q6 244 -127.5 273.5t-197.5 29.5q-139 0 -244 -61t-105 -178
q0 -143 94.5 -182.5t143.5 -53.5l196 -53q160 -42 256.5 -129t96.5 -266q0 -211 -174.5 -327t-395.5 -116q-431 0 -508.5 188.5t-66.5 323.5h194z" />
    <glyph glyph-name="sacute" unicode="&#x15b;" horiz-adv-x="985" 
d="M834 1497l-279 -293h-143l190 293h232zM508 930q-149 0 -187 -47t-38 -86t23.5 -65.5t63.5 -49.5t90 -42t102 -41q129 -55 204.5 -119.5t75.5 -164.5q0 -175 -128 -256.5t-304 -81.5q-305 0 -365.5 127t-60.5 230h172q-8 -108 70 -156.5t200 -48.5q161 0 201.5 58.5
t40.5 100.5t-25 69.5t-63.5 50t-89 41.5t-102.5 41q-134 56 -206.5 117.5t-72.5 170.5q0 144 119.5 224.5t330 80.5t276.5 -121.5t66 -213.5h-174q4 90 -61.5 136t-157.5 46z" />
    <glyph glyph-name="Scircumflex" unicode="&#x15c;" horiz-adv-x="1327" 
d="M225 479q-15 -350 379 -350q166 0 262 67q115 77 115 214q0 106 -77 162q-55 43 -183 79l-199 54q-330 90 -328 380q0 94 48 173q94 158 292 212q94 27 198 27q224 0 379 -117t146 -350h-194q4 161 -82 232q-85 71 -243 71q-222 0 -316 -129q-33 -45 -33 -104
q0 -150 145 -209q44 -18 93 -33l196 -53q157 -42 244 -118q109 -98 109 -277q0 -212 -187 -335q-164 -108 -383 -108q-432 0 -546 280q-40 97 -29 232h194zM1001 1892l154 -293h-151l-105 191l-178 -191h-168l272 293h176z" />
    <glyph glyph-name="scircumflex" unicode="&#x15d;" horiz-adv-x="985" 
d="M508 930q-152 0 -205 -69q-20 -27 -20 -65q0 -67 87 -114q40 -23 125 -55q260 -99 322 -216q25 -46 25 -121t-39 -137q-108 -172 -393 -176q-199 0 -314 83q-114 83 -112 274h172q-7 -107 69 -156q77 -49 220 -49t201 86q22 31 22 73t-37 83t-114 69q-77 29 -168 67
q-242 100 -240 271q0 140 117 223q117 82 276 82q268 0 364 -179q35 -65 35 -156h-174q4 90 -61 136q-66 46 -158 46zM760 1481l153 -293h-151l-105 190l-178 -190h-168l273 293h176z" />
    <glyph glyph-name="Scedilla" unicode="&#x15e;" horiz-adv-x="1327" 
d="M225 479q-15 -350 379 -350q166 0 262 67q115 77 115 214q0 106 -77 162q-55 43 -183 79l-199 54q-330 90 -328 380q0 94 48 173q94 158 292 212q94 27 198 27q224 0 379 -117t146 -350h-194q4 161 -82 232q-85 71 -243 71q-222 0 -316 -129q-33 -45 -33 -104
q0 -150 145 -209q44 -18 93 -33l196 -53q157 -42 244 -118q109 -98 109 -277q0 -212 -187 -335q-164 -108 -383 -108q-432 0 -546 280q-40 97 -29 232h194zM466 -156q125 0 169 -82q16 -28 16 -72q0 -85 -75 -130t-172 -45q-98 0 -195 45l37 88q34 -10 64 -20t71 -11
q41 0 79 10t38 51q0 64 -95 64q-54 0 -86 -16l-36 61l149 182h96l-118 -133h4q20 8 54 8z" />
    <glyph glyph-name="scedilla" unicode="&#x15f;" horiz-adv-x="985" 
d="M508 930q-152 0 -205 -69q-20 -27 -20 -65q0 -67 87 -114q40 -23 125 -55q260 -99 322 -216q25 -46 25 -121t-39 -137q-108 -172 -393 -176q-19 0 -38 1l1 2h-25q-367 26 -364 354h172q-7 -107 69 -156q77 -49 220 -49t201 86q22 31 22 73t-37 83t-114 69q-77 29 -168 67
q-242 100 -240 271q0 140 117 223q117 82 276 82q268 0 364 -179q35 -65 35 -156h-174q4 90 -61 136q-66 46 -158 46zM250 -475q-98 0 -195 45l37 88q33 -10 64 -20q71 -23 150 0q38 10 38 48q0 66 -94 66q-54 0 -86 -16l-37 61l149 183h72l24 -2l-118 -132h4q22 9 55 9
q123 0 168 -82q17 -29 17 -73q1 -84 -75 -130q-75 -45 -173 -45z" />
    <glyph glyph-name="Scaron" unicode="&#x160;" horiz-adv-x="1327" 
d="M225 479q-14 -350 379 -350q160 0 268.5 70.5t108.5 213.5t-103.5 183.5t-156.5 54.5l-199 54q-327 89 -327 368q0 196 158.5 310t381.5 114t377 -118t145 -349h-194q6 244 -127.5 273.5t-197.5 29.5q-139 0 -244 -61t-105 -178q0 -143 94.5 -182.5t143.5 -53.5l196 -53
q160 -42 256.5 -129t96.5 -266q0 -211 -174.5 -327t-395.5 -116q-431 0 -508.5 188.5t-66.5 323.5h194zM903 1546h-176l-158 293h156l104 -190l191 190h160z" />
    <glyph glyph-name="scaron" unicode="&#x161;" horiz-adv-x="985" 
d="M508 930q-149 0 -187 -47t-38 -86t23.5 -65.5t63.5 -49.5t90 -42t102 -41q129 -55 204.5 -119.5t75.5 -164.5q0 -175 -128 -256.5t-304 -81.5q-305 0 -365.5 127t-60.5 230h172q-8 -108 70 -156.5t200 -48.5q161 0 201.5 58.5t40.5 100.5t-25 69.5t-63.5 50t-89 41.5
t-102.5 41q-134 56 -206.5 117.5t-72.5 170.5q0 144 119.5 224.5t330 80.5t276.5 -121.5t66 -213.5h-174q4 90 -61.5 136t-157.5 46zM684 1204h-176l-158 293h156l104 -190l191 190h160z" />
    <glyph glyph-name="Tcedilla" unicode="&#x162;" horiz-adv-x="1175" 
d="M1300 1298h-491l-274 -1296h-7l-1 -2h-187l274 1298h-491l35 164h1179zM510 -131q20 8 77 8t104 -35q57 -40 58 -101q2 -100 -72 -146q-73 -45 -173 -47q-100 -1 -197 44l37 89q33 -11 64 -21q32 -10 72 -10t78 10t38 51q0 61 -94 64q-55 0 -86 -17l-37 62l148 180h8v2
h90l-119 -133h4z" />
    <glyph glyph-name="tcedilla" unicode="&#x163;" horiz-adv-x="645" 
d="M283 213q0 -69 104 -72q49 0 100 19l-30 -160q-78 -10 -157 -10t-122 26q-82 49 -82 130q-1 39 10 102l140 657h-178l32 154h179l65 313h174l-65 -313h211l-33 -154h-211l-131 -622q-2 -19 -4 -35t-2 -35zM393 -288q0 -86 -75 -130q-75 -45 -172 -45q-98 0 -195 45l37 88
q34 -10 64 -20t71 -10t79 10t38 48q0 66 -95 66q-54 0 -86 -16l-36 62l149 182h96l-118 -133h4q20 8 54 8q124 0 169 -82q16 -29 16 -73z" />
    <glyph glyph-name="Tcaron" unicode="&#x164;" horiz-adv-x="1175" 
d="M1300 1298h-491l-274 -1298h-195l274 1298h-491l35 164h1179zM788 1565l-157 293h155l105 -191l190 191h160l-276 -293h-177z" />
    <glyph glyph-name="tcaron" unicode="&#x165;" horiz-adv-x="1214" 
d="M283 213q0 -69 104 -72q49 0 100 19l-30 -160q-78 -10 -157 -10t-122 26q-82 49 -82 130q-1 39 10 102l140 657h-178l32 154h179l65 313h174l-65 -313h211l-33 -154h-211l-131 -622q-2 -19 -4 -35t-2 -35zM977 1462h227q-20 -86 -36 -176t-47 -165q-32 -75 -90 -127
t-167 -60l21 98q75 11 110 73q20 34 47 130h-114z" />
    <glyph glyph-name="Tbar" unicode="&#x166;" horiz-adv-x="1175" 
d="M551 999l63 299h-491l35 164h1179l-37 -164h-491l-64 -299h265l-33 -163h-266l-176 -836h-195l176 836h-256l33 163h258z" />
    <glyph glyph-name="tbar" unicode="&#x167;" horiz-adv-x="645" 
d="M334 -10q-238 0 -238 170q0 26 10 88l76 356h-196l32 156h197l31 145h-178l32 154h179l65 313h174l-65 -313h211l-33 -154h-211l-31 -145h223l-32 -156h-224l-67 -321q-2 -18 -4 -35t-2 -35q0 -72 104 -72q43 0 100 19l-30 -160q-77 -10 -123 -10z" />
    <glyph glyph-name="Utilde" unicode="&#x168;" horiz-adv-x="1478" 
d="M668 129q218 0 318 126q48 60 76 144t50 187l184 876h195l-182 -876q-45 -216 -78 -293q-69 -163 -216 -244q-147 -80 -349 -82q-326 0 -460 163t-71 472l182 860h195l-193 -909q-96 -424 349 -424zM633 1575q93 287 282 207q77 -32 130 -57t79 -21q47 0 67 25
q19 25 38 59h104q-32 -103 -63 -143q-62 -80 -146 -80q-49 1 -122 35q-74 34 -109 48t-57 11q-67 0 -97 -84h-106z" />
    <glyph glyph-name="utilde" unicode="&#x169;" 
d="M205 276q0 -76 53 -112t129 -35q138 0 250 105q101 99 131 239l123 586h174l-223 -1059h-168l33 160h-5q-130 -180 -396 -182q-277 -1 -275 270q0 74 30 207l129 604h175l-136 -619q-4 -14 -14 -72t-10 -92zM358 1174q72 223 201 223q58 0 224 -79q41 -19 67 -15
q47 1 66 25t38 58h105q-31 -100 -63 -141q-63 -80 -146 -82q-44 1 -120 35q-77 34 -112 48t-57 11q-67 0 -96 -83h-107z" />
    <glyph glyph-name="Umacron" unicode="&#x16a;" horiz-adv-x="1478" 
d="M668 129q218 0 318 126q48 60 76 144t50 187l184 876h195l-182 -876q-45 -216 -78 -293q-69 -163 -216 -244q-147 -80 -349 -82q-326 0 -460 163t-71 472l182 860h195l-193 -909q-96 -424 349 -424zM1257 1677l-22 -112h-553l25 112h550z" />
    <glyph glyph-name="umacron" unicode="&#x16b;" 
d="M205 276q0 -76 53 -112t129 -35q138 0 250 105q101 99 131 239l123 586h174l-223 -1059h-168l33 160h-5q-130 -180 -396 -182q-277 -1 -275 270q0 74 30 207l129 604h175l-136 -619q-4 -14 -14 -72t-10 -92zM983 1276l-22 -113h-553l24 113h551z" />
    <glyph glyph-name="Ubreve" unicode="&#x16c;" horiz-adv-x="1478" 
d="M668 129q218 0 318 126q48 60 76 144t50 187l184 876h195l-182 -876q-45 -216 -78 -293q-69 -163 -216 -244q-147 -80 -349 -82q-326 0 -460 163t-71 472l182 860h195l-193 -909q-96 -424 349 -424zM970 1677q96 0 152 40q55 40 84 132h92q-18 -137 -111 -211t-229 -74
t-208 72t-68 213h92q2 -94 51 -133t145 -39z" />
    <glyph glyph-name="ubreve" unicode="&#x16d;" 
d="M205 276q0 -76 53 -112t129 -35q138 0 250 105q101 99 131 239l123 586h174l-223 -1059h-168l33 160h-5q-130 -180 -396 -182q-277 -1 -275 270q0 74 30 207l129 604h175l-136 -619q-4 -14 -14 -72t-10 -92zM696 1276q96 0 152 40q55 40 84 132h92q-18 -137 -112 -211
t-229 -74q-136 0 -208 72t-67 213h92q2 -94 51 -133t145 -39z" />
    <glyph glyph-name="Uring" unicode="&#x16e;" horiz-adv-x="1478" 
d="M668 129q218 0 318 126q48 60 76 144t50 187l184 876h195l-182 -876q-45 -216 -78 -293q-69 -163 -216 -244q-147 -80 -349 -82q-326 0 -460 163t-71 472l182 860h195l-193 -909q-96 -424 349 -424zM868 1796q0 -59 40 -99t100 -40t99 40q40 40 40 99t-40 99t-99 40
q-60 0 -100 -40t-40 -99zM776 1796q0 94 68 162t164 69t163 -68q68 -69 68 -164q-1 -95 -69 -163q-68 -67 -162 -67q-94 1 -164 69q-68 68 -68 162z" />
    <glyph glyph-name="uring" unicode="&#x16f;" 
d="M205 276q0 -76 53 -112t129 -35q138 0 250 105q101 99 131 239l123 586h174l-223 -1059h-168l33 160h-5q-130 -180 -396 -182q-277 -1 -275 270q0 74 30 207l129 604h175l-136 -619q-4 -14 -14 -72t-10 -92zM592 1393q0 -59 40 -99t99 -41q59 0 99 40q40 39 40 99
t-40 100t-99 40t-99 -40t-40 -99zM500 1394q0 96 68 163t164 67q95 0 162 -68t68 -162q1 -95 -67 -163t-163 -69q-96 0 -164 68t-68 164z" />
    <glyph glyph-name="Uhungarumlaut" unicode="&#x170;" horiz-adv-x="1478" 
d="M668 129q218 0 318 126q48 60 76 144t50 187l184 876h195l-182 -876q-45 -216 -78 -293q-69 -163 -216 -244q-147 -80 -349 -82q-326 0 -460 163t-71 472l182 860h195l-193 -909q-96 -424 349 -424zM1030 1858l-278 -293h-144l191 293h231zM1370 1858l-278 -293h-144
l191 293h231z" />
    <glyph glyph-name="uhungarumlaut" unicode="&#x171;" 
d="M205 276q0 -76 53 -112t129 -35q138 0 250 105q101 99 131 239l123 586h174l-223 -1059h-168l33 160h-5q-130 -180 -396 -182q-277 -1 -275 270q0 74 30 207l129 604h175l-136 -619q-4 -14 -14 -72t-10 -92zM756 1456l-279 -293h-143l190 293h232zM1096 1456l-279 -293
h-143l190 293h232z" />
    <glyph glyph-name="Uogonek" unicode="&#x172;" horiz-adv-x="1478" 
d="M668 129q218 0 318 126q48 60 76 144t50 187l184 876h195l-182 -876q-45 -216 -78 -293q-33 -79 -91 -143q-143 -159 -414 -181h-110l-1 -1q-287 12 -415 168t-65 466l182 860h195l-193 -909q-96 -424 349 -424zM539 -463q-178 0 -181 146q0 66 70 141t187 144
q25 -1 53 -1t58 2h28q-67 -33 -130 -88q-130 -113 -128 -166q0 -75 79 -75t144 49l76 -25q-59 -72 -117 -100t-139 -27z" />
    <glyph glyph-name="uogonek" unicode="&#x173;" 
d="M205 276q0 -76 53 -112t129 -35q138 0 250 105q101 99 131 239l123 586h174l-223 -1059h-168l33 160h-5q-130 -180 -396 -182q-277 -1 -275 270q0 74 30 207l129 604h175l-136 -619q-4 -14 -14 -72t-10 -92zM170 -307q0 130 258 287h137q-67 -33 -129 -89
q-129 -114 -129 -165q0 -76 80 -76t143 49l76 -25q-60 -72 -118 -100t-138 -27q-180 0 -180 146z" />
    <glyph glyph-name="Wcircumflex" unicode="&#x174;" horiz-adv-x="1896" 
d="M1341 0h-202l-92 1262h-5l-577 -1262h-209l-92 1462h192l52 -1231h4l561 1231h221l82 -1235h4l532 1235h201zM1442 1858l153 -293h-151l-105 190l-178 -190h-168l273 293h176z" />
    <glyph glyph-name="wcircumflex" unicode="&#x175;" horiz-adv-x="1554" 
d="M1014 0h-185l-53 823h-4l-379 -823h-184l-125 1059h184l66 -842h4l381 842h196l52 -842h4l401 842h189zM1135 1456l153 -293h-151l-105 191l-178 -191h-168l272 293h177z" />
    <glyph glyph-name="Ycircumflex" unicode="&#x176;" horiz-adv-x="1251" 
d="M520 588l-385 874h207l299 -708l555 708h225l-708 -874l-127 -588h-191zM1130 1858l154 -293h-151l-105 190l-178 -190h-168l272 293h176z" />
    <glyph glyph-name="ycircumflex" unicode="&#x177;" horiz-adv-x="985" 
d="M7 -289q54 0 91 32t68 83l106 174l-186 1059h186l123 -842h4l445 842h190l-700 -1237q-84 -129 -130 -170q-90 -80 -210 -80q-71 0 -121 27l31 141q49 -29 103 -29zM811 1456l154 -293h-152l-104 191l-179 -191h-168l273 293h176z" />
    <glyph glyph-name="Ydieresis" unicode="&#x178;" horiz-adv-x="1251" 
d="M520 588l-385 874h207l299 -708l555 708h225l-708 -874l-127 -588h-191zM893 1767h182l-43 -213h-182zM559 1767h182l-43 -213h-182z" />
    <glyph glyph-name="Zacute" unicode="&#x179;" horiz-adv-x="1251" 
d="M1061 1839l-279 -293h-143l190 293h232zM1055 1298h-838l41 164h1067l-35 -166l-1106 -1132h934l-35 -164h-1159l35 162z" />
    <glyph glyph-name="zacute" unicode="&#x17a;" horiz-adv-x="909" 
d="M809 1497l-279 -293h-143l191 293h231zM653 905h-569l31 154h805l-27 -125l-743 -780h632l-28 -154h-860l24 131z" />
    <glyph glyph-name="Zdotaccent" unicode="&#x17b;" horiz-adv-x="1251" 
d="M901 1767l-43 -213h-182l43 213h182zM1055 1298h-838l41 164h1067l-35 -166l-1106 -1132h934l-35 -164h-1159l35 162z" />
    <glyph glyph-name="zdotaccent" unicode="&#x17c;" horiz-adv-x="909" 
d="M649 1425l-43 -213h-182l43 213h182zM653 905h-569l31 154h805l-27 -125l-743 -780h632l-28 -154h-860l24 131z" />
    <glyph glyph-name="Zcaron" unicode="&#x17d;" horiz-adv-x="1251" 
d="M-41 162l1096 1136h-838l41 164h1067l-35 -166l-1106 -1132h934l-35 -164h-1159zM866 1546h-176l-158 293h156l105 -190l190 190h160z" />
    <glyph glyph-name="zcaron" unicode="&#x17e;" horiz-adv-x="909" 
d="M-82 131l735 774h-569l31 154h805l-27 -125l-743 -780h632l-28 -154h-860zM645 1204h-176l-158 293h156l104 -190l191 190h160z" />
    <glyph glyph-name="longs" unicode="&#x17f;" horiz-adv-x="606" 
d="M632 1325q-44 0 -79 -23.5t-54.5 -61.5t-28.5 -85t-249 -1155h-174l197 905h-181l31 154h180q20 80 38 155.5t70.5 170t233.5 94.5q92 0 146 -17l-29 -147q-57 10 -101 10z" />
    <glyph glyph-name="uni0186" unicode="&#x186;" horiz-adv-x="1478" 
d="M826 1497q286 0 449 -167t163 -472q0 -178 -55.5 -339t-159 -283.5t-253 -195.5t-335.5 -73q-246 0 -401.5 130.5t-155.5 375.5h194q0 -172 101.5 -257t258.5 -85q289 0 450 218.5t161 508.5q0 339 -160.5 408t-271.5 69q-180 0 -292.5 -95t-160.5 -269h-194
q55 246 215.5 386t446.5 140z" />
    <glyph glyph-name="uni0189" unicode="&#x189;" horiz-adv-x="1441" 
d="M836 1462q272 0 412 -150t141 -409q0 -411 -226 -658q-220 -245 -588 -245h-561l148 694h-135l28 140h135l134 628h512zM1194 883q0 418 -403 415h-312l-98 -464h410l-29 -140h-410l-112 -530h338q295 0 463 226q153 201 153 493z" />
    <glyph glyph-name="uni018F" unicode="&#x18f;" horiz-adv-x="1509" 
d="M78 606q0 136 14 205h1158q1 25 1 90t-26.5 153.5t-109 185.5t-296.5 97q-162 0 -281.5 -76.5t-185.5 -207.5h-198q120 317 329 381.5t336 64.5q303 0 465 -166t162 -473q0 -371 -152.5 -558t-299 -260t-332.5 -73q-274 0 -429 165t-155 472zM266 649q0 -246 109 -381
t275 -135t330 96t237 368l12 52h-963z" />
    <glyph glyph-name="florin" unicode="&#x192;" 
d="M928 1309q-94 0 -129 -43.5t-70 -167.5l-49 -178h227l-37 -140h-227l-242 -848q-35 -135 -109.5 -201.5t-215.5 -66.5q-41 0 -113 10l41 152q44 -11 78 -8q74 10 107.5 59t50.5 113l225 790h-195l37 140h195l94 335q33 117 118 162t201 45q46 0 134 -16l-41 -150
q-29 13 -80 13z" />
    <glyph glyph-name="Ohorn" unicode="&#x1a0;" horiz-adv-x="1554" 
d="M272 620q0 -232 109.5 -361.5t323.5 -129.5q145 0 255.5 63.5t223 217.5t112.5 440q0 214 -110.5 348.5t-304.5 134.5q-285 0 -409 -167t-162 -296.5t-38 -249.5zM1491 850q0 -172 -54.5 -332t-155.5 -282.5t-247.5 -195.5t-328.5 -73q-301 0 -464 167t-163 472
q0 178 55 339t158.5 284t253 195.5t313.5 72.5t353 -83.5t257 -379.5q77 20 98 90t31 105h-114l49 227h227q-20 -84 -53.5 -278.5t-220.5 -237.5q6 -45 6 -90z" />
    <glyph glyph-name="ohorn" unicode="&#x1a1;" horiz-adv-x="1175" 
d="M209 420q0 -131 73.5 -211t217.5 -80q175 0 284 162t109 340q0 206 -103.5 252.5t-189.5 46.5t-162 -49.5t-152.5 -161t-76.5 -299.5zM499 -23q-223 0 -343.5 122.5t-120.5 318.5q0 273 162 469t430 196q215 0 327.5 -111.5t112.5 -326.5v-18q88 16 110.5 90t32.5 108
h-114l49 228h227q-20 -84 -45 -228.5t-129 -238.5q-51 -45 -139 -58q-30 -205 -125.5 -322.5t-204 -173t-230.5 -55.5z" />
    <glyph glyph-name="uni01A2" unicode="&#x1a2;" horiz-adv-x="1658" 
d="M705 129q82 0 124 14l246 1145q-53 23 -114.5 34t-79.5 11q-285 0 -409 -167t-162 -298.5t-38 -249.5q0 -231 109.5 -360t323.5 -129zM850 1497q158 0 254 -35h551l-395 -1865h-195l360 1701h-153l-262 -1269q-130 -62 -305 -62q-303 0 -465 166t-162 473q0 178 55 339
t158.5 284t252 195.5t306.5 72.5z" />
    <glyph glyph-name="uni01A3" unicode="&#x1a3;" horiz-adv-x="1333" 
d="M500 129q53 0 106 18l158 746q-16 12 -58 24.5t-92 12.5q-184 0 -294.5 -161t-110.5 -349q0 -131 74 -211t217 -80zM612 1083q125 0 195 -24h475l-309 -1462h-174l276 1308h-135l-180 -856q-132 -72 -258 -72q-226 0 -346.5 122.5t-120.5 318.5q0 273 116.5 414t226 196
t234.5 55z" />
    <glyph glyph-name="Uhorn" unicode="&#x1af;" horiz-adv-x="1613" 
d="M360.5 233.5q90.5 -104.5 307.5 -104.5t291.5 93t102.5 177t50 187l184 876h195l-90 -430q203 6 229.5 25.5t44 49t45.5 128.5h-114l49 227h227q-20 -86 -44.5 -229.5t-129.5 -239.5q-55 -49 -328 -59l-71 -348q-44 -208 -77 -290q-68 -165 -217.5 -247t-348.5 -82
q-326 0 -460 163t-71 472l182 860h195l-193 -909q-49 -215 41.5 -319.5z" />
    <glyph glyph-name="uhorn" unicode="&#x1b0;" horiz-adv-x="1230" 
d="M31 248q0 74 30 207l129 604h175l-136 -619q-24 -84 -24 -162t53 -113.5t129 -35.5q143 0 247 103t134 241l123 586h174l-94 -447q178 24 204 42t42 46.5t26 62.5t21 68h-115l49 228h227q-20 -86 -45 -231.5t-128 -236.5q-55 -49 -302 -78l-108 -513h-168l33 160h-5
q-131 -183 -396 -183q-275 0 -275 271z" />
    <glyph glyph-name="uni01B1" unicode="&#x1b1;" horiz-adv-x="1540" 
d="M1325 750q0 -154 -60.5 -291t-165 -238.5t-242 -161t-275.5 -59.5q-266 0 -431 150.5t-165 397.5t138.5 426.5t375.5 219.5l28 129h-393l33 154h537l-82 -394q-204 -33 -325.5 -178.5t-121.5 -339.5t108.5 -300.5t290.5 -106.5q119 0 221.5 48t177.5 129t117 188t42 195
q0 162 -69.5 256t-195.5 109l82 394h520l-32 -154h-371l-31 -139q210 -67 249.5 -214t39.5 -220z" />
    <glyph glyph-name="uni01B5" unicode="&#x1b5;" horiz-adv-x="1251" 
d="M1128 819l-32 -164h-432l-480 -491h934l-35 -164h-1159l35 162l475 493h-260l33 164h385l463 479h-838l41 164h1067l-35 -166l-467 -477h305z" />
    <glyph glyph-name="uni01B6" unicode="&#x1b6;" horiz-adv-x="909" 
d="M846 629l-33 -144h-348l-315 -331h632l-28 -154h-860l24 131l336 354h-219l33 144h323l262 276h-569l31 154h805l-27 -125l-291 -305h244z" />
    <glyph glyph-name="clickdental" unicode="&#x1c0;" horiz-adv-x="454" 
d="M158 1610h139v-2046h-139v2046z" />
    <glyph glyph-name="clicklateral" unicode="&#x1c1;" horiz-adv-x="909" 
d="M158 1610h139v-2046h-139v2046zM612 1610h140v-2046h-140v2046z" />
    <glyph glyph-name="clickretroflex" unicode="&#x1c3;" horiz-adv-x="530" 
d="M49 227h227l-49 -227h-227zM420 1006l-184 -631h-95l88 631l97 456h190z" />
    <glyph glyph-name="DZcaron" unicode="&#x1c4;" horiz-adv-x="2693" 
d="M836 1462q272 0 412 -150t141 -409q0 -411 -226 -658q-220 -245 -588 -245h-561l310 1462h512zM1194 883q0 418 -403 415h-312l-239 -1134h338q295 0 463 226q153 201 153 493zM1401 162l1096 1136h-838l41 164h1067l-35 -166l-1106 -1132h934l-35 -164h-1159zM2302 1565
h-176l-158 293h156l104 -191l191 191h159z" />
    <glyph glyph-name="Dzcaron" unicode="&#x1c5;" horiz-adv-x="2351" 
d="M836 1462q272 0 412 -150t141 -409q0 -411 -226 -658q-220 -245 -588 -245h-561l310 1462h512zM1194 883q0 418 -403 415h-312l-239 -1134h338q295 0 463 226q153 201 153 493zM1360 131l735 774h-569l30 154h805l-26 -125l-744 -780h633l-29 -154h-860zM2044 1165h-176
l-158 293h156l104 -190l191 190h159z" />
    <glyph glyph-name="dzcaron" unicode="&#x1c6;" horiz-adv-x="2123" 
d="M209 410q0 -281 272 -281q98 0 176 51t130 129t80 171q28 94 28 194t-69 178t-185 78q-117 0 -195 -48q-155 -95 -210 -292q-27 -92 -27 -180zM454 -23q-199 0 -310 117t-109 316q0 256 154 456q75 96 185 156t249 61q181 0 278 -97q35 -36 51 -89h4l113 565h172
l-309 -1462h-164l37 152h-4q-78 -102 -161 -138t-186 -37zM1133 131l735 774h-570l31 154h805l-27 -125l-743 -780h633l-29 -154h-860zM1817 1165h-177l-157 293h155l105 -190l190 190h160z" />
    <glyph glyph-name="LJ" unicode="&#x1c7;" horiz-adv-x="2201" 
d="M322 1462h194l-270 -1298h772l-35 -164h-969zM1530 129q130 0 201 107q46 70 77 225l213 1001h193l-232 -1102q-43 -200 -145 -297q-102 -96 -311 -96q-283 0 -374 175q-30 58 -30 142t17 195h196q-16 -74 -20 -151q0 -199 215 -199z" />
    <glyph glyph-name="Lj" unicode="&#x1c8;" horiz-adv-x="1593" 
d="M322 1462h194l-270 -1298h772l-35 -164h-969zM926 -238q48 -12 83 -12q59 0 89 105q10 39 22 94l230 1110h174l-267 -1256q-48 -206 -247 -206q-73 0 -115 12zM1565 1249h-176l45 213h176z" />
    <glyph glyph-name="lj" unicode="&#x1c9;" horiz-adv-x="909" 
d="M297 1462h174l-307 -1462h-172zM242 -238q48 -12 83 -12q59 0 89 105q10 39 22 94l230 1110h174l-267 -1256q-48 -206 -247 -206q-73 0 -115 12zM881 1249h-176l45 213h176z" />
    <glyph glyph-name="NJ" unicode="&#x1ca;" horiz-adv-x="2541" 
d="M324 1462h208l523 -1210h4l244 1210h188l-309 -1462h-209l-518 1202h-4l-248 -1202h-189zM1870 129q130 0 201 107q46 70 77 225l213 1001h193l-232 -1102q-43 -200 -145 -297q-102 -96 -311 -96q-283 0 -374 175q-30 58 -30 142t17 195h196q-16 -74 -20 -151
q0 -199 215 -199z" />
    <glyph glyph-name="Nj" unicode="&#x1cb;" horiz-adv-x="1933" 
d="M324 1462h208l523 -1210h4l244 1210h188l-309 -1462h-209l-518 1202h-4l-248 -1202h-189zM1266 -238q48 -12 83 -12q59 0 89 105q10 39 22 94l230 1110h174l-267 -1256q-48 -206 -247 -206q-73 0 -115 12zM1905 1249h-176l45 213h176z" />
    <glyph glyph-name="nj" unicode="&#x1cc;" horiz-adv-x="1593" 
d="M748 1083q276 0 276 -272q0 -79 -31 -207l-129 -604h-174l135 618q4 33 15 85q10 52 10 79q0 76 -53 112t-128 36t-146 -35t-120 -88q-78 -68 -116 -221l-123 -586h-172l221 1059h168l-33 -160h4q132 184 396 184zM926 -238q48 -12 83 -12q59 0 89 105q10 39 22 94
l230 1110h174l-267 -1256q-48 -206 -247 -206q-73 0 -115 12zM1565 1249h-176l45 213h176z" />
    <glyph glyph-name="Acaron" unicode="&#x1cd;" horiz-adv-x="1366" 
d="M449 604h503l-108 686h-4zM768 1462h213l264 -1462h-201l-67 440h-617l-256 -440h-215zM967 1565h-176l-158 293h155l105 -191l190 191h160z" />
    <glyph glyph-name="acaron" unicode="&#x1ce;" horiz-adv-x="1062" 
d="M344 129q207 0 297 139q43 59 58 129t34 144h-4q-53 -38 -220 -56q-168 -17 -228 -41q-61 -24 -93 -62t-33 -109t57 -107t132 -37zM780 786q0 144 -213 144q-172 0 -250 -104q-27 -36 -34 -87h-174q23 168 150 256t308 88q271 0 356 -138q51 -83 20 -229q-11 -52 -21 -95
l-68 -289q-6 -33 -17 -74t-12 -78q0 -65 52 -65q12 0 27 5t28 9l-27 -129q-51 -21 -115 -22q-63 -1 -100 38t-28 109l-5 4q-113 -152 -321 -152q-102 -1 -159 15q-58 16 -101 52q-96 80 -94 230q0 207 178 282q78 34 172 46t173 20t129 14q105 15 131 71q15 31 15 79z
M668 1190h-176l-158 293h155l105 -191l190 191h160z" />
    <glyph glyph-name="Icaron" unicode="&#x1cf;" horiz-adv-x="530" 
d="M322 1462h194l-307 -1462h-195zM502 1565h-176l-158 293h156l104 -191l190 191h160z" />
    <glyph glyph-name="icaron" unicode="&#x1d0;" horiz-adv-x="454" 
d="M-8 0l219 1059h174l-221 -1059h-172zM387 1165h-176l-158 293h156l104 -190l191 190h160z" />
    <glyph glyph-name="Ocaron" unicode="&#x1d1;" horiz-adv-x="1554" 
d="M78 606q0 178 55 339q115 336 412 479q149 73 313 73q302 0 468 -183q165 -183 165 -464q0 -172 -54 -332q-112 -333 -404 -478q-146 -73 -328 -73q-301 0 -464 167t-163 472zM272 620q0 -351 241 -456q81 -35 209 -35q128 -1 239 63q220 126 297 398q38 130 38 246
q0 346 -236 459q-77 38 -205 38t-242 -64q-224 -127 -303 -399q-38 -130 -38 -250zM1028 1599h-176l-158 293h156l104 -190l191 190h160z" />
    <glyph glyph-name="ocaron" unicode="&#x1d2;" horiz-adv-x="1175" 
d="M209 420q0 -131 74 -211t217 -80q177 0 292 173q50 75 75 163q26 87 26 157q0 215 -155 284q-52 24 -138 24t-162 -49q-148 -95 -204 -289q-25 -90 -25 -172zM35 434q0 112 40 234q83 250 303 360q110 55 249 55q215 1 327 -111t113 -327q0 -276 -160 -471t-426 -197
q-205 0 -327 124q-119 121 -119 333zM752 1190h-177l-157 293h155l105 -191l190 191h160z" />
    <glyph glyph-name="Ucaron" unicode="&#x1d3;" horiz-adv-x="1478" 
d="M668 129q218 0 318 126q48 60 76 144t50 187l184 876h195l-182 -876q-45 -216 -78 -293q-69 -163 -216 -244q-147 -80 -349 -82q-326 0 -460 163t-71 472l182 860h195l-193 -909q-96 -424 349 -424zM1020 1565h-176l-158 293h156l104 -191l191 191h159z" />
    <glyph glyph-name="ucaron" unicode="&#x1d4;" 
d="M205 276q0 -76 53 -112t129 -35q138 0 250 105q101 99 131 239l123 586h174l-223 -1059h-168l33 160h-5q-130 -180 -396 -182q-277 -1 -275 270q0 74 30 207l129 604h175l-136 -619q-4 -14 -14 -72t-10 -92zM745 1165h-176l-157 293h155l105 -190l190 190h160z" />
    <glyph glyph-name="Udieresismacron" unicode="&#x1d5;" horiz-adv-x="1478" 
d="M668 129q218 0 318 126q48 60 76 144t50 187l184 876h195l-182 -876q-45 -216 -78 -293q-69 -163 -216 -244q-147 -80 -349 -82q-326 0 -460 163t-71 472l182 860h195l-193 -909q-96 -424 349 -424zM1079 1778h183l-43 -213h-183zM745 1778h183l-43 -213h-183zM774 1993
h551l-22 -113h-553z" />
    <glyph glyph-name="udieresismacron" unicode="&#x1d6;" 
d="M205 276q0 -76 53 -112t129 -35q138 0 250 105q101 99 131 239l123 586h174l-223 -1059h-168l33 160h-5q-130 -180 -396 -182q-277 -1 -275 270q0 74 30 207l129 604h175l-136 -619q-4 -14 -14 -72t-10 -92zM805 1378h182l-43 -213h-182zM471 1378h182l-43 -213h-182z
M500 1589h551l-23 -112h-553z" />
    <glyph glyph-name="Udieresisacute" unicode="&#x1d7;" horiz-adv-x="1478" 
d="M668 129q218 0 318 126q48 60 76 144t50 187l184 876h195l-182 -876q-45 -216 -78 -293q-69 -163 -216 -244q-147 -80 -349 -82q-326 0 -460 163t-71 472l182 860h195l-193 -909q-96 -424 349 -424zM1079 1778h183l-43 -213h-183zM745 1778h183l-43 -213h-183zM1036 2173
h232l-279 -293h-143z" />
    <glyph glyph-name="udieresisacute" unicode="&#x1d8;" 
d="M205 276q0 -76 53 -112t129 -35q138 0 250 105q101 99 131 239l123 586h174l-223 -1059h-168l33 160h-5q-130 -180 -396 -182q-277 -1 -275 270q0 74 30 207l129 604h175l-136 -619q-4 -14 -14 -72t-10 -92zM805 1378h182l-43 -213h-182zM471 1378h182l-43 -213h-182z
M762 1769h231l-278 -292h-144z" />
    <glyph glyph-name="Udieresiscaron" unicode="&#x1d9;" horiz-adv-x="1478" 
d="M668 129q218 0 318 126q48 60 76 144t50 187l184 876h195l-182 -876q-45 -216 -78 -293q-69 -163 -216 -244q-147 -80 -349 -82q-326 0 -460 163t-71 472l182 860h195l-193 -909q-96 -424 349 -424zM1079 1778h183l-43 -213h-183zM745 1778h183l-43 -213h-183zM1085 1880
h-176l-157 293h155l105 -191l190 191h160z" />
    <glyph glyph-name="udieresiscaron" unicode="&#x1da;" 
d="M205 276q0 -76 53 -112t129 -35q138 0 250 105q101 99 131 239l123 586h174l-223 -1059h-168l33 160h-5q-130 -180 -396 -182q-277 -1 -275 270q0 74 30 207l129 604h175l-136 -619q-4 -14 -14 -72t-10 -92zM805 1378h182l-43 -213h-182zM471 1378h182l-43 -213h-182z
M811 1477h-176l-158 292h156l104 -190l191 190h159z" />
    <glyph glyph-name="Udieresisgrave" unicode="&#x1db;" horiz-adv-x="1478" 
d="M668 129q218 0 318 126q48 60 76 144t50 187l184 876h195l-182 -876q-45 -216 -78 -293q-69 -163 -216 -244q-147 -80 -349 -82q-326 0 -460 163t-71 472l182 860h195l-193 -909q-96 -424 349 -424zM1079 1778h183l-43 -213h-183zM745 1778h183l-43 -213h-183zM1085 1880
h-137l-207 293h207z" />
    <glyph glyph-name="udieresisgrave" unicode="&#x1dc;" 
d="M205 276q0 -76 53 -112t129 -35q138 0 250 105q101 99 131 239l123 586h174l-223 -1059h-168l33 160h-5q-130 -180 -396 -182q-277 -1 -275 270q0 74 30 207l129 604h175l-136 -619q-4 -14 -14 -72t-10 -92zM805 1378h182l-43 -213h-182zM471 1378h182l-43 -213h-182z
M831 1477h-137l-207 292h207z" />
    <glyph glyph-name="uni01DD" unicode="&#x1dd;" horiz-adv-x="1099" 
d="M444 131q143 0 234.5 83t130.5 216h-614q-15 -201 80 -250t169 -49zM20 446q0 40 17 138h797q6 45 6 99q0 115 -83 182t-192 67q-228 0 -305 -203h-174q39 171 171 262.5t285 91.5q154 0 241 -39.5t159 -127t72 -248.5t-44 -286.5t-119 -215.5t-174 -139.5t-208 -49.5
q-449 0 -449 469z" />
    <glyph glyph-name="Adieresismacron" unicode="&#x1de;" horiz-adv-x="1366" 
d="M449 604h503l-108 686h-4zM768 1462h213l264 -1462h-201l-67 440h-617l-256 -440h-215zM1026 1778h182l-43 -213h-182zM692 1778h182l-43 -213h-182zM721 1993h551l-23 -113h-553z" />
    <glyph glyph-name="adieresismacron" unicode="&#x1df;" horiz-adv-x="1062" 
d="M344 129q207 0 297 139q43 59 58 129t34 144h-4q-53 -38 -220 -56q-168 -17 -228 -41q-61 -24 -93 -62t-33 -109t57 -107t132 -37zM780 786q0 144 -213 144q-172 0 -250 -104q-27 -36 -34 -87h-174q23 168 150 256t308 88q271 0 356 -138q51 -83 20 -229q-11 -52 -21 -95
l-68 -289q-6 -33 -17 -74t-12 -78q0 -65 52 -65q12 0 27 5t28 9l-27 -129q-51 -21 -115 -22q-63 -1 -100 38t-28 109l-5 4q-113 -152 -321 -152q-102 -1 -159 15q-58 16 -101 52q-96 80 -94 230q0 207 178 282q78 34 172 46t173 20t129 14q105 15 131 71q15 31 15 79z
M727 1403h182l-43 -213h-182zM393 1403h182l-43 -213h-182zM422 1614h551l-23 -113h-553z" />
    <glyph glyph-name="Adotmacron" unicode="&#x1e0;" horiz-adv-x="1366" 
d="M449 604h503l-108 686h-4zM768 1462h213l264 -1462h-201l-67 440h-617l-256 -440h-215zM858 1778h182l-43 -213h-182zM700 1993h551l-22 -113h-553z" />
    <glyph glyph-name="adotmacron" unicode="&#x1e1;" horiz-adv-x="1062" 
d="M344 129q207 0 297 139q43 59 58 129t34 144h-4q-53 -38 -220 -56q-168 -17 -228 -41q-61 -24 -93 -62t-33 -109t57 -107t132 -37zM780 786q0 144 -213 144q-172 0 -250 -104q-27 -36 -34 -87h-174q23 168 150 256t308 88q271 0 356 -138q51 -83 20 -229q-11 -52 -21 -95
l-68 -289q-6 -33 -17 -74t-12 -78q0 -65 52 -65q12 0 27 5t28 9l-27 -129q-51 -21 -115 -22q-63 -1 -100 38t-28 109l-5 4q-113 -152 -321 -152q-102 -1 -159 15q-58 16 -101 52q-96 80 -94 230q0 207 178 282q78 34 172 46t173 20t129 14q105 15 131 71q15 31 15 79z
M559 1403h182l-43 -213h-182zM422 1614h551l-23 -113h-553z" />
    <glyph glyph-name="AEmacron" unicode="&#x1e2;" horiz-adv-x="1896" 
d="M481 590h393l154 708h-45zM903 1462h1073l-34 -164h-719l-97 -464h676l-37 -164h-673l-109 -506h731l-33 -164h-931l88 426h-471l-306 -426h-221zM1161 1677h551l-22 -112h-553z" />
    <glyph glyph-name="aemacron" unicode="&#x1e3;" horiz-adv-x="1781" 
d="M1039 839q-90 -86 -119 -208h593q17 124 -42 211q-59 88 -195 88q-137 0 -237 -91zM795 788q0 142 -232 142q-98 0 -169 -48t-93 -141h-170q26 177 164 265q118 77 309 77q256 0 338 -165q56 80 148 122t190 43q205 -1 306 -109t102 -306q0 -77 -29 -191h-768
q-10 -62 -10 -108q0 -45 15 -89q32 -93 125 -132q48 -19 114 -19q229 0 313 203h178q-23 -63 -57 -119q-82 -123 -191 -179t-258 -57q-298 0 -372 228q-135 -226 -416 -228q-343 0 -340 293q0 158 124 240q94 62 277 84q76 8 148 15q254 25 254 179zM164 284
q0 -154 196 -155q221 0 304 159q54 108 77 257q-69 -34 -186 -50q-118 -16 -179 -27q-212 -38 -212 -184zM729 1303h551l-23 -113h-552z" />
    <glyph glyph-name="Gcaron" unicode="&#x1e6;" horiz-adv-x="1554" 
d="M705 -33q-301 0 -464 167t-163 472q0 178 55 339q115 336 412 479q150 73 336 73q260 0 415 -118q172 -129 172 -371h-194q0 158 -111 241q-111 84 -273 84q-296 0 -466 -231q-152 -204 -152 -496q0 -338 241 -442q81 -35 195 -35q322 0 456 283q42 88 69 194h-467
l33 164h637l-160 -770h-123l-12 145q-86 -92 -202 -135t-234 -43zM1016 1599h-176l-158 293h156l104 -190l191 190h159z" />
    <glyph glyph-name="gcaron" unicode="&#x1e7;" horiz-adv-x="1175" 
d="M217 438q0 -200 145 -269q49 -24 131 -24q82 -1 155 49t120 126q96 155 94 333q0 125 -66 201q-67 76 -204 76q-92 0 -162 -51t-117 -126t-71 -162t-25 -153zM129 -100q13 -174 267 -174t334 269q24 77 44 155l-4 4q-106 -160 -315 -160t-310 120q-102 120 -102 316
q0 117 38 234q79 244 281 361q102 58 226 58t221 -59t121 -156v-4h4l33 195h163l-190 -905q-42 -191 -82 -287q-68 -159 -188 -227t-293 -68q-279 0 -382 177q-36 62 -38 151h172zM786 1190h-176l-157 293h155l105 -191l190 191h160z" />
    <glyph glyph-name="Kcaron" unicode="&#x1e8;" horiz-adv-x="1366" 
d="M324 1462h194l-153 -721l4 -4l827 725h260l-704 -602l469 -860h-215l-400 741l-293 -247l-104 -494h-195zM971 1565h-176l-158 293h156l104 -191l190 191h160z" />
    <glyph glyph-name="kcaron" unicode="&#x1e9;" horiz-adv-x="985" 
d="M299 1462h172l-182 -860l4 -4l532 461h228l-461 -391l262 -668h-195l-206 563l-209 -186l-80 -377h-172zM758 1565h-176l-158 293h156l104 -191l190 191h160z" />
    <glyph glyph-name="Oogonek" unicode="&#x1ea;" horiz-adv-x="1554" 
d="M541 -461q-178 0 -181 146q0 66 70 141t188 145q-239 21 -377 163q-163 167 -163 472q0 178 55 339q115 336 412 479q149 73 313 73q302 0 468 -183q165 -183 165 -464q0 -172 -54 -332q-112 -333 -404 -478q-128 -64 -283 -72q-131 -72 -220 -180q-33 -40 -32 -71
q0 -75 79 -75t144 49l76 -25q-59 -72 -117 -100t-139 -27zM272 620q0 -351 241 -456q81 -35 209 -35q128 -1 239 63q220 126 297 398q38 130 38 246q0 346 -236 459q-77 38 -205 38t-242 -64q-224 -127 -303 -399q-38 -130 -38 -250z" />
    <glyph glyph-name="oogonek" unicode="&#x1eb;" horiz-adv-x="1175" 
d="M209 420q0 -131 74 -211t217 -80q177 0 292 173q50 75 75 163q26 87 26 157q0 215 -155 284q-52 24 -138 24t-162 -49q-148 -95 -204 -289q-25 -90 -25 -172zM172 -305q0 129 255 285q-168 14 -280 128t-112 310q0 274 163 470q163 195 429 195q215 1 327 -111t113 -327
q0 -276 -148 -457t-364 -206h12q-67 -33 -129 -89q-129 -114 -129 -165q0 -76 80 -76t143 49l76 -25q-60 -72 -118 -100t-138 -27q-180 0 -180 146z" />
    <glyph glyph-name="Oogonekmacron" unicode="&#x1ec;" horiz-adv-x="1554" 
d="M541 -461q-178 0 -181 146q0 66 70 141t188 145q-239 21 -377 163q-163 167 -163 472q0 178 55 339q115 336 412 479q149 73 313 73q302 0 468 -183q165 -183 165 -464q0 -172 -54 -332q-112 -333 -404 -478q-128 -64 -283 -72q-131 -72 -220 -180q-33 -40 -32 -71
q0 -75 79 -75t144 49l76 -25q-59 -72 -117 -100t-139 -27zM272 620q0 -351 241 -456q81 -35 209 -35q128 -1 239 63q220 126 297 398q38 130 38 246q0 346 -236 459q-77 38 -205 38t-242 -64q-224 -127 -303 -399q-38 -130 -38 -250zM717 1712h551l-23 -113h-553z" />
    <glyph glyph-name="oogonekmacron" unicode="&#x1ed;" horiz-adv-x="1175" 
d="M209 420q0 -131 74 -211t217 -80q177 0 292 173q50 75 75 163q26 87 26 157q0 215 -155 284q-52 24 -138 24t-162 -49q-148 -95 -204 -289q-25 -90 -25 -172zM172 -305q0 129 255 285q-168 14 -280 128t-112 310q0 274 163 470q163 195 429 195q215 1 327 -111t113 -327
q0 -276 -148 -457t-364 -206h12q-67 -33 -129 -89q-129 -114 -129 -165q0 -76 80 -76t143 49l76 -25q-60 -72 -118 -100t-138 -27q-180 0 -180 146zM440 1303h551l-22 -113h-553z" />
    <glyph glyph-name="jcaron" unicode="&#x1f0;" horiz-adv-x="454" 
d="M-140 -250q70 0 93 87q16 57 29 112l229 1110h174l-266 -1256q-48 -206 -248 -206q-72 0 -115 12l31 153q49 -12 73 -12zM373 1165h-176l-158 293h156l104 -190l190 190h160z" />
    <glyph glyph-name="DZ" unicode="&#x1f1;" horiz-adv-x="2693" 
d="M836 1462q272 0 412 -150t141 -409q0 -411 -226 -658q-220 -245 -588 -245h-561l310 1462h512zM1194 883q0 418 -403 415h-312l-239 -1134h338q295 0 463 226q153 201 153 493zM1401 162l1096 1136h-838l41 164h1067l-35 -166l-1106 -1132h934l-35 -164h-1159z" />
    <glyph glyph-name="Dz" unicode="&#x1f2;" horiz-adv-x="2351" 
d="M836 1462q272 0 412 -150t141 -409q0 -411 -226 -658q-220 -245 -588 -245h-561l310 1462h512zM1194 883q0 418 -403 415h-312l-239 -1134h338q295 0 463 226q153 201 153 493zM1360 131l735 774h-569l30 154h805l-26 -125l-744 -780h633l-29 -154h-860z" />
    <glyph glyph-name="dz" unicode="&#x1f3;" horiz-adv-x="2123" 
d="M209 410q0 -281 272 -281q98 0 176 51t130 129t80 171q28 94 28 194t-69 178t-185 78q-117 0 -195 -48q-155 -95 -210 -292q-27 -92 -27 -180zM454 -23q-199 0 -310 117t-109 316q0 256 154 456q75 96 185 156t249 61q181 0 278 -97q35 -36 51 -89h4l113 565h172
l-309 -1462h-164l37 152h-4q-78 -102 -161 -138t-186 -37zM1133 131l735 774h-570l31 154h805l-27 -125l-743 -780h633l-29 -154h-860z" />
    <glyph glyph-name="Gacute" unicode="&#x1f4;" horiz-adv-x="1554" 
d="M705 -33q-301 0 -464 167t-163 472q0 178 55 339q115 336 412 479q150 73 336 73q260 0 415 -118q172 -129 172 -371h-194q0 158 -111 241q-111 84 -273 84q-296 0 -466 -231q-152 -204 -152 -496q0 -338 241 -442q81 -35 195 -35q322 0 456 283q42 88 69 194h-467
l33 164h637l-160 -770h-123l-12 145q-86 -92 -202 -135t-234 -43zM967 1892h231l-278 -293h-144z" />
    <glyph glyph-name="gacute" unicode="&#x1f5;" horiz-adv-x="1175" 
d="M217 438q0 -200 145 -269q49 -24 131 -24q82 -1 155 49t120 126q96 155 94 333q0 125 -66 201q-67 76 -204 76q-92 0 -162 -51t-117 -126t-71 -162t-25 -153zM129 -100q13 -174 267 -174t334 269q24 77 44 155l-4 4q-106 -160 -315 -160t-310 120q-102 120 -102 316
q0 117 38 234q79 244 281 361q102 58 226 58t221 -59t121 -156v-4h4l33 195h163l-190 -905q-42 -191 -82 -287q-68 -159 -188 -227t-293 -68q-279 0 -382 177q-36 62 -38 151h172zM737 1483h232l-279 -293h-143z" />
    <glyph glyph-name="Ngrave" unicode="&#x1f8;" horiz-adv-x="1478" 
d="M324 1462h208l523 -1210h4l244 1210h188l-309 -1462h-209l-518 1202h-4l-248 -1202h-189zM1010 1565h-138l-206 293h206z" />
    <glyph glyph-name="ngrave" unicode="&#x1f9;" 
d="M748 1083q276 0 276 -272q0 -79 -31 -207l-129 -604h-174l135 618q4 33 15 85q10 52 10 79q0 76 -53 112t-128 36t-146 -35t-120 -88q-78 -68 -116 -221l-123 -586h-172l221 1059h168l-33 -160h4q132 184 396 184zM850 1190h-137l-207 293h207z" />
    <glyph glyph-name="Aringacute" unicode="&#x1fa;" horiz-adv-x="1366" 
d="M449 604h503l-108 686h-4zM768 1462h213l264 -1462h-201l-67 440h-617l-256 -440h-215zM815 1796q0 -59 40 -99t99 -40t100 40q40 40 40 99t-40 99t-100 40t-99 -40q-40 -40 -40 -99zM723 1797q0 95 68 162t162 68q95 1 163 -67t69 -163t-67 -163t-165 -69q-96 1 -163 69
t-67 163zM1077 2423h232l-279 -293h-143z" />
    <glyph glyph-name="aringacute" unicode="&#x1fb;" horiz-adv-x="1062" 
d="M344 129q207 0 297 139q43 59 58 129t34 144h-4q-53 -38 -220 -56q-168 -17 -228 -41q-61 -24 -93 -62t-33 -109t57 -107t132 -37zM780 786q0 144 -213 144q-172 0 -250 -104q-27 -36 -34 -87h-174q23 168 150 256t308 88q271 0 356 -138q51 -83 20 -229q-11 -52 -21 -95
l-68 -289q-6 -33 -17 -74t-12 -78q0 -65 52 -65q12 0 27 5t28 9l-27 -129q-51 -21 -115 -22q-63 -1 -100 38t-28 109l-5 4q-113 -152 -321 -152q-102 -1 -159 15q-58 16 -101 52q-96 80 -94 230q0 207 178 282q78 34 172 46t173 20t129 14q105 15 131 71q15 31 15 79z
M514 1417q0 -59 40 -99t99 -40t100 40q40 40 40 99t-40 99q-39 40 -99 40t-100 -40t-40 -99zM422 1417q0 95 67 162t163 69q95 1 163 -67t69 -163q0 -96 -68 -164t-163 -68t-163 68t-68 163zM733 2044h232l-279 -293h-143z" />
    <glyph glyph-name="AEacute" unicode="&#x1fc;" horiz-adv-x="1896" 
d="M481 590h393l154 708h-45zM903 1462h1073l-34 -164h-719l-97 -464h676l-37 -164h-673l-109 -506h731l-33 -164h-931l88 426h-471l-306 -426h-221zM1464 1858h232l-279 -293h-143z" />
    <glyph glyph-name="aeacute" unicode="&#x1fd;" horiz-adv-x="1781" 
d="M1039 839q-90 -86 -119 -208h593q17 124 -42 211q-59 88 -195 88q-137 0 -237 -91zM795 788q0 142 -232 142q-98 0 -169 -48t-93 -141h-170q26 177 164 265q118 77 309 77q256 0 338 -165q56 80 148 122t190 43q205 -1 306 -109t102 -306q0 -77 -29 -191h-768
q-10 -62 -10 -108q0 -45 15 -89q32 -93 125 -132q48 -19 114 -19q229 0 313 203h178q-23 -63 -57 -119q-82 -123 -191 -179t-258 -57q-298 0 -372 228q-135 -226 -416 -228q-343 0 -340 293q0 158 124 240q94 62 277 84q76 8 148 15q254 25 254 179zM164 284
q0 -154 196 -155q221 0 304 159q54 108 77 257q-69 -34 -186 -50q-118 -16 -179 -27q-212 -38 -212 -184zM991 1483h232l-279 -293h-143z" />
    <glyph glyph-name="Oslashacute" unicode="&#x1fe;" horiz-adv-x="1554" 
d="M881 1497q277 0 444 -186l201 190l59 -65l-205 -195q111 -172 111 -367q0 -386 -210 -638q-101 -123 -247 -196t-329 -73q-305 0 -469 178h-7l-194 -188l-58 63l203 197q-104 161 -102 389q0 178 55 339q115 336 412 479q150 73 336 73zM881 1333q-154 -1 -268 -65
q-224 -127 -303 -399q-38 -130 -38 -270t52 -245l870 832q-111 147 -313 147zM705 129q145 -1 256 63q220 126 297 398q38 129 38 268t-55 250l-870 -832q111 -147 334 -147zM977 1896h231l-278 -292h-144z" />
    <glyph glyph-name="oslashacute" unicode="&#x1ff;" horiz-adv-x="1175" 
d="M893 629q0 76 -23 137l-604 -545q79 -92 245 -92t281 173q50 75 75 163q26 88 26 164zM836 838q-79 92 -222 92q-185 0 -296 -163t-109 -347q0 -80 20 -129h2zM35 410q0 283 163 478t429 195q227 0 338 -129l143 129l51 -57l-149 -135q57 -95 57 -235t-39 -261
q-81 -251 -299 -362q-109 -55 -248 -56q-227 0 -340 132l-151 -138l-49 56l155 143q-61 102 -61 240zM700 1483h232l-279 -293h-143z" />
    <glyph glyph-name="Adblgrave" unicode="&#x200;" horiz-adv-x="1366" 
d="M449 604h503l-108 686h-4zM768 1462h213l264 -1462h-201l-67 440h-617l-256 -440h-215zM602 1565l-207 293h207l137 -293h-137zM1012 1565l-207 293h207l137 -293h-137z" />
    <glyph glyph-name="adblgrave" unicode="&#x201;" horiz-adv-x="1062" 
d="M344 129q207 0 297 139q43 59 58 129t34 144h-4q-53 -38 -220 -56q-168 -17 -228 -41q-61 -24 -93 -62t-33 -109t57 -107t132 -37zM780 786q0 144 -213 144q-172 0 -250 -104q-27 -36 -34 -87h-174q23 168 150 256t308 88q271 0 356 -138q51 -83 20 -229q-11 -52 -21 -95
l-68 -289q-6 -33 -17 -74t-12 -78q0 -65 52 -65q12 0 27 5t28 9l-27 -129q-51 -21 -115 -22q-63 -1 -100 38t-28 109l-5 4q-113 -152 -321 -152q-102 -1 -159 15q-58 16 -101 52q-96 80 -94 230q0 207 178 282q78 34 172 46t173 20t129 14q105 15 131 71q15 31 15 79z
M467 1190l-207 293h207l137 -293h-137zM877 1190l-207 293h207l137 -293h-137z" />
    <glyph glyph-name="Ainvertedbreve" unicode="&#x202;" horiz-adv-x="1366" 
d="M449 604h503l-108 686h-4zM768 1462h213l264 -1462h-201l-67 440h-617l-256 -440h-215zM952 1737q-96 0 -151 -40t-84 -132h-92q18 137 111 211q94 74 230 74t208 -72t67 -213h-92q-2 94 -51 133q-50 39 -146 39z" />
    <glyph glyph-name="ainvertedbreve" unicode="&#x203;" horiz-adv-x="1062" 
d="M344 129q207 0 297 139q43 59 58 129t34 144h-4q-53 -38 -220 -56q-168 -17 -228 -41q-61 -24 -93 -62t-33 -109t57 -107t132 -37zM780 786q0 144 -213 144q-172 0 -250 -104q-27 -36 -34 -87h-174q23 168 150 256t308 88q271 0 356 -138q51 -83 20 -229q-11 -52 -21 -95
l-68 -289q-6 -33 -17 -74t-12 -78q0 -65 52 -65q12 0 27 5t28 9l-27 -129q-51 -21 -115 -22q-63 -1 -100 38t-28 109l-5 4q-113 -152 -321 -152q-102 -1 -159 15q-58 16 -101 52q-96 80 -94 230q0 207 178 282q78 34 172 46t173 20t129 14q105 15 131 71q15 31 15 79z
M654 1362q-96 0 -152 -40q-55 -40 -84 -132h-92q18 137 111 211t229 74t208 -72t68 -213h-92q-2 94 -51 133t-145 39z" />
    <glyph glyph-name="Edblgrave" unicode="&#x204;" horiz-adv-x="1251" 
d="M324 1462h1007l-33 -164h-813l-98 -464h758l-33 -164h-760l-106 -506h823l-37 -164h-1018zM606 1565l-207 293h207l137 -293h-137zM1016 1565l-207 293h207l137 -293h-137z" />
    <glyph glyph-name="edblgrave" unicode="&#x205;" horiz-adv-x="1099" 
d="M588 930q-137 0 -238 -88q-86 -78 -125 -211h615q9 124 -53 212q-62 87 -199 87zM1014 614q0 -59 -17 -137h-796q-6 -45 -6 -99q0 -115 83 -182t191 -67q231 0 305 203h174q-40 -175 -174 -265q-129 -90 -282 -90q-154 0 -241 40q-227 104 -231 384q0 152 45 278
q89 254 292 355q99 49 208 49q449 0 449 -469zM393 1190l-207 293h207l137 -293h-137zM803 1190l-207 293h207l137 -293h-137z" />
    <glyph glyph-name="Einvertedbreve" unicode="&#x206;" horiz-adv-x="1251" 
d="M324 1462h1007l-33 -164h-813l-98 -464h758l-33 -164h-760l-106 -506h823l-37 -164h-1018zM895 1737q-95 0 -151 -40t-85 -132h-92q17 137 111 211t230 74t208 -72t68 -213h-92q-2 94 -52 133t-145 39z" />
    <glyph glyph-name="einvertedbreve" unicode="&#x207;" horiz-adv-x="1099" 
d="M588 930q-137 0 -238 -88q-86 -78 -125 -211h615q9 124 -53 212q-62 87 -199 87zM1014 614q0 -59 -17 -137h-796q-6 -45 -6 -99q0 -115 83 -182t191 -67q231 0 305 203h174q-40 -175 -174 -265q-129 -90 -282 -90q-154 0 -241 40q-227 104 -231 384q0 152 45 278
q89 254 292 355q99 49 208 49q449 0 449 -469zM703 1362q-95 0 -151 -40t-85 -132h-92q18 137 111 211q94 74 230 74t208 -72t67 -213h-92q-2 94 -51 133t-145 39z" />
    <glyph glyph-name="Idblgrave" unicode="&#x208;" horiz-adv-x="530" 
d="M322 1462h194l-307 -1462h-195zM178 1565l-207 293h207l137 -293h-137zM588 1565l-207 293h207l137 -293h-137z" />
    <glyph glyph-name="idblgrave" unicode="&#x209;" horiz-adv-x="454" 
d="M-8 0l219 1059h174l-221 -1059h-172zM59 1165l-206 293h206l138 -293h-138zM469 1165l-207 293h207l137 -293h-137z" />
    <glyph glyph-name="Iinvertedbreve" unicode="&#x20a;" horiz-adv-x="530" 
d="M322 1462h194l-307 -1462h-195zM488 1737q-96 0 -152 -40t-84 -132h-92q18 137 111 211t229 74t209 -72q72 -72 67 -213h-92q-2 94 -51 133t-145 39z" />
    <glyph glyph-name="iinvertedbreve" unicode="&#x20b;" horiz-adv-x="454" 
d="M-8 0l219 1059h174l-221 -1059h-172zM369 1337q-95 0 -151 -40t-85 -132h-92q17 137 111 211t230 74t208 -72t67 -213h-92q-2 94 -51 133t-145 39z" />
    <glyph glyph-name="Odblgrave" unicode="&#x20c;" horiz-adv-x="1554" 
d="M78 606q0 178 55 339q115 336 412 479q149 73 313 73q302 0 468 -183q165 -183 165 -464q0 -172 -54 -332q-112 -333 -404 -478q-146 -73 -328 -73q-301 0 -464 167t-163 472zM272 620q0 -351 241 -456q81 -35 209 -35q128 -1 239 63q220 126 297 398q38 130 38 246
q0 346 -236 459q-77 38 -205 38t-242 -64q-224 -127 -303 -399q-38 -130 -38 -250zM684 1599l-207 293h207l137 -293h-137zM1094 1599l-207 293h207l137 -293h-137z" />
    <glyph glyph-name="odblgrave" unicode="&#x20d;" horiz-adv-x="1175" 
d="M209 420q0 -131 74 -211t217 -80q177 0 292 173q50 75 75 163q26 87 26 157q0 215 -155 284q-52 24 -138 24t-162 -49q-148 -95 -204 -289q-25 -90 -25 -172zM35 434q0 112 40 234q83 250 303 360q110 55 249 55q215 1 327 -111t113 -327q0 -276 -160 -471t-426 -197
q-205 0 -327 124q-119 121 -119 333zM428 1190l-207 293h207l137 -293h-137zM838 1190l-207 293h207l137 -293h-137z" />
    <glyph glyph-name="Oinvertedbreve" unicode="&#x20e;" horiz-adv-x="1554" 
d="M78 606q0 178 55 339q115 336 412 479q149 73 313 73q302 0 468 -183q165 -183 165 -464q0 -172 -54 -332q-112 -333 -404 -478q-146 -73 -328 -73q-301 0 -464 167t-163 472zM272 620q0 -351 241 -456q81 -35 209 -35q128 -1 239 63q220 126 297 398q38 130 38 246
q0 346 -236 459q-77 38 -205 38t-242 -64q-224 -127 -303 -399q-38 -130 -38 -250zM1014 1772q-96 0 -152 -40t-84 -133h-92q18 137 112 211t229 74q136 0 208 -72t68 -213h-93q-2 93 -51 133t-145 40z" />
    <glyph glyph-name="oinvertedbreve" unicode="&#x20f;" horiz-adv-x="1175" 
d="M209 420q0 -131 74 -211t217 -80q177 0 292 173q50 75 75 163q26 87 26 157q0 215 -155 284q-52 24 -138 24t-162 -49q-148 -95 -204 -289q-25 -90 -25 -172zM35 434q0 112 40 234q83 250 303 360q110 55 249 55q215 1 327 -111t113 -327q0 -276 -160 -471t-426 -197
q-205 0 -327 124q-119 121 -119 333zM738 1362q-96 0 -152 -40q-55 -40 -84 -132h-92q18 137 111 211t229 74t208 -72t68 -213h-92q-2 94 -51 133t-145 39z" />
    <glyph glyph-name="Rdblgrave" unicode="&#x210;" horiz-adv-x="1402" 
d="M887 1298h-404l-108 -510h438q201 0 295 106q63 71 66 183q0 221 -287 221zM887 1462q336 0 441 -192q40 -72 40 -163q0 -162 -92 -277t-238 -134v-4q131 -39 151 -211q8 -79 -7 -165q-14 -86 -18 -134q-10 -112 26 -182h-203q-36 107 4 313q42 254 -76 297
q-33 12 -65 15h-510l-131 -625h-195l310 1462h563zM584 1565l-207 293h207l137 -293h-137zM993 1565l-207 293h207l137 -293h-137z" />
    <glyph glyph-name="rdblgrave" unicode="&#x211;" horiz-adv-x="681" 
d="M707 899h-25q-65 0 -121 -14q-55 -13 -111 -59t-102 -114t-84 -243l-100 -469h-172l219 1059h164l-51 -228h4q61 109 156 181t229 71q16 0 30 2t31 -2l-41 -186q-8 2 -26 2zM279 1194l-207 293h207l137 -293h-137zM688 1194l-207 293h207l137 -293h-137z" />
    <glyph glyph-name="Rinvertedbreve" unicode="&#x212;" horiz-adv-x="1402" 
d="M887 1298h-404l-108 -510h438q201 0 295 106q63 71 66 183q0 221 -287 221zM887 1462q336 0 441 -192q40 -72 40 -163q0 -162 -92 -277t-238 -134v-4q131 -39 151 -211q8 -79 -7 -165q-14 -86 -18 -134q-10 -112 26 -182h-203q-36 107 4 313q42 254 -76 297
q-33 12 -65 15h-510l-131 -625h-195l310 1462h563zM914 1737q-96 0 -152 -40t-84 -132h-92q18 137 111 211t229 74t209 -72q72 -72 67 -213h-92q-2 94 -51 133t-145 39z" />
    <glyph glyph-name="rinvertedbreve" unicode="&#x213;" horiz-adv-x="681" 
d="M707 899h-25q-65 0 -121 -14q-55 -13 -111 -59t-102 -114t-84 -243l-100 -469h-172l219 1059h164l-51 -228h4q61 109 156 181t229 71q16 0 30 2t31 -2l-41 -186q-8 2 -26 2zM568 1366q-96 0 -152 -40q-55 -40 -84 -132h-92q18 137 111 211t229 74t208 -72t68 -213h-92
q-2 94 -51 133t-145 39z" />
    <glyph glyph-name="Udblgrave" unicode="&#x214;" horiz-adv-x="1478" 
d="M668 129q218 0 318 126q48 60 76 144t50 187l184 876h195l-182 -876q-45 -216 -78 -293q-69 -163 -216 -244q-147 -80 -349 -82q-326 0 -460 163t-71 472l182 860h195l-193 -909q-96 -424 349 -424zM655 1565l-206 293h206l138 -293h-138zM1065 1565l-207 293h207
l137 -293h-137z" />
    <glyph glyph-name="udblgrave" unicode="&#x215;" 
d="M205 276q0 -76 53 -112t129 -35q138 0 250 105q101 99 131 239l123 586h174l-223 -1059h-168l33 160h-5q-130 -180 -396 -182q-277 -1 -275 270q0 74 30 207l129 604h175l-136 -619q-4 -14 -14 -72t-10 -92zM483 1165l-207 293h207l138 -293h-138zM893 1165l-207 293h207
l137 -293h-137z" />
    <glyph glyph-name="Uinvertedbreve" unicode="&#x216;" horiz-adv-x="1478" 
d="M668 129q218 0 318 126q48 60 76 144t50 187l184 876h195l-182 -876q-45 -216 -78 -293q-69 -163 -216 -244q-147 -80 -349 -82q-326 0 -460 163t-71 472l182 860h195l-193 -909q-96 -424 349 -424zM1006 1737q-96 0 -152 -40t-84 -132h-92q18 137 112 211t229 74
q136 0 208 -72t67 -213h-92q-2 94 -51 133t-145 39z" />
    <glyph glyph-name="uinvertedbreve" unicode="&#x217;" 
d="M205 276q0 -76 53 -112t129 -35q138 0 250 105q101 99 131 239l123 586h174l-223 -1059h-168l33 160h-5q-130 -180 -396 -182q-277 -1 -275 270q0 74 30 207l129 604h175l-136 -619q-4 -14 -14 -72t-10 -92zM670 1337q-96 0 -152 -40t-84 -132h-92q18 137 112 211t229 74
q136 0 208 -72t67 -213h-92q-2 94 -51 133t-145 39z" />
    <glyph glyph-name="Scommaaccent" unicode="&#x218;" horiz-adv-x="1327" 
d="M225 479q-15 -350 379 -350q166 0 262 67q115 77 115 214q0 106 -77 162q-55 43 -183 79l-199 54q-330 90 -328 380q0 94 48 173q94 158 292 212q94 27 198 27q224 0 379 -117t146 -350h-194q4 161 -82 232q-85 71 -243 71q-222 0 -316 -129q-33 -45 -33 -104
q0 -150 145 -209q44 -18 93 -33l196 -53q157 -42 244 -118q109 -98 109 -277q0 -212 -187 -335q-164 -108 -383 -108q-432 0 -546 280q-40 97 -29 232h194zM569 -135q-20 -86 -35 -176q-16 -90 -48 -165t-90 -127t-167 -61l21 99q75 11 110 72q16 28 27 62q10 34 21 69h-115
l49 227h227z" />
    <glyph glyph-name="scommaaccent" unicode="&#x219;" horiz-adv-x="985" 
d="M508 930q-152 0 -205 -69q-20 -27 -20 -65q0 -67 87 -114q40 -23 125 -55q260 -99 322 -216q25 -46 25 -121t-39 -137q-108 -172 -393 -176q-199 0 -314 83q-114 83 -112 274h172q-7 -107 69 -156q77 -49 220 -49t201 86q22 31 22 73t-37 83t-114 69q-77 29 -168 67
q-242 100 -240 271q0 140 117 223q117 82 276 82q268 0 364 -179q35 -65 35 -156h-174q4 90 -61 136q-66 46 -158 46zM416 -125q-20 -86 -36 -176t-47 -165q-32 -75 -90 -127t-167 -60l20 98q101 15 137 134q10 34 21 69h-115l49 227h228z" />
    <glyph glyph-name="Tcommaaccent" unicode="&#x21a;" horiz-adv-x="1175" 
d="M1300 1298h-491l-274 -1298h-195l274 1298h-491l35 164h1179zM545 -102q-19 -86 -35 -176t-48 -166q-32 -74 -90 -126t-167 -61l20 99q76 11 111 72q16 28 26 62t21 68h-115l49 228h228z" />
    <glyph glyph-name="tcommaaccent" unicode="&#x21b;" horiz-adv-x="645" 
d="M283 213q0 -69 104 -72q49 0 100 19l-30 -160q-78 -10 -157 -10t-122 26q-82 49 -82 130q-1 39 10 102l140 657h-178l32 154h179l65 313h174l-65 -313h211l-33 -154h-211l-131 -622q-2 -19 -4 -35t-2 -35zM309 -113q-19 -86 -35 -176t-48 -165t-90 -127t-167 -60l21 98
q75 11 110 73q20 34 47 130h-114l49 227h227z" />
    <glyph glyph-name="Hcaron" unicode="&#x21e;" horiz-adv-x="1478" 
d="M322 1462h196l-133 -628h766l131 628h195l-308 -1462h-194l141 670h-766l-141 -670h-195zM981 1565h-176l-158 293h156l104 -191l191 191h159z" />
    <glyph glyph-name="hcaron" unicode="&#x21f;" 
d="M748 1083q276 0 276 -272q0 -79 -31 -207l-129 -604h-174l135 618q4 33 15 85q10 52 10 79q0 76 -53 112t-128 36t-146 -35t-120 -88q-78 -68 -116 -221l-123 -586h-172l307 1462h174l-125 -559l4 -4q132 184 396 184zM743 1565h-176l-157 293h155l105 -191l190 191h160z
" />
    <glyph glyph-name="Adotaccent" unicode="&#x226;" horiz-adv-x="1366" 
d="M449 604h503l-108 686h-4zM768 1462h213l264 -1462h-201l-67 440h-617l-256 -440h-215zM846 1778h182l-43 -213h-182z" />
    <glyph glyph-name="adotaccent" unicode="&#x227;" horiz-adv-x="1062" 
d="M344 129q207 0 297 139q43 59 58 129t34 144h-4q-53 -38 -220 -56q-168 -17 -228 -41q-61 -24 -93 -62t-33 -109t57 -107t132 -37zM780 786q0 144 -213 144q-172 0 -250 -104q-27 -36 -34 -87h-174q23 168 150 256t308 88q271 0 356 -138q51 -83 20 -229q-11 -52 -21 -95
l-68 -289q-6 -33 -17 -74t-12 -78q0 -65 52 -65q12 0 27 5t28 9l-27 -129q-51 -21 -115 -22q-63 -1 -100 38t-28 109l-5 4q-113 -152 -321 -152q-102 -1 -159 15q-58 16 -101 52q-96 80 -94 230q0 207 178 282q78 34 172 46t173 20t129 14q105 15 131 71q15 31 15 79z
M559 1403h182l-43 -213h-182z" />
    <glyph glyph-name="Ecedilla" unicode="&#x228;" horiz-adv-x="1251" 
d="M634 -156q58 -41 58 -122t-73 -126t-172 -46q-100 -1 -197 44l37 89l63 -21t72 -10q41 0 79 10t38 51q0 61 -95 64q-55 0 -86 -17l-36 62l146 178h-454l310 1462h1007l-33 -164h-813l-98 -464h758l-33 -164h-760l-106 -506h823l-37 -164h-468l-115 -129h4q46 18 100 5
q55 -14 81 -32z" />
    <glyph glyph-name="ecedilla" unicode="&#x229;" horiz-adv-x="1099" 
d="M588 930q-137 0 -238 -88q-86 -78 -125 -211h615q9 124 -53 212q-62 87 -199 87zM1014 614q0 -59 -17 -137h-796q-6 -45 -6 -99q0 -115 83 -182t191 -67q231 0 305 203h174q-40 -175 -174 -265q-129 -90 -305 -90q-13 0 -26 1l-115 -130h4q22 9 55 9q123 0 168 -82
q16 -29 16 -73q0 -86 -75 -130q-75 -45 -172 -45q-98 0 -195 45l37 88q34 -10 64 -20q71 -23 150 0q38 10 38 48q0 66 -94 66q-54 0 -86 -16l-37 61l149 183h40q-182 20 -275 134t-94 276q-2 304 162 503q75 90 174 139t208 49q449 0 449 -469z" />
    <glyph glyph-name="Odieresismacron" unicode="&#x22a;" horiz-adv-x="1554" 
d="M78 606q0 178 55 339q115 336 412 479q149 73 313 73q302 0 468 -183q165 -183 165 -464q0 -172 -54 -332q-112 -333 -404 -478q-146 -73 -328 -73q-301 0 -464 167t-163 472zM272 620q0 -351 241 -456q81 -35 209 -35q128 -1 239 63q220 126 297 398q38 130 38 246
q0 346 -236 459q-77 38 -205 38t-242 -64q-224 -127 -303 -399q-38 -130 -38 -250zM1087 1812h183l-43 -213h-183zM754 1812h182l-43 -213h-182zM780 2028h551l-22 -113h-553z" />
    <glyph glyph-name="odieresismacron" unicode="&#x22b;" horiz-adv-x="1175" 
d="M209 420q0 -131 74 -211t217 -80q177 0 292 173q50 75 75 163q26 87 26 157q0 215 -155 284q-52 24 -138 24t-162 -49q-148 -95 -204 -289q-25 -90 -25 -172zM35 434q0 112 40 234q83 250 303 360q110 55 249 55q215 1 327 -111t113 -327q0 -276 -160 -471t-426 -197
q-205 0 -327 124q-119 121 -119 333zM811 1403h182l-43 -213h-182zM477 1403h182l-43 -213h-182zM506 1614h551l-23 -113h-553z" />
    <glyph glyph-name="Otildemacron" unicode="&#x22c;" horiz-adv-x="1554" 
d="M78 606q0 178 55 339q115 336 412 479q149 73 313 73q302 0 468 -183q165 -183 165 -464q0 -172 -54 -332q-112 -333 -404 -478q-146 -73 -328 -73q-301 0 -464 167t-163 472zM272 620q0 -351 241 -456q81 -35 209 -35q128 -1 239 63q220 126 297 398q38 130 38 246
q0 346 -236 459q-77 38 -205 38t-242 -64q-224 -127 -303 -399q-38 -130 -38 -250zM846 1833q53 0 158 -51q40 -16 72 -32t59 -11q47 1 66 25t38 59h104q-32 -103 -63 -143q-62 -79 -145 -81q-48 0 -122 35q-75 35 -110 49t-57 11q-69 0 -96 -84h-107q31 97 62 138
q63 85 141 85zM788 2048h551l-22 -113h-553z" />
    <glyph glyph-name="otildemacron" unicode="&#x22d;" horiz-adv-x="1175" 
d="M209 420q0 -131 74 -211t217 -80q177 0 292 173q50 75 75 163q26 87 26 157q0 215 -155 284q-52 24 -138 24t-162 -49q-148 -95 -204 -289q-25 -90 -25 -172zM35 434q0 112 40 234q83 250 303 360q110 55 249 55q215 1 327 -111t113 -327q0 -276 -160 -471t-426 -197
q-205 0 -327 124q-119 121 -119 333zM858 1190q-50 0 -123 34q-75 34 -109 50q-34 14 -57 10q-67 0 -96 -84h-106q32 98 62 140q62 85 140 83q53 0 158 -51q39 -16 72 -32t59 -11q47 0 67 25q19 25 38 59h104q-31 -102 -63 -142q-65 -81 -146 -81zM512 1634h551l-23 -112
h-553z" />
    <glyph glyph-name="Odotaccent" unicode="&#x22e;" horiz-adv-x="1554" 
d="M78 606q0 178 55 339q115 336 412 479q149 73 313 73q302 0 468 -183q165 -183 165 -464q0 -172 -54 -332q-112 -333 -404 -478q-146 -73 -328 -73q-301 0 -464 167t-163 472zM272 620q0 -351 241 -456q81 -35 209 -35q128 -1 239 63q220 126 297 398q38 130 38 246
q0 346 -236 459q-77 38 -205 38t-242 -64q-224 -127 -303 -399q-38 -130 -38 -250zM920 1812h182l-43 -213h-182z" />
    <glyph glyph-name="odotaccent" unicode="&#x22f;" horiz-adv-x="1175" 
d="M209 420q0 -131 74 -211t217 -80q177 0 292 173q50 75 75 163q26 87 26 157q0 215 -155 284q-52 24 -138 24t-162 -49q-148 -95 -204 -289q-25 -90 -25 -172zM35 434q0 112 40 234q83 250 303 360q110 55 249 55q215 1 327 -111t113 -327q0 -276 -160 -471t-426 -197
q-205 0 -327 124q-119 121 -119 333zM643 1403h182l-43 -213h-182z" />
    <glyph glyph-name="Odotaccentmacron" unicode="&#x230;" horiz-adv-x="1554" 
d="M78 606q0 178 55 339q115 336 412 479q149 73 313 73q302 0 468 -183q165 -183 165 -464q0 -172 -54 -332q-112 -333 -404 -478q-146 -73 -328 -73q-301 0 -464 167t-163 472zM272 620q0 -351 241 -456q81 -35 209 -35q128 -1 239 63q220 126 297 398q38 130 38 246
q0 346 -236 459q-77 38 -205 38t-242 -64q-224 -127 -303 -399q-38 -130 -38 -250zM920 1812h182l-43 -213h-182zM780 2028h551l-22 -113h-553z" />
    <glyph glyph-name="odotaccentmacron" unicode="&#x231;" horiz-adv-x="1175" 
d="M209 420q0 -131 74 -211t217 -80q177 0 292 173q50 75 75 163q26 87 26 157q0 215 -155 284q-52 24 -138 24t-162 -49q-148 -95 -204 -289q-25 -90 -25 -172zM35 434q0 112 40 234q83 250 303 360q110 55 249 55q215 1 327 -111t113 -327q0 -276 -160 -471t-426 -197
q-205 0 -327 124q-119 121 -119 333zM643 1403h182l-43 -213h-182zM506 1614h551l-23 -113h-553z" />
    <glyph glyph-name="Ymacron" unicode="&#x232;" horiz-adv-x="1251" 
d="M520 588l-385 874h207l299 -708l555 708h225l-708 -874l-127 -588h-191zM559 1677h551l-23 -112h-552z" />
    <glyph glyph-name="ymacron" unicode="&#x233;" horiz-adv-x="985" 
d="M7 -289q54 0 91 32t68 83l106 174l-186 1059h186l123 -842h4l445 842h190l-700 -1237q-84 -129 -130 -170q-90 -80 -210 -80q-71 0 -121 27l31 141q49 -29 103 -29zM383 1278h551l-23 -113h-553z" />
    <glyph glyph-name="uni0237" unicode="&#x237;" horiz-adv-x="454" 
d="M-71.5 -215q22.5 35 53.5 164l229 1110h174l-266 -1256q-48 -206 -248 -206q-72 0 -115 12l31 153q48 -12 84 -12q35 0 57.5 35z" />
    <glyph glyph-name="uni0254" unicode="&#x254;" horiz-adv-x="1099" 
d="M106 715q96 368 499 368q202 0 311.5 -118.5t109.5 -335.5q0 -268 -157 -460t-429 -192q-180 0 -285.5 87.5t-111.5 273.5h174q0 -98 59.5 -152.5t161.5 -54.5q190 0 302 153.5t112 354.5t-94 247t-188 46t-173.5 -59.5t-115.5 -157.5h-175z" />
    <glyph glyph-name="uni0259" unicode="&#x259;" horiz-adv-x="1136" 
d="M459 131q142 0 233.5 83t130.5 216h-614q-15 -200 80.5 -249.5t169.5 -49.5zM580 932q-229 0 -306 -203h-174q39 171 171 262.5t286 91.5t241 -39.5t158.5 -127t71.5 -248.5t-44 -286.5t-118.5 -215.5t-174 -139.5t-208.5 -49.5q-448 0 -448 469q0 46 16 138h797
q6 45 6 99q0 115 -83 182t-191 67z" />
    <glyph glyph-name="uni026F" unicode="&#x26f;" horiz-adv-x="1744" 
d="M915 0q-224 0 -266 190q-61 -86 -158.5 -138t-210.5 -52t-200.5 57t-87.5 181q0 81 31 211l133 634h174l-148 -671q-16 -67 -16 -121q0 -55 46 -96t100 -41q85 0 158.5 41t123.5 104q43 47 63.5 108.5t34.5 129.5l117 546h174l-127 -604q-33 -144 -33 -198t38 -90.5
t109.5 -36.5t142.5 41t118 94q55 53 75.5 107.5t36.5 131.5l119 555h172l-223 -1058h-162l39 157l-4 4q-68 -86 -163 -136t-206 -50z" />
    <glyph glyph-name="uni0279" unicode="&#x279;" horiz-adv-x="681" 
d="M53 4q-16 0 -30.5 -2t-30.5 2l41 186q8 -2 26 -2h25q67 0 122 14q54 14 110.5 59.5t101.5 114.5t84 242l100 469h172l-219 -1058h-164l51 227h-4q-61 -109 -156.5 -180.5t-228.5 -71.5z" />
    <glyph glyph-name="uni028C" unicode="&#x28c;" horiz-adv-x="985" 
d="M860 1059l152 -1059h-185l-90 881h-4l-459 -881h-188l588 1059h186z" />
    <glyph glyph-name="uni028D" unicode="&#x28d;" horiz-adv-x="1554" 
d="M815 1059l53 -823h4l379 823h185l125 -1059h-185l-65 842h-4l-381 -842h-197l-51 842h-4l-402 -842h-188l547 1059h184z" />
    <glyph glyph-name="uni02BB" unicode="&#x2bb;" horiz-adv-x="569" 
d="M227 934q20 86 36 176t67.5 212.5t236.5 139.5l-20 -98q-103 -15 -126.5 -91.5t-31.5 -111.5h115l-49 -227h-228z" />
    <glyph glyph-name="afii57929" unicode="&#x2bc;" horiz-adv-x="569" 
d="M559 1462q-20 -86 -35.5 -176t-47.5 -164.5t-90 -127t-167 -60.5l21 98q101 15 124 91.5t33 111.5h-114l49 227h227z" />
    <glyph glyph-name="circumflex" unicode="&#x2c6;" horiz-adv-x="454" 
d="M334 1497h176l154 -293h-152l-104 191l-179 -191h-168z" />
    <glyph glyph-name="caron" unicode="&#x2c7;" horiz-adv-x="454" 
d="M467 1204h-176l-158 293h156l104 -190l191 190h159z" />
    <glyph glyph-name="uni02C9" unicode="&#x2c9;" horiz-adv-x="454" 
d="M684 1382l-22 -112h-553l24 112h551z" />
    <glyph glyph-name="uni02CA" unicode="&#x2ca;" horiz-adv-x="454" 
d="M702 1497l-278 -293h-143l190 293h231z" />
    <glyph glyph-name="uni02CB" unicode="&#x2cb;" horiz-adv-x="454" 
d="M362 1204l-206 293h206l138 -293h-138z" />
    <glyph glyph-name="breve" unicode="&#x2d8;" horiz-adv-x="454" 
d="M399 1325q96 0 151.5 40t84.5 132h92q-18 -137 -111.5 -211t-229.5 -74t-208 72t-67 213h92q2 -94 51 -133t145 -39z" />
    <glyph glyph-name="dotaccent" unicode="&#x2d9;" horiz-adv-x="454" 
d="M324 1425h182l-43 -213h-182z" />
    <glyph glyph-name="ring" unicode="&#x2da;" horiz-adv-x="454" 
d="M268 1355.5q0 -59.5 40 -99t99.5 -39.5t99.5 39.5t40 99t-40 99.5t-99.5 40t-99.5 -40t-40 -99.5zM176 1356q0 47 18.5 89t50 73.5t73.5 50t89.5 18.5t89.5 -18.5t73.5 -50t50 -73.5t18.5 -89t-18.5 -89t-50 -74t-73.5 -50.5t-89.5 -18.5t-89.5 18.5t-73.5 50.5t-50 74
t-18.5 89z" />
    <glyph glyph-name="ogonek" unicode="&#x2db;" horiz-adv-x="454" 
d="M-53 -283q0 130 258 287h137q-70 -35 -164 -118t-94 -136q0 -76 78 -76t145 50l76 -25q-103 -127 -231 -127q-102 0 -153.5 33t-51.5 112z" />
    <glyph glyph-name="tilde" unicode="&#x2dc;" horiz-adv-x="454" 
d="M47 1223q72 223 201 223q43 0 82 -16.5t78 -33.5t71.5 -32.5t59.5 -11.5q47 0 66.5 24.5t37.5 59.5h105q-30 -99 -78 -161.5t-131 -62.5q-46 0 -121.5 35t-110.5 49.5t-57 10.5q-66 0 -96 -84h-107z" />
    <glyph glyph-name="hungarumlaut" unicode="&#x2dd;" horiz-adv-x="454" 
d="M217 1497h232l-279 -293h-143zM557 1497h231l-278 -293h-143z" />
    <glyph glyph-name="uni02EE" unicode="&#x2ee;" horiz-adv-x="872" 
d="M287 1462h227q-20 -86 -36 -176t-47 -165q-32 -75 -90 -127t-167 -60l21 98q75 11 110 73q20 34 47 130h-114zM659 1462h228q-19 -86 -35 -176t-48 -165t-90 -127t-167 -60l20 98q76 11 111 73q20 34 47 130h-115z" />
    <glyph glyph-name="gravecmb" unicode="&#x300;" horiz-adv-x="0" 
d="M-553 1204l-207 293h207l137 -293h-137z" />
    <glyph glyph-name="acutecmb" unicode="&#x301;" horiz-adv-x="0" 
d="M-377 1497l-278 -293h-144l191 293h231z" />
    <glyph glyph-name="circumflexcmb" unicode="&#x302;" horiz-adv-x="0" 
d="M-440 1497l153 -293h-151l-105 191l-178 -191h-168l273 293h176z" />
    <glyph glyph-name="tildecmb" unicode="&#x303;" horiz-adv-x="0" 
d="M-938 1223q72 223 201 223q43 0 82 -16.5t77 -33.5t71.5 -32.5t60.5 -11.5q47 0 66.5 24.5t37.5 59.5h104q-31 -101 -78 -162.5t-130 -61.5q-46 0 -121.5 35t-110.5 49.5t-57 10.5q-66 0 -96 -84h-107z" />
    <glyph glyph-name="macroncmb" unicode="&#x304;" horiz-adv-x="0" 
d="M-299 1382l-23 -112h-552l24 112h551z" />
    <glyph glyph-name="brevecmb" unicode="&#x306;" horiz-adv-x="0" 
d="M-604 1325q96 0 151.5 40t83.5 132h93q-18 -137 -111.5 -211t-229.5 -74t-208 72t-68 213h92q2 -94 51.5 -133t145.5 -39z" />
    <glyph glyph-name="dotaccentcmb" unicode="&#x307;" horiz-adv-x="0" 
d="M-475 1425l-43 -213h-182l43 213h182z" />
    <glyph glyph-name="dieresiscmb" unicode="&#x308;" horiz-adv-x="0" 
d="M-307 1425l-43 -213h-182l43 213h182zM-641 1425l-43 -213h-182l43 213h182z" />
    <glyph glyph-name="hookcmb" unicode="&#x309;" horiz-adv-x="0" 
d="M-312 1540q-24 0 -65 -6l12 80q23 2 44 4t57 2q101 0 139 -80q24 -47 -10 -120t-146 -95l-12 -43h-88l16 76q61 6 112 44t32 88t-91 50z" />
    <glyph glyph-name="ringcmb" unicode="&#x30a;" horiz-adv-x="0" 
d="M-727 1355.5q0 -59.5 40 -99t99.5 -39.5t99 39.5t39.5 99t-39.5 99.5t-99 40t-99.5 -40t-40 -99.5zM-819 1356q0 47 18.5 89t50 73.5t73.5 50t89 18.5t89 -18.5t74 -50t50.5 -73.5t18.5 -89t-18.5 -89t-50.5 -74t-74 -50.5t-89 -18.5t-89 18.5t-73.5 50.5t-50 74
t-18.5 89z" />
    <glyph glyph-name="hungarumlautcmb" unicode="&#x30b;" horiz-adv-x="0" 
d="M-547 1497l-278 -293h-144l191 293h231zM-207 1497l-278 -293h-144l191 293h231z" />
    <glyph glyph-name="caroncmb" unicode="&#x30c;" horiz-adv-x="0" 
d="M-735 1204l-158 293h156l104 -190l191 190h159l-276 -293h-176z" />
    <glyph glyph-name="uni030F" unicode="&#x30f;" horiz-adv-x="0" 
d="M-758 1204l-207 293h207l137 -293h-137zM-348 1204l-207 293h207l137 -293h-137z" />
    <glyph glyph-name="uni0311" unicode="&#x311;" horiz-adv-x="0" 
d="M-569 1384q-96 0 -151.5 -39.5t-84.5 -132.5h-92q18 137 111.5 211t229.5 74t208 -71.5t67 -213.5h-92q-2 94 -51 133t-145 39z" />
    <glyph glyph-name="uni0312" unicode="&#x312;" horiz-adv-x="0" 
d="M-758 934q20 86 35.5 176t67.5 212.5t237 139.5l-20 -98q-103 -15 -126.5 -91.5t-31.5 -111.5h115l-49 -227h-228z" />
    <glyph glyph-name="uni0313" unicode="&#x313;" horiz-adv-x="0" 
d="M-418 1462q-20 -86 -35.5 -176t-47 -164.5t-90 -127t-167.5 -60.5l21 98q101 15 124 91.5t33 111.5h-114l49 227h227z" />
    <glyph glyph-name="uni0316" unicode="&#x316;" horiz-adv-x="0" 
d="M-553 -496l-207 293h207l137 -293h-137z" />
    <glyph glyph-name="uni0317" unicode="&#x317;" horiz-adv-x="0" 
d="M-377 -203l-278 -293h-144l191 293h231z" />
    <glyph glyph-name="horncmb" unicode="&#x31b;" horiz-adv-x="0" 
d="M-547 1133q27 -59 119 -43q48 4 72 13t30.5 11t12.5 8l-21 101l219 84l39 -199l-203 -78q-119 -45 -219 -40t-110 44z" />
    <glyph glyph-name="dotbelowcomb" unicode="&#x323;" horiz-adv-x="0" 
d="M-475 -274l-43 -213h-182l43 213h182z" />
    <glyph glyph-name="uni0324" unicode="&#x324;" horiz-adv-x="0" 
d="M-307 -274l-43 -213h-182l43 213h182zM-641 -274l-43 -213h-182l43 213h182z" />
    <glyph glyph-name="uni0325" unicode="&#x325;" horiz-adv-x="0" 
d="M-727 -344q0 -59 40 -99t99.5 -40t99 40t39.5 99t-39.5 99t-99 40t-99.5 -40t-40 -99zM-819 -344q0 47 18.5 89t50 73.5t73.5 50t89 18.5t89 -18.5t74 -50t50.5 -73.5t18.5 -89t-18.5 -89t-50.5 -74t-74 -50t-89 -18t-89 18t-73.5 50t-50 74t-18.5 89z" />
    <glyph glyph-name="uni0326" unicode="&#x326;" horiz-adv-x="0" 
d="M-418 -238q-20 -86 -35.5 -176t-47 -164.5t-90 -127t-167.5 -60.5l21 98q101 15 124 91.5t33 111.5h-114l49 227h227z" />
    <glyph glyph-name="cedillacmb" unicode="&#x327;" horiz-adv-x="0" 
d="M-421 -136.5q54 -38.5 54 -119.5t-74.5 -126.5t-172.5 -45.5t-195 45l37 88q33 -10 63.5 -20.5t71.5 -10.5t79 10.5t38 48.5q0 66 -94 66q-54 0 -86 -16l-37 61l149 183h96l-118 -133h4q20 8 76 8q55 0 109 -38.5z" />
    <glyph glyph-name="ogonekcmb" unicode="&#x328;" horiz-adv-x="0" 
d="M-369 -301q-103 -127 -231 -127q-102 0 -153.5 33t-51.5 112q0 130 258 287h137q-70 -35 -164 -118t-94 -136q0 -76 79 -76t145 50z" />
    <glyph glyph-name="uni032C" unicode="&#x32c;" horiz-adv-x="0" 
d="M-735 -496l-158 293h156l104 -190l191 190h159l-276 -293h-176z" />
    <glyph glyph-name="uni032D" unicode="&#x32d;" horiz-adv-x="0" 
d="M-440 -203l153 -293h-151l-105 191l-178 -191h-168l273 293h176z" />
    <glyph glyph-name="uni032E" unicode="&#x32e;" horiz-adv-x="0" 
d="M-604 -375q96 0 151.5 40t83.5 132h93q-18 -137 -111.5 -210.5t-229.5 -73.5t-208 71.5t-68 212.5h92q2 -94 51.5 -133t145.5 -39z" />
    <glyph glyph-name="uni032F" unicode="&#x32f;" horiz-adv-x="0" 
d="M-569 -315q-96 0 -151.5 -40t-84.5 -132h-92q18 137 111.5 210.5t229.5 73.5t208 -71.5t67 -212.5h-92q-2 94 -51 133t-145 39z" />
    <glyph glyph-name="uni0330" unicode="&#x330;" horiz-adv-x="0" 
d="M-938 -477q72 223 201 223q43 0 82 -16.5t77 -33.5t71.5 -32.5t60.5 -11.5q47 0 66.5 24.5t37.5 59.5h104q-31 -101 -78.5 -162t-129.5 -61q-48 0 -122.5 34.5t-109.5 49t-57 10.5q-67 0 -96 -84h-107z" />
    <glyph glyph-name="uni0331" unicode="&#x331;" horiz-adv-x="0" 
d="M-299 -317l-23 -113h-552l24 113h551z" />
    <glyph glyph-name="soliduslongoverlaycmb" unicode="&#x338;" horiz-adv-x="0" 
d="M-211 1497l-606 -1530h-148l605 1530h149z" />
    <glyph glyph-name="gravetonecmb" unicode="&#x340;" horiz-adv-x="0" 
d="M-553 1204l-207 293h207l137 -293h-137z" />
    <glyph glyph-name="acutetonecmb" unicode="&#x341;" horiz-adv-x="0" 
d="M-377 1497l-278 -293h-144l191 293h231z" />
    <glyph glyph-name="uni034F" unicode="&#x34f;" horiz-adv-x="0" 
 />
    <glyph glyph-name="Omegagreek" unicode="&#x3a9;" horiz-adv-x="1540" 
d="M131 727q0 154 60.5 291t165 238.5t242 161t275.5 59.5q266 0 431 -151.5t165 -397.5t-138.5 -425.5t-375.5 -219.5l-28 -129h393l-33 -154h-536l82 393q201 32 323.5 177.5t122.5 340.5t-108.5 301.5t-290.5 106.5q-119 0 -221.5 -48t-177 -129t-116.5 -187.5
t-42 -195.5q0 -162 69.5 -256.5t194.5 -109.5l-82 -393h-520l32 154h371l31 139q-210 67 -249.5 213.5t-39.5 220.5z" />
    <glyph glyph-name="pi" unicode="&#x3c0;" horiz-adv-x="1273" 
d="M1020 135q46 0 92 23l-29 -133q-89 -39 -169 -39t-111 34.5t-31 91.5t19 130l139 663h-477l-191 -905h-174l191 905h-144l33 154h1126l-32 -154h-158l-135 -643q-10 -41 -11 -69q0 -58 62 -58z" />
    <glyph glyph-name="uni0400" unicode="&#x400;" horiz-adv-x="1251" 
d="M782 1546l-207 293h207l138 -293h-138zM324 1462h1007l-33 -164h-813l-98 -464h758l-33 -164h-760l-106 -506h823l-37 -164h-1018z" />
    <glyph glyph-name="afii10023" unicode="&#x401;" horiz-adv-x="1251" 
d="M1137 1767l-43 -213h-183l43 213h183zM803 1767l-43 -213h-182l43 213h182zM324 1462h1007l-33 -164h-813l-98 -464h758l-33 -164h-760l-106 -506h823l-37 -164h-1018z" />
    <glyph glyph-name="afii10051" unicode="&#x402;" horiz-adv-x="1536" 
d="M838 154q193 0 290 101t97 280q0 119 -70 184t-160 65q-166 0 -287 -105.5t-157 -287.5l-82 -391h-195l275 1298h-424l35 164h1167l-35 -164h-549l-110 -520h4q60 78 171 123t214 45q191 0 296 -108.5t105 -282.5q0 -257 -158.5 -414t-416.5 -157q-82 0 -123 6l37 168
q32 -4 76 -4z" />
    <glyph glyph-name="afii10052" unicode="&#x403;" horiz-adv-x="1126" 
d="M1081 1839l-278 -293h-144l191 293h231zM326 1462h940l-35 -164h-746l-274 -1298h-195z" />
    <glyph glyph-name="afii10053" unicode="&#x404;" horiz-adv-x="1470" 
d="M688 -33q-286 0 -448 166t-162 473q0 178 55 339t158.5 284t252 195.5t361.5 72.5t363 -118t168 -343h-195q-14 152 -112.5 226.5t-233.5 74.5q-241 0 -390.5 -141.5t-209.5 -364.5h682l-35 -161h-672q-2 -16 -2 -20v-44q0 -218 109.5 -347.5t306.5 -129.5q375 0 473 365
h195q-55 -246 -216.5 -386.5t-447.5 -140.5z" />
    <glyph glyph-name="afii10054" unicode="&#x405;" horiz-adv-x="1327" 
d="M225 479q-14 -350 378 -350q161 0 269.5 70.5t108.5 213.5t-103.5 183.5t-156.5 54.5l-199 54q-327 89 -327 368q0 196 158.5 310t381.5 114t377 -118t145 -349h-194q6 244 -127.5 273.5t-197.5 29.5q-139 0 -244 -61t-105 -178q0 -143 94.5 -182.5t143.5 -53.5l196 -53
q160 -42 256.5 -129t96.5 -266q0 -211 -174 -327t-412 -116q-114 0 -225 30t-233 127.5t-101 354.5h194z" />
    <glyph glyph-name="afii10055" unicode="&#x406;" horiz-adv-x="530" 
d="M322 1462h194l-307 -1462h-195z" />
    <glyph glyph-name="afii10056" unicode="&#x407;" horiz-adv-x="530" 
d="M733 1767l-43 -213h-182l43 213h182zM399 1767l-43 -213h-182l43 213h182zM322 1462h194l-307 -1462h-195z" />
    <glyph glyph-name="afii10057" unicode="&#x408;" horiz-adv-x="1062" 
d="M391 129q188 0 227 136t52 196l213 1001h192l-231 -1102q-41 -199 -144 -296t-313 -97q-284 0 -343.5 116t-59.5 197t16 199h197q-17 -80 -21 -151q0 -199 215 -199z" />
    <glyph glyph-name="afii10058" unicode="&#x409;" horiz-adv-x="2246" 
d="M1561 162q168 0 270 72.5t102 234.5q0 215 -151.5 225.5t-216.5 10.5h-293l-115 -543h404zM6 -20q-116 0 -182 20l35 164q45 -12 107 -12t139 39.5t177 354.5q124 390 234 916h918l-127 -596h356q238 0 351.5 -101t113.5 -295t-137.5 -332t-388.5 -138h-672l274 1298
h-538q-203 -965 -354.5 -1141.5t-305.5 -176.5z" />
    <glyph glyph-name="afii10059" unicode="&#x40a;" horiz-adv-x="2287" 
d="M1602 162q372 0 372 301q0 155 -86 188t-151.5 36t-130.5 3h-293l-115 -528h404zM1704 854q238 0 351.5 -98.5t113.5 -292.5t-137 -328.5t-390 -134.5h-669l145 690h-766l-145 -690h-195l307 1462h197l-129 -608h766l127 608h195l-127 -608h356z" />
    <glyph glyph-name="afii10060" unicode="&#x40b;" horiz-adv-x="1536" 
d="M1036 946q86 0 167 -27.5t142.5 -89t61.5 -198.5q0 -64 -14 -129l-107 -502h-194l102 489q16 72 16 111q0 180 -239 180q-130 0 -211.5 -22.5t-138.5 -36.5l-152 -721h-195l275 1298h-424l35 164h1167l-35 -164h-549l-88 -415q31 8 71 19t85 20.5t92 16.5t133 7z" />
    <glyph glyph-name="afii10061" unicode="&#x40c;" horiz-adv-x="1366" 
d="M1118 1839l-278 -293h-144l191 293h231zM324 1462h194l-153 -721l4 -4l827 725h260l-704 -602l469 -860h-215l-400 741l-293 -247l-104 -494h-195z" />
    <glyph glyph-name="uni040D" unicode="&#x40d;" horiz-adv-x="1495" 
d="M844 1546l-207 293h207l137 -293h-137zM322 1462h194l-260 -1233l979 1233h256l-309 -1462h-195l262 1237l-983 -1237h-254z" />
    <glyph glyph-name="afii10062" unicode="&#x40e;" horiz-adv-x="1251" 
d="M1000 1629q-91 -77 -212 -77t-198.5 79.5t-69.5 203.5h105q16 -145 166 -145q90 0 140 35.5t91 109.5h104q-35 -129 -126 -206zM294.5 191.5q60.5 50.5 137.5 154.5l37 51l-303 1065h201l235 -882l598 882h217l-805 -1149q-186 -265 -295.5 -300.5t-185.5 -35.5t-151 25
l32 160q66 -21 144 -21t138.5 50.5z" />
    <glyph glyph-name="afii10145" unicode="&#x40f;" horiz-adv-x="1458" 
d="M487 0h-475l310 1462h194l-274 -1298h743l275 1298h194l-309 -1462h-465l-78 -362h-192z" />
    <glyph glyph-name="afii10017" unicode="&#x410;" horiz-adv-x="1366" 
d="M952 604l-108 686h-4l-391 -686h503zM768 1462h213l264 -1462h-201l-67 440h-617l-256 -440h-215z" />
    <glyph glyph-name="afii10018" unicode="&#x411;" horiz-adv-x="1382" 
d="M678 164q269 0 321 112.5t52 195.5q0 151 -96.5 192t-272.5 41h-326l-114 -541h436zM780 866q238 0 351.5 -101t113.5 -297t-136 -332t-386 -136h-711l312 1462h987l-35 -164h-795l-90 -432h389z" />
    <glyph glyph-name="afii10019" unicode="&#x412;" horiz-adv-x="1402" 
d="M809 834q311 0 311 278q0 162 -120.5 174t-165.5 12h-361l-98 -464h434zM707 164q128 0 199 37t113 94t42 143t-24.5 128t-82.5 73t-194 31h-418l-106 -506h471zM907 1462q408 0 408 -350q0 -126 -77.5 -229.5t-201.5 -122.5v-4q100 -29 159.5 -108t59.5 -189
q0 -214 -148.5 -336.5t-369.5 -122.5h-723l305 1462h588z" />
    <glyph glyph-name="afii10020" unicode="&#x413;" horiz-adv-x="1126" 
d="M326 1462h940l-35 -164h-746l-274 -1298h-195z" />
    <glyph glyph-name="afii10021" unicode="&#x414;" horiz-adv-x="1492" 
d="M985 164l240 1134h-551l-53 -241q-66 -303 -162.5 -530.5t-198.5 -362.5h725zM-96 164h139q117 150 226.5 395.5t181.5 581.5l69 321h934l-274 -1298h161l-112 -526h-187l78 362h-1065l-78 -362h-184z" />
    <glyph glyph-name="afii10022" unicode="&#x415;" horiz-adv-x="1251" 
d="M324 1462h1007l-33 -164h-813l-98 -464h758l-33 -164h-760l-106 -506h823l-37 -164h-1018z" />
    <glyph glyph-name="afii10024" unicode="&#x416;" horiz-adv-x="2070" 
d="M664 872l-443 590h223l500 -686l143 686h193l-139 -665l762 665h258l-711 -608l467 -854h-219l-389 733l-224 -188l-114 -545h-193l119 559l-129 174l-684 -733h-252z" />
    <glyph glyph-name="afii10025" unicode="&#x417;" horiz-adv-x="1331" 
d="M1008 479q0 207 -319 207q-104 0 -148 -4l32 160q25 -4 34 -4h85q249 0 303 112.5t54 194.5q0 192 -283 192q-162 0 -266.5 -67.5t-137.5 -231.5h-186q34 234 200 346.5t396 112.5q229 0 350 -94t121 -248t-84.5 -251.5t-206.5 -125.5v-6q125 -25 185.5 -109.5
t60.5 -195.5t-50 -204t-180 -194.5t-386 -101.5t-400.5 123t-144.5 342q0 21 4 49h184l-2 -30q0 -166 92.5 -246t269.5 -80t300 96t123 258z" />
    <glyph glyph-name="afii10026" unicode="&#x418;" horiz-adv-x="1495" 
d="M322 1462h194l-260 -1233l979 1233h256l-309 -1462h-195l262 1237l-983 -1237h-254z" />
    <glyph glyph-name="afii10027" unicode="&#x419;" horiz-adv-x="1495" 
d="M1121 1629q-91 -77 -213 -77t-198.5 80t-68.5 203h104q16 -145 166 -145q90 0 140.5 35.5t91.5 109.5h104q-35 -129 -126 -206zM12 0l310 1462h194l-260 -1233l979 1233h256l-309 -1462h-195l262 1237l-983 -1237h-254z" />
    <glyph glyph-name="afii10028" unicode="&#x41a;" horiz-adv-x="1366" 
d="M324 1462h194l-153 -721l4 -4l827 725h260l-704 -602l469 -860h-215l-400 741l-293 -247l-104 -494h-195z" />
    <glyph glyph-name="afii10029" unicode="&#x41b;" horiz-adv-x="1439" 
d="M6 -20q-116 0 -182 20l35 164q45 -12 107 -12t139 39.5t177 354.5q124 390 234 916h918l-310 -1462h-194l274 1298h-538q-203 -965 -354.5 -1141.5t-305.5 -176.5z" />
    <glyph glyph-name="afii10030" unicode="&#x41c;" horiz-adv-x="1781" 
d="M322 1462h270l194 -1257h5l722 1257h271l-309 -1462h-187l299 1280h-4l-745 -1280h-187l-190 1280h-4l-256 -1280h-187z" />
    <glyph glyph-name="afii10031" unicode="&#x41d;" horiz-adv-x="1478" 
d="M319 1462h197l-133 -628h766l131 628h195l-308 -1462h-194l141 670h-766l-141 -670h-195z" />
    <glyph glyph-name="afii10032" unicode="&#x41e;" horiz-adv-x="1554" 
d="M722 129q128 0 238.5 63.5t223 217.5t112.5 440q0 214 -110.5 348.5t-304.5 134.5q-285 0 -409 -167t-162 -298.5t-38 -249.5t27 -206t80 -150.5t134 -97.5t209 -35zM705 -33q-303 0 -465 166t-162 473q0 178 55 339t158.5 284t252 195.5t313.5 72.5q301 0 467.5 -183.5
t166.5 -463.5q0 -172 -54.5 -332t-155.5 -282.5t-247.5 -195.5t-328.5 -73z" />
    <glyph glyph-name="afii10033" unicode="&#x41f;" horiz-adv-x="1458" 
d="M322 1462h1132l-309 -1462h-195l275 1298h-744l-274 -1298h-195z" />
    <glyph glyph-name="afii10034" unicode="&#x420;" horiz-adv-x="1327" 
d="M811 762q160 0 242 83t82 214q0 239 -240 239h-412l-112 -536h440zM895 1462q434 0 434 -403q0 -68 -26.5 -149t-133.5 -196.5t-399 -115.5h-434l-127 -598h-195l305 1462h576z" />
    <glyph glyph-name="afii10035" unicode="&#x421;" horiz-adv-x="1478" 
d="M688 -33q-286 0 -448 166t-162 473q0 178 55 339t158.5 284t252 195.5t337.5 72.5q245 0 401 -130t156 -376h-195q0 172 -101.5 257t-257.5 85t-270 -64.5t-190 -167t-114 -234t-38 -249.5q0 -231 109.5 -360t306.5 -129t309.5 95t159.5 270h195q-55 -246 -216.5 -386.5
t-447.5 -140.5z" />
    <glyph glyph-name="afii10036" unicode="&#x422;" horiz-adv-x="1175" 
d="M614 1298h-491l35 164h1179l-37 -164h-491l-274 -1298h-195z" />
    <glyph glyph-name="afii10037" unicode="&#x423;" horiz-adv-x="1251" 
d="M294.5 191.5q60.5 50.5 137.5 154.5l37 51l-303 1065h201l235 -882l598 882h217l-805 -1149q-186 -265 -295.5 -300.5t-185.5 -35.5t-151 25l32 160q66 -21 144 -21t138.5 50.5z" />
    <glyph glyph-name="afii10038" unicode="&#x424;" horiz-adv-x="1699" 
d="M1454 819q0 158 -100.5 259.5t-302.5 113.5l-193 -891q265 0 430.5 143.5t165.5 374.5zM262 674q0 -158 100.5 -259.5t303.5 -113.5l192 891q-265 0 -430.5 -143.5t-165.5 -374.5zM66 694q0 134 63.5 257.5t234 261t527.5 137.5l31 147h192l-31 -147
q265 -12 416.5 -157.5t151.5 -373.5q0 -299 -234 -487.5t-592 -188.5l-37 -176h-192l37 176q-265 12 -416 157t-151 394z" />
    <glyph glyph-name="afii10039" unicode="&#x425;" horiz-adv-x="1251" 
d="M545 764l-352 698h208l271 -577l469 577h219l-602 -725l370 -737h-200l-295 618l-500 -618h-221z" />
    <glyph glyph-name="afii10040" unicode="&#x426;" horiz-adv-x="1474" 
d="M1098 0h-1086l310 1462h194l-274 -1298h725l274 1298h195l-275 -1298h158l-113 -526h-186z" />
    <glyph glyph-name="afii10041" unicode="&#x427;" horiz-adv-x="1347" 
d="M579 571q-238 0 -336 98.5t-98 241.5q0 30 13 105l96 446h192l-94 -430q-10 -47 -10 -90q0 -207 263 -207q144 0 239.5 21.5t154.5 34.5l144 671h192l-309 -1462h-192l131 623q-251 -52 -386 -52z" />
    <glyph glyph-name="afii10042" unicode="&#x428;" horiz-adv-x="2152" 
d="M322 1462h194l-274 -1298h620l275 1298h194l-274 -1298h620l275 1298h194l-309 -1462h-1825z" />
    <glyph glyph-name="afii10043" unicode="&#x429;" horiz-adv-x="2185" 
d="M1815 0h-1803l310 1462h194l-274 -1298h620l275 1298h194l-274 -1298h620l275 1298h194l-274 -1298h166l-113 -526h-188z" />
    <glyph glyph-name="afii10044" unicode="&#x42a;" horiz-adv-x="1576" 
d="M891 162q168 0 270.5 72.5t102.5 234.5q0 215 -151.5 225.5t-217.5 10.5h-293l-115 -543h404zM993 866q238 0 351.5 -101t113.5 -296t-137 -332t-389 -137h-674l277 1298h-412l35 164h606l-127 -596h356z" />
    <glyph glyph-name="afii10045" unicode="&#x42b;" horiz-adv-x="1785" 
d="M1587 1462h195l-309 -1462h-195zM614 162q168 0 270.5 72.5t102.5 234.5q0 215 -151.5 225.5t-217.5 10.5h-262l-114 -543h372zM717 866q238 0 351.5 -101t113.5 -295t-137.5 -332t-389.5 -138h-643l312 1462h194l-127 -596h326z" />
    <glyph glyph-name="afii10046" unicode="&#x42c;" horiz-adv-x="1337" 
d="M651 162q168 0 270.5 72.5t102.5 234.5q0 215 -151.5 225.5t-217.5 10.5h-293l-114 -543h403zM754 866q238 0 351.5 -101t113.5 -295t-137.5 -332t-389.5 -138h-674l312 1462h194l-127 -596h357z" />
    <glyph glyph-name="afii10047" unicode="&#x42d;" horiz-adv-x="1470" 
d="M778 1337q-322 0 -432 -299h-199q66 217 221.5 339t409.5 122q303 0 465 -166t162 -473q0 -178 -55.5 -339t-159 -283.5t-253 -195.5t-335.5 -73q-244 0 -400.5 130.5t-156.5 375.5h195q0 -172 101 -257t243 -85q254 0 405 151.5t201 385.5h-690l35 161h675v29
q0 340 -160.5 408.5t-271.5 68.5z" />
    <glyph glyph-name="afii10048" unicode="&#x42e;" horiz-adv-x="2068" 
d="M1258 129q128 0 234.5 63.5t212 216t105.5 441.5q0 214 -102.5 348.5t-296.5 134.5q-284 0 -432 -215t-148 -512q0 -342 149.5 -409.5t277.5 -67.5zM1241 -33q-303 0 -453.5 166t-150.5 473v24q0 23 2 40h-291l-141 -670h-195l307 1462h197l-133 -628h276
q65 292 265 477.5t484 185.5t440.5 -182.5t156.5 -464.5q0 -172 -52 -332t-150.5 -282.5t-241 -195.5t-320.5 -73z" />
    <glyph glyph-name="afii10049" unicode="&#x42f;" horiz-adv-x="1374" 
d="M754 1298q-168 0 -272.5 -70.5t-104.5 -219.5q0 -214 152.5 -228t218.5 -14h282l113 532h-389zM186 972q0 223 135.5 356.5t391.5 133.5h657l-309 -1462h-193l129 604h-295l-602 -604h-252l633 621q-150 33 -222.5 134t-72.5 217z" />
    <glyph glyph-name="afii10065" unicode="&#x430;" horiz-adv-x="1062" 
d="M344 129q203 0 297 139q41 61 57.5 130t34.5 143h-4q-37 -27 -94 -38t-120.5 -18.5t-212 -23.5t-148.5 -185q0 -74 58 -110.5t132 -36.5zM657 129q-113 -152 -321 -152q-102 0 -159.5 15.5t-126 73t-68.5 191.5t50 199.5t128 99.5t172 46t173 20q168 16 221.5 42.5
t53.5 114.5t-63 119.5t-131 31.5q-129 0 -208.5 -48t-94.5 -143h-174q23 166 150.5 255t307.5 89q387 0 387 -270q0 -54 -32 -192l-68 -289q-8 -33 -18.5 -74t-10.5 -92t52 -51q13 0 55 14l-27 -129q-58 -23 -118 -23t-97 39t-28 109z" />
    <glyph glyph-name="afii10066" unicode="&#x431;" horiz-adv-x="1175" 
d="M498 127q159 0 276 144t117 362q0 139 -69.5 214t-181.5 75q-197 0 -305 -156.5t-108 -351.5q0 -145 71 -216t200 -71zM53 410q0 131 34 281.5t104.5 362.5t242.5 287.5t317 84.5t194.5 21t70.5 50h176q-33 -137 -123 -171t-171 -43t-187 -17q-176 -14 -285 -123
t-172 -299h6q57 97 171 158t222 61q190 0 301 -106.5t111 -315.5q0 -274 -160 -469t-426 -195q-207 0 -316.5 110t-109.5 323z" />
    <glyph glyph-name="afii10067" unicode="&#x432;" horiz-adv-x="1085" 
d="M618 625q82 0 140.5 41t58.5 133q0 107 -86 113t-119 6h-254l-65 -293h325zM512 141q123 0 191.5 50.5t68.5 146.5q0 147 -182 147h-326l-71 -344h319zM641 1059q161 0 225 -33t94.5 -82t30.5 -139t-52 -161t-148 -93q74 -23 114.5 -79t40.5 -139t-42 -163t-113 -119
t-147.5 -45t-168.5 -6h-483l223 1059h426z" />
    <glyph glyph-name="afii10068" unicode="&#x433;" horiz-adv-x="868" 
d="M221 1059h715l-33 -154h-541l-192 -905h-174z" />
    <glyph glyph-name="afii10069" unicode="&#x434;" horiz-adv-x="1206" 
d="M743 154l160 751h-422l-32 -155q-70 -305 -145 -432.5t-105 -163.5h544zM-106 154h114q89 116 160.5 262.5t114.5 349.5l61 293h766l-192 -905h143l-100 -476h-166l69 322h-835l-70 -322h-164z" />
    <glyph glyph-name="afii10070" unicode="&#x435;" horiz-adv-x="1099" 
d="M357 848.5q-90 -81.5 -132 -217.5h615q9 124 -52.5 211.5t-201.5 87.5q-139 0 -229 -81.5zM469 129q229 0 305 203h174q-39 -172 -171 -263.5t-287 -91.5q-154 0 -240 40t-158 127.5t-72 247.5q0 161 44.5 287t119 216t174 139t207.5 49q449 0 449 -469q0 -39 -17 -137
h-796q-6 -47 -6 -100q0 -113 82.5 -180.5t191.5 -67.5z" />
    <glyph glyph-name="afii10072" unicode="&#x436;" horiz-adv-x="1556" 
d="M422 639l-320 420h201l363 -488l104 488h174l-104 -484l546 484h228l-506 -441l336 -618h-201l-264 520l-182 -153l-78 -367h-174l82 383l-111 143l-473 -526h-223z" />
    <glyph glyph-name="afii10073" unicode="&#x437;" horiz-adv-x="1024" 
d="M756 807q0 139 -220 139q-104 0 -177.5 -45t-100.5 -166h-168q26 183 155.5 265.5t302.5 82.5q172 0 277 -71.5t105 -196.5q0 -88 -61.5 -152.5t-149.5 -95.5q78 -23 125 -85t47 -142t-39 -150.5t-136.5 -145.5t-291.5 -75t-311 96t-117 257v24h168v-12q0 -221 272 -221
q115 0 198 68.5t83 160.5t-67.5 121t-168.5 29h-39q-39 0 -71 -5l30 142q29 -4 35 -4h62q177 0 217.5 69.5t40.5 112.5z" />
    <glyph glyph-name="afii10074" unicode="&#x438;" horiz-adv-x="1159" 
d="M217 1059h174l-184 -864l674 864h233l-225 -1059h-174l182 864l-672 -864h-233z" />
    <glyph glyph-name="afii10075" unicode="&#x439;" horiz-adv-x="1159" 
d="M896 1286q-85 -72 -208 -72t-194.5 76.5t-63.5 196.5h105q15 -141 157 -141q141 0 219 141h105q-35 -129 -120 -201zM-8 0l225 1059h174l-184 -864l674 864h233l-225 -1059h-174l182 864l-672 -864h-233z" />
    <glyph glyph-name="afii10076" unicode="&#x43a;" horiz-adv-x="1024" 
d="M217 1059h174l-106 -496l573 496h236l-510 -426l342 -633h-201l-272 522l-213 -176l-74 -346h-174z" />
    <glyph glyph-name="afii10077" unicode="&#x43b;" horiz-adv-x="1153" 
d="M-12 133q70 0 110 47.5t64 111.5q87 225 196 767h744l-223 -1059h-174l190 905h-401q-98 -435 -137.5 -553.5t-72 -179.5t-94 -122.5t-198.5 -61.5q-79 0 -135 14l28 141q33 -10 103 -10z" />
    <glyph glyph-name="afii10078" unicode="&#x43c;" horiz-adv-x="1409" 
d="M217 1059h246l137 -858h4l506 858h254l-225 -1059h-174l178 840l-498 -840h-160l-141 840l-178 -840h-174z" />
    <glyph glyph-name="afii10079" unicode="&#x43d;" horiz-adv-x="1146" 
d="M217 1059h174l-90 -422h530l91 422h174l-226 -1059h-174l103 487h-531l-102 -487h-174z" />
    <glyph glyph-name="afii10080" unicode="&#x43e;" horiz-adv-x="1175" 
d="M500 129q175 0 284 162t109 340q0 206 -103.5 252.5t-189.5 46.5t-162 -49.5t-152.5 -161t-76.5 -299.5q0 -131 74 -211t217 -80zM498 -23q-223 0 -343 122.5t-120 318.5q0 273 162 469t430 196q217 0 328.5 -110.5t111.5 -327.5q0 -275 -114.5 -416t-223.5 -196.5
t-231 -55.5z" />
    <glyph glyph-name="afii10081" unicode="&#x43f;" horiz-adv-x="1126" 
d="M217 1059h858l-225 -1059h-174l192 905h-510l-192 -905h-174z" />
    <glyph glyph-name="afii10082" unicode="&#x440;" horiz-adv-x="1214" 
d="M500 129q205 0 318.5 161.5t113.5 358.5q0 129 -64.5 205t-208.5 76q-98 0 -175.5 -51.5t-130 -129t-80 -171.5t-27.5 -194t69 -177.5t185 -77.5zM687 1083q200 0 309.5 -117.5t109.5 -316.5q0 -256 -114.5 -404.5t-224.5 -208t-249 -59.5q-185 0 -250 66t-80 119h-4
l-112 -565h-170l307 1462h164l-37 -152h4q78 102 161 139t186 37z" />
    <glyph glyph-name="afii10083" unicode="&#x441;" horiz-adv-x="1099" 
d="M464 -23q-202 0 -311.5 119t-109.5 336q0 268 156.5 459.5t429.5 191.5q180 0 285.5 -87t111.5 -273h-174q0 98 -59.5 152.5t-161.5 54.5q-190 0 -302 -153.5t-112 -354.5t94.5 -247t187.5 -46t173 59.5t116 157.5h175q-47 -180 -172 -274.5t-327 -94.5z" />
    <glyph glyph-name="afii10084" unicode="&#x442;" horiz-adv-x="948" 
d="M424 905h-379l33 154h932l-33 -154h-379l-192 -905h-175z" />
    <glyph glyph-name="afii10085" unicode="&#x443;" horiz-adv-x="985" 
d="M7 -289q54 0 91 32t68 83l106 174l-186 1059h186l123 -842h4l445 842h190l-700 -1237q-80 -129 -150.5 -189.5t-189.5 -60.5q-69 0 -121 27l31 141q49 -29 103 -29z" />
    <glyph glyph-name="afii10086" unicode="&#x444;" horiz-adv-x="1644" 
d="M1360 696q0 234 -191 234q-109 0 -167 -52.5t-78 -95.5q-43 -201 -77 -353t-34 -165q4 -53 50 -94t134 -41t158 57.5t137.5 183.5t67.5 326zM209 371q0 -242 197 -242q120 0 173.5 60.5t65.5 89.5l107 503q-7 78 -63 113t-137 35t-149.5 -57.5t-131 -181t-62.5 -320.5z
M35 343q0 145 31.5 270.5t97 228t166 168t239.5 65.5q99 0 153 -47t66 -67l107 501h172l-106 -501q43 41 110.5 77.5t149.5 36.5q154 0 234.5 -100.5t80.5 -246.5t-34 -274t-102.5 -232.5t-173 -171t-245.5 -66.5q-59 0 -119.5 32.5t-87.5 71.5l-102 -491h-172l102 491
q-109 -104 -244 -104q-169 0 -246 107t-77 252z" />
    <glyph glyph-name="afii10087" unicode="&#x445;" horiz-adv-x="985" 
d="M360 561l-235 498h201l159 -385l316 385h211l-455 -512l270 -547h-198l-193 434l-360 -434h-209z" />
    <glyph glyph-name="afii10088" unicode="&#x446;" horiz-adv-x="1155" 
d="M811 0h-819l225 1059h174l-192 -905h493l193 905h174l-193 -905h144l-101 -476h-166z" />
    <glyph glyph-name="afii10089" unicode="&#x447;" horiz-adv-x="1064" 
d="M266 680q0 -133 170 -133q116 0 202.5 23.5t102.5 27.5l99 461h174l-226 -1059h-174l95 455q-88 -25 -193.5 -37t-144.5 -12q-135 0 -211 58t-76 173q0 26 10 84l74 338h174l-70 -322q-6 -35 -6 -57z" />
    <glyph glyph-name="afii10090" unicode="&#x448;" horiz-adv-x="1644" 
d="M217 1059h174l-192 -905h426l192 905h174l-192 -905h428l192 905h174l-225 -1059h-1376z" />
    <glyph glyph-name="afii10091" unicode="&#x449;" horiz-adv-x="1689" 
d="M1346 0h-1354l225 1059h174l-192 -905h426l192 905h174l-192 -905h428l192 905h174l-192 -905h143l-100 -476h-166z" />
    <glyph glyph-name="afii10092" unicode="&#x44a;" horiz-adv-x="1210" 
d="M678 145q117 0 184.5 48.5t67.5 150.5t-60 129t-170 27h-264l-74 -355h316zM760 645q346 0 346 -285q0 -154 -100 -257t-287 -103h-561l192 905h-305l33 154h479l-88 -414h291z" />
    <glyph glyph-name="afii10093" unicode="&#x44b;" horiz-adv-x="1449" 
d="M1225 1059h174l-223 -1059h-175zM492 145q117 0 184 48.5t67 150.5t-59.5 129t-169.5 27h-244l-73 -355h295zM573 645q346 0 347 -285q0 -152 -100.5 -256t-287.5 -104h-540l225 1059h174l-88 -414h270z" />
    <glyph glyph-name="afii10094" unicode="&#x44c;" horiz-adv-x="1044" 
d="M512 145q117 0 184.5 48.5t67.5 150.5t-60 129t-169 27h-265l-73 -355h315zM594 645q346 0 346 -285q0 -154 -100 -257t-287 -103h-561l225 1059h174l-88 -414h291z" />
    <glyph glyph-name="afii10095" unicode="&#x44d;" horiz-adv-x="1099" 
d="M70 748q106 335 502 335q198 0 307.5 -118.5t109.5 -335.5q0 -268 -156.5 -460t-448.5 -192q-160 0 -271 87.5t-117 273.5h174q0 -98 64.5 -154.5t156.5 -56.5q163 0 264.5 99.5t143.5 252.5h-449l31 144h438v6q0 213 -96 261t-185 48t-169 -52t-121 -138h-178z" />
    <glyph glyph-name="afii10096" unicode="&#x44e;" horiz-adv-x="1585" 
d="M912 129q192 0 291.5 161.5t99.5 355.5t-93.5 239t-179.5 45t-158.5 -49.5t-142.5 -160.5t-70 -300q0 -131 70.5 -211t182.5 -80zM1057 1083q201 0 310.5 -110.5t109.5 -327.5q0 -273 -157 -470.5t-409 -197.5q-204 0 -315 122.5t-111 318.5l2 59h-221l-100 -477h-174
l225 1059h174l-92 -432h213q57 202 200.5 329t344.5 127z" />
    <glyph glyph-name="afii10097" unicode="&#x44f;" horiz-adv-x="1073" 
d="M514 911q-109 0 -178.5 -55t-69.5 -151q0 -134 100.5 -141t141.5 -7h235l74 354h-303zM90 696q0 148 111 255.5t293 107.5h528l-223 -1059h-174l90 416h-211l-395 -416h-238l436 426q-217 51 -217 270z" />
    <glyph glyph-name="uni0450" unicode="&#x450;" horiz-adv-x="1099" 
d="M625 1204l-207 293h207l137 -293h-137zM357 848.5q-90 -81.5 -132 -217.5h615q9 124 -52.5 211.5t-201.5 87.5q-139 0 -229 -81.5zM469 129q229 0 305 203h174q-39 -172 -171 -263.5t-287 -91.5q-154 0 -240 40t-158 127.5t-72 247.5q0 161 44.5 287t119 216t174 139
t207.5 49q449 0 449 -469q0 -39 -17 -137h-796q-6 -47 -6 -100q0 -113 82.5 -180.5t191.5 -67.5z" />
    <glyph glyph-name="afii10071" unicode="&#x451;" horiz-adv-x="1099" 
d="M948 1425l-43 -213h-182l43 213h182zM614 1425l-43 -213h-182l43 213h182zM357 848.5q-90 -81.5 -132 -217.5h615q9 124 -52.5 211.5t-201.5 87.5q-139 0 -229 -81.5zM469 129q229 0 305 203h174q-39 -172 -171 -263.5t-287 -91.5q-154 0 -240 40t-158 127.5t-72 247.5
q0 161 44.5 287t119 216t174 139t207.5 49q449 0 449 -469q0 -39 -17 -137h-796q-6 -47 -6 -100q0 -113 82.5 -180.5t191.5 -67.5z" />
    <glyph glyph-name="afii10099" unicode="&#x452;" horiz-adv-x="1159" 
d="M367 874q133 185 396 185q275 0 275 -273q0 -75 -30 -206l-111 -521q-99 -462 -530 -462q-71 0 -127 8l34 155q34 -6 105 -6q147 0 229 76t119 248l113 516q2 14 13 76t11 88q0 76 -53 111.5t-128 35.5t-145.5 -34.5t-119.5 -88.5q-79 -69 -117 -221l-117 -561h-172
l244 1159h-197l31 144h195l34 159h175l-37 -159h424l-31 -144h-424l-64 -280z" />
    <glyph glyph-name="afii10100" unicode="&#x453;" horiz-adv-x="868" 
d="M870 1497l-278 -293h-143l190 293h231zM221 1059h715l-33 -154h-541l-192 -905h-174z" />
    <glyph glyph-name="afii10101" unicode="&#x454;" horiz-adv-x="1099" 
d="M472 -23q-202 0 -316.5 119t-114.5 336q0 267 159.5 459t432.5 192q174 0 280.5 -81.5t118.5 -256.5h-172q-8 88 -68.5 138.5t-146.5 50.5q-153 0 -254.5 -89t-148.5 -224h444l-31 -142h-442q-2 -12 -2 -15v-32q0 -212 101.5 -259.5t194.5 -47.5t178 61.5t122 159.5h174
q-47 -180 -177 -274.5t-332 -94.5z" />
    <glyph glyph-name="afii10102" unicode="&#x455;" horiz-adv-x="985" 
d="M97 59q-113 82 -113 275h172q-7 -108 70.5 -156.5t199.5 -48.5q161 0 201.5 58.5t40.5 100.5t-25 69.5t-63.5 50t-89 41.5t-102.5 41q-134 56 -206.5 117.5t-72.5 170.5q0 144 119.5 224.5t330 80.5t276.5 -121.5t66 -213.5h-174q4 90 -61.5 136t-157.5 46
q-151 0 -188 -48t-37 -86t23.5 -64.5t63.5 -49.5t89 -42t102 -41q134 -56 207.5 -119.5t73.5 -164.5q0 -102 -39 -163.5t-128 -118t-277 -56.5t-301 82z" />
    <glyph glyph-name="afii10103" unicode="&#x456;" horiz-adv-x="454" 
d="M295 1462h176l-45 -213h-176zM211 1059h174l-221 -1059h-172z" />
    <glyph glyph-name="afii10104" unicode="&#x457;" horiz-adv-x="454" 
d="M211 1059h174l-221 -1059h-172zM631 1425l-43 -213h-182l43 213h182zM297 1425l-43 -213h-182l43 213h182z" />
    <glyph glyph-name="afii10105" unicode="&#x458;" horiz-adv-x="454" 
d="M295 1462h176l-45 -213h-176zM-71.5 -215q22.5 35 53.5 164l229 1110h174l-266 -1256q-48 -206 -248 -206q-72 0 -115 12l31 153q48 -12 84 -12q35 0 57.5 35z" />
    <glyph glyph-name="afii10106" unicode="&#x459;" horiz-adv-x="1755" 
d="M1223 145q117 0 184.5 48.5t67.5 150.5t-60 129t-170 27h-264l-74 -355h316zM-12 133q70 0 110 47.5t64 111.5q87 225 196 767h744l-88 -414h291q346 0 346 -285q0 -154 -101 -257t-286 -103h-559l190 905h-401q-98 -435 -137.5 -553.5t-72 -179.5t-94 -122.5
t-198.5 -61.5q-79 0 -135 14l28 141q33 -10 103 -10z" />
    <glyph glyph-name="afii10107" unicode="&#x45a;" horiz-adv-x="1748" 
d="M1217 145q117 0 184 48.5t67 150.5t-59.5 129t-169.5 27h-264l-74 -355h316zM1298 645q346 0 347 -285q0 -152 -100.5 -256t-287.5 -104h-561l105 500h-531l-104 -500h-174l225 1059h174l-88 -414h531l88 414h174l-88 -414h290z" />
    <glyph glyph-name="afii10108" unicode="&#x45b;" horiz-adv-x="1159" 
d="M763 1059q275 0 275 -273q0 -75 -30 -206l-123 -580h-174l129 594q2 14 13 76t11 88q0 76 -53 111.5t-128 35.5t-145.5 -34.5t-119.5 -88.5q-79 -69 -117 -221l-117 -561h-172l244 1159h-197l31 144h195l34 159h175l-37 -159h424l-31 -144h-424l-64 -280l5 -5
q133 185 396 185z" />
    <glyph glyph-name="afii10109" unicode="&#x45c;" horiz-adv-x="1024" 
d="M948 1497l-278 -293h-144l191 293h231zM217 1059h174l-106 -496l573 496h236l-510 -426l342 -633h-201l-272 522l-213 -176l-74 -346h-174z" />
    <glyph glyph-name="uni045D" unicode="&#x45d;" horiz-adv-x="1159" 
d="M655 1204l-206 293h206l138 -293h-138zM217 1059h174l-184 -864l674 864h233l-225 -1059h-174l182 864l-672 -864h-233z" />
    <glyph glyph-name="afii10110" unicode="&#x45e;" horiz-adv-x="985" 
d="M582 1214q-123 0 -195.5 76.5t-62.5 196.5h104q15 -141 157 -141t220 141h104q-35 -129 -119.5 -201t-207.5 -72zM7 -289q54 0 91 32t68 83l106 174l-186 1059h186l123 -842h4l445 842h190l-700 -1237q-80 -129 -150.5 -189.5t-189.5 -60.5q-69 0 -121 27l31 141
q49 -29 103 -29z" />
    <glyph glyph-name="afii10193" unicode="&#x45f;" horiz-adv-x="1126" 
d="M336 0h-344l225 1059h174l-192 -905h510l192 905h174l-225 -1059h-340l-68 -322h-174z" />
    <glyph glyph-name="afii10146" unicode="&#x462;" horiz-adv-x="1454" 
d="M768 162q168 0 270.5 72.5t102.5 234.5q0 215 -151.5 225.5t-217.5 10.5h-293l-114 -543h403zM870 866q238 0 351.5 -101t113.5 -296t-137 -332t-389 -137h-674l236 1108h-330l35 164h330l40 190h195l-41 -190h485l-34 -164h-486l-51 -242h356z" />
    <glyph glyph-name="afii10194" unicode="&#x463;" 
d="M606 145q117 0 184.5 48.5t67.5 150.5t-59.5 129t-169.5 27h-264l-74 -355h315zM688 645q346 0 346 -285q0 -154 -100 -257t-287 -103h-561l190 905h-245l32 154h246l88 403h174l-88 -403h379l-33 -154h-378l-54 -260h291z" />
    <glyph glyph-name="uni046A" unicode="&#x46a;" horiz-adv-x="1914" 
d="M1360 1309h-553l180 -439zM1538 473q0 197 -268 197h-219l-142 -670h-194l141 670h-260q-259 0 -291.5 -114t-44.5 -169l-82 -387h-194l84 399q16 82 71.5 256t470.5 174h209l-297 633h1196l-569 -633h145q242 0 341.5 -96.5t99.5 -238.5q0 -29 -4.5 -55.5t-8.5 -51.5
l-82 -387h-194l80 375q12 69 12 98z" />
    <glyph glyph-name="uni046B" unicode="&#x46b;" horiz-adv-x="1492" 
d="M987 928h-364l118 -285zM424 604h164l-228 455h951l-428 -455h141q141 0 223 -55t82 -172q0 -41 -8 -76l-64 -301h-174l58 279q8 33 8 63q0 66 -44 93.5t-126 27.5h-182l-97 -463h-174l97 463h-179q-98 0 -159.5 -40t-83.5 -144l-58 -279h-174l64 301q65 303 391 303z
" />
    <glyph glyph-name="afii10147" unicode="&#x472;" horiz-adv-x="1554" 
d="M565 911q61 0 127 -27.5t127.5 -59t115 -59.5t111.5 -28q93 0 250 127q-4 205 -114 337t-301 132q-235 0 -388 -151t-200 -379q155 108 272 108zM997 578q-55 0 -117.5 27.5t-125 59t-121 59.5t-102.5 28q-70 0 -126.5 -30t-132.5 -91v-25q0 -218 109.5 -347.5
t333.5 -129.5t377 165t192 402q-173 -118 -287 -118zM705 -33q-303 0 -465 166t-162 473q0 178 55 339t158.5 284t252 195.5t313.5 72.5q301 0 467.5 -183.5t166.5 -463.5q0 -172 -54.5 -332t-155.5 -282.5t-247.5 -195.5t-328.5 -73z" />
    <glyph glyph-name="afii10195" unicode="&#x473;" horiz-adv-x="1175" 
d="M236 600q98 74 171 74t172.5 -60.5t135.5 -60.5q72 0 178 86q-7 205 -107 253t-172 48q-136 0 -235 -98t-143 -242zM879 514q-109 -86 -182 -86q-72 0 -138.5 41t-101.5 59.5t-74 18.5q-75 0 -172 -82q-2 -12 -2 -15v-30q0 -131 68.5 -216t214.5 -85t247.5 118t139.5 277
zM498 -23q-223 0 -343 122.5t-120 318.5q0 273 162 469t430 196q217 0 328.5 -110.5t111.5 -327.5q0 -275 -114.5 -416t-223.5 -196.5t-231 -55.5z" />
    <glyph glyph-name="afii10148" unicode="&#x474;" horiz-adv-x="1366" 
d="M1404 1483q96 0 167 -21l-35 -164q-48 12 -114 12t-113 -31.5t-90 -111.5l-629 -1167h-219l-209 1462h198l150 -1272h4l553 1070q111 223 337 223z" />
    <glyph glyph-name="afii10196" unicode="&#x475;" horiz-adv-x="1046" 
d="M843 1017.5q71 59.5 157 59.5t137 -12l-31 -141q-24 8 -82 8q-57 0 -90 -34t-62 -87l-448 -811h-186l-152 1059h184l90 -881h5l356 682q51 98 122 157.5z" />
    <glyph glyph-name="Izhitsadblgravecyrillic" unicode="&#x476;" horiz-adv-x="1366" 
d="M1311 1473q49 10 123 10t137 -21l-35 -164q-48 12 -114 12t-113 -31q-47 -32 -90 -112l-629 -1167h-219l-209 1462h198l150 -1272h4l553 1070q91 182 244 213zM514 1585l-207 293h207l137 -293h-137zM924 1585l-207 293h207l137 -293h-137z" />
    <glyph glyph-name="izhitsadblgravecyrillic" unicode="&#x477;" horiz-adv-x="1046" 
d="M843 1018q71 60 159 59q88 0 135 -12l-31 -141q-24 8 -82 8q-57 0 -90 -34t-62 -87l-448 -811h-186l-152 1059h184l90 -881h5l356 682q51 98 122 158zM322 1184l-207 293h207l137 -293h-137zM731 1184l-207 293h207l137 -293h-137z" />
    <glyph glyph-name="uni048C" unicode="&#x48c;" horiz-adv-x="1454" 
d="M768 162q168 0 270.5 72.5t102.5 234.5q0 215 -151.5 225.5t-217.5 10.5h-293l-114 -543h403zM870 866q238 0 351.5 -101t113.5 -296t-137 -332t-389 -137h-674l275 1298h-308l35 164h307l48 215h194l-47 -215h332l-35 -164h-332l-90 -432h356z" />
    <glyph glyph-name="uni048D" unicode="&#x48d;" horiz-adv-x="1107" 
d="M575 145q117 0 184.5 48.5t67.5 150.5t-59.5 129t-169.5 27h-264l-74 -355h315zM657 645q346 0 347 -285q0 -152 -100.5 -256t-287.5 -104h-561l191 905h-215l32 154h216l47 221h174l-47 -221h227l-33 -154h-227l-53 -260h290z" />
    <glyph glyph-name="afii10050" unicode="&#x490;" horiz-adv-x="1126" 
d="M326 1462h755l70 326h195l-105 -490h-756l-274 -1298h-195z" />
    <glyph glyph-name="afii10098" unicode="&#x491;" horiz-adv-x="868" 
d="M221 1059h541l67 317h175l-101 -471h-541l-192 -905h-174z" />
    <glyph glyph-name="uni0492" unicode="&#x492;" horiz-adv-x="1251" 
d="M270 670h-252l35 164h252l133 628h951l-35 -164h-756l-98 -464h409l-35 -164h-409l-141 -670h-195z" />
    <glyph glyph-name="uni0493" unicode="&#x493;" horiz-adv-x="964" 
d="M178 455h-190l32 153h191l94 451h725l-33 -154h-551l-61 -297h340l-33 -153h-340l-96 -455h-174z" />
    <glyph glyph-name="uni0496" unicode="&#x496;" horiz-adv-x="2091" 
d="M1761 0h-63l-389 733l-224 -188l-114 -545h-193l119 559l-129 174l-684 -733h-252l832 872l-443 590h223l500 -686l143 686h193l-139 -665l762 665h258l-711 -608l377 -690h155l-112 -526h-187z" />
    <glyph glyph-name="uni0497" unicode="&#x497;" horiz-adv-x="1576" 
d="M1305 0h-62l-264 520l-182 -153l-78 -367h-174l82 383l-111 143l-473 -526h-223l602 639l-320 420h201l363 -488l104 488h174l-104 -484l546 484h228l-506 -441l252 -464h143l-100 -476h-166z" />
    <glyph glyph-name="uni0498" unicode="&#x498;" horiz-adv-x="1331" 
d="M1008 479q0 207 -319 207q-104 0 -148 -4l32 160q25 -4 34 -4h85q249 0 303 112.5t54 194.5q0 192 -283 192q-162 0 -266.5 -67.5t-137.5 -231.5h-186q34 234 200 346.5t396 112.5q229 0 350 -94t121 -248t-84.5 -251.5t-206.5 -125.5v-6q125 -25 185.5 -109.5
t60.5 -193.5t-48 -201t-170.5 -192.5t-367.5 -108.5l-65 -73h4q46 18 101 4.5t97 -44t42 -90.5q0 -101 -75 -146.5t-173 -45.5t-195 45l37 88q33 -10 63.5 -20.5t71.5 -10.5t79 10.5t38 51.5q0 63 -94 63q-54 0 -86 -16l-37 61l102 125q-231 16 -358 137t-127 326q0 21 4 49
h184l-2 -30q0 -166 92.5 -246t269.5 -80t300 96t123 258z" />
    <glyph glyph-name="uni0499" unicode="&#x499;" horiz-adv-x="1024" 
d="M756 807q0 139 -220 139q-104 0 -177.5 -45t-100.5 -166h-168q26 183 155.5 265.5t302.5 82.5q172 0 277 -71.5t105 -196.5q0 -88 -61.5 -152.5t-149.5 -95.5q78 -23 125 -85t47 -140t-37 -147.5t-130 -143.5t-273 -82l-68 -75h4q20 8 54 8q79 0 132.5 -39t53.5 -99
q0 -102 -75 -147t-173 -45t-195 45l37 88q33 -10 63.5 -20.5t71.5 -10.5t79 10.5t38 51.5q0 63 -94 63q-54 0 -86 -16l-37 61l104 129q-166 16 -265 107.5t-99 241.5v24h168v-12q0 -221 272 -221q115 0 198 68.5t83 160.5t-67.5 121t-168.5 29h-39q-39 0 -71 -5l30 142
q29 -4 35 -4h62q177 0 217.5 69.5t40.5 112.5z" />
    <glyph glyph-name="uni049A" unicode="&#x49a;" horiz-adv-x="1386" 
d="M1065 0h-59l-400 741l-293 -247l-104 -494h-195l310 1462h194l-153 -721l4 -4l827 725h260l-704 -602l378 -696h156l-112 -526h-187z" />
    <glyph glyph-name="uni049B" unicode="&#x49b;" horiz-adv-x="1044" 
d="M786 0h-61l-272 522l-213 -176l-74 -346h-174l225 1059h174l-106 -496l573 496h236l-510 -426l258 -479h143l-100 -476h-166z" />
    <glyph glyph-name="uni049C" unicode="&#x49c;" horiz-adv-x="1372" 
d="M322 1462h194l-133 -628h102l66 309h123l-66 -309h31l631 628h250l-723 -706l428 -756h-232l-372 670h-48l-67 -316h-123l68 316h-103l-141 -670h-195z" />
    <glyph glyph-name="uni049D" unicode="&#x49d;" horiz-adv-x="1112" 
d="M217 1059h174l-90 -422h92l45 213h113l-45 -213h24l437 422h227l-539 -494l330 -565h-207l-270 487h-35l-49 -233h-113l49 233h-92l-102 -487h-174z" />
    <glyph glyph-name="uni04A0" unicode="&#x4a0;" horiz-adv-x="1611" 
d="M535 1298h-412l35 164h606l-154 -721l4 -4l828 725h260l-705 -602l469 -860h-215l-399 741l-293 -247l-104 -494h-195z" />
    <glyph glyph-name="uni04A1" unicode="&#x4a1;" horiz-adv-x="1189" 
d="M350 905h-305l33 154h479l-106 -496l573 496h236l-510 -426l342 -633h-201l-273 522l-212 -176l-74 -346h-174z" />
    <glyph glyph-name="uni04A2" unicode="&#x4a2;" horiz-adv-x="1513" 
d="M1139 0h-166l141 670h-766l-141 -670h-195l307 1462h197l-133 -628h766l131 628h195l-273 -1298h158l-113 -526h-186z" />
    <glyph glyph-name="uni04A3" unicode="&#x4a3;" horiz-adv-x="1167" 
d="M848 0h-152l103 487h-531l-102 -487h-174l225 1059h174l-90 -422h530l91 422h174l-193 -905h144l-101 -476h-166z" />
    <glyph glyph-name="uni04A4" unicode="&#x4a4;" horiz-adv-x="2080" 
d="M319 1462h197l-133 -628h766l131 628h940l-35 -164h-745l-273 -1298h-194l141 670h-766l-141 -670h-195z" />
    <glyph glyph-name="uni04A5" unicode="&#x4a5;" horiz-adv-x="1568" 
d="M217 1059h174l-90 -422h530l91 422h714l-32 -154h-541l-193 -905h-174l103 487h-531l-102 -487h-174z" />
    <glyph glyph-name="uni04AA" unicode="&#x4aa;" horiz-adv-x="1478" 
d="M830 -145q42 -30 42 -111t-74.5 -126.5t-172.5 -45.5t-195 45l37 88q33 -10 63.5 -20.5t71.5 -10.5t79 10.5t38 48.5q0 66 -94 66q-54 0 -86 -16l-37 61l104 129q-256 27 -392 190t-136 443q0 178 55 339t158.5 284t252 195.5t337.5 72.5q245 0 401 -130t156 -376h-195
q0 172 -101.5 257t-257.5 85t-270 -64.5t-190 -167t-114 -234t-38 -249.5q0 -231 109.5 -360t306.5 -129t309.5 95t159.5 270h195q-55 -246 -216 -386.5t-431 -140.5h-11l-65 -73h4q46 19 100.5 5t96.5 -44z" />
    <glyph glyph-name="uni04AB" unicode="&#x4ab;" horiz-adv-x="1099" 
d="M676 -236q0 -102 -75 -147t-173 -45t-195 45l37 88q33 -10 64.5 -20.5t71.5 -10.5t78 10.5t38 51.5q0 63 -94 63q-54 0 -86 -16l-37 61l111 138q-186 16 -279.5 131.5t-93.5 318.5q0 268 156.5 459.5t429.5 191.5q180 0 285.5 -87t111.5 -273h-174q0 98 -59.5 152.5
t-161.5 54.5q-190 0 -302 -153.5t-112 -354.5t94.5 -247t187.5 -46t173 59.5t116 157.5h175q-47 -174 -164 -267t-291 -99l-76 -86h4q46 18 101 4.5t97 -43.5t42 -91z" />
    <glyph glyph-name="uni04AE" unicode="&#x4ae;" horiz-adv-x="1251" 
d="M520 588l-385 874h207l299 -708l555 708h225l-708 -874l-127 -588h-191z" />
    <glyph glyph-name="uni04AF" unicode="&#x4af;" horiz-adv-x="985" 
d="M266 20l-188 1039h190l121 -854h4l467 854h191l-611 -1036l-90 -426h-174z" />
    <glyph glyph-name="uni04B0" unicode="&#x4b0;" horiz-adv-x="1251" 
d="M465 326h-320l35 163h320l20 99l-385 874h207l299 -708l555 708h225l-708 -874l-23 -99h332l-35 -163h-332l-69 -326h-191z" />
    <glyph glyph-name="uni04B1" unicode="&#x4b1;" horiz-adv-x="985" 
d="M219 -195h-268l33 154h268l14 61l-188 1039h190l121 -854h4l467 854h191l-611 -1036l-14 -64h285l-33 -154h-285l-43 -208h-174z" />
    <glyph glyph-name="uni04B2" unicode="&#x4b2;" horiz-adv-x="1271" 
d="M983 0h-55l-295 618l-500 -618h-221l633 764l-352 698h208l271 -577l469 577h219l-602 -725l289 -573h157l-112 -526h-187z" />
    <glyph glyph-name="uni04B3" unicode="&#x4b3;" horiz-adv-x="1003" 
d="M696 0h-67l-193 434l-360 -434h-209l493 561l-235 498h201l159 -385l316 385h211l-455 -512l195 -393h143l-100 -476h-166z" />
    <glyph glyph-name="uni04B6" unicode="&#x4b6;" horiz-adv-x="1374" 
d="M579 571q-238 0 -336 98.5t-98 241.5q0 30 13 105l96 446h192l-94 -430q-10 -47 -10 -90q0 -207 263 -207q144 0 239.5 21.5t154.5 34.5l144 671h192l-274 -1298h158l-113 -526h-186l77 362h-163l131 623q-251 -52 -386 -52z" />
    <glyph glyph-name="uni04B7" unicode="&#x4b7;" horiz-adv-x="1085" 
d="M266 680q0 -133 170 -133q116 0 202.5 23.5t102.5 27.5l99 461h174l-193 -905h144l-101 -476h-166l68 322h-152l95 455q-88 -25 -193.5 -37t-144.5 -12q-135 0 -211 58t-76 173q0 26 10 84l74 338h174l-70 -322q-6 -35 -6 -57z" />
    <glyph glyph-name="uni04B8" unicode="&#x4b8;" horiz-adv-x="1347" 
d="M145 897q0 44 13 119l96 446h192l-94 -430q-10 -47 -10 -89q0 -94 52.5 -147.5t180.5 -60.5l68 316h123l-68 -314q104 8 178 25.5t123 28.5l144 671h192l-309 -1462h-192l131 623q-182 -39 -301 -48l-66 -313h-123l66 309q-214 7 -305 104t-91 222z" />
    <glyph glyph-name="uni04B9" unicode="&#x4b9;" horiz-adv-x="1064" 
d="M371 406q-135 0 -211 58t-76 173q0 26 10 84l74 338h174l-70 -322q-6 -35 -6 -57q0 -129 156 -133l49 233h113l-47 -225q104 16 204 43l99 461h174l-226 -1059h-174l95 455q-89 -20 -201 -37l-51 -242h-113l47 230h-20z" />
    <glyph glyph-name="uni04BA" unicode="&#x4ba;" horiz-adv-x="1366" 
d="M766 891q240 0 338 -100t98 -240q0 -36 -12 -105l-96 -446h-193l94 430q35 163 -37 230t-216 67t-239 -21.5t-155 -33.5l-143 -672h-193l310 1462h192l-131 -622q246 51 383 51z" />
    <glyph glyph-name="uni04BB" unicode="&#x4bb;" 
d="M748 1083q276 0 276 -272q0 -79 -31 -207l-129 -604h-174l135 618q2 14 13.5 73t11.5 91q0 76 -54 112t-128 36t-144.5 -35t-120.5 -88q-77 -67 -116 -221l-123 -586h-172l307 1462h174l-125 -559l4 -4q132 184 396 184z" />
    <glyph glyph-name="uni04C0" unicode="&#x4c0;" horiz-adv-x="530" 
d="M322 1462h194l-307 -1462h-195z" />
    <glyph glyph-name="uni04C1" unicode="&#x4c1;" horiz-adv-x="2070" 
d="M1410 1629q-91 -77 -213 -77t-198.5 80t-68.5 203h104q16 -145 166 -145q90 0 140.5 35.5t91.5 109.5h104q-35 -129 -126 -206zM-168 0l832 872l-443 590h223l500 -686l143 686h193l-139 -665l762 665h258l-711 -608l467 -854h-219l-389 733l-224 -188l-114 -545h-193
l119 559l-129 174l-684 -733h-252z" />
    <glyph glyph-name="uni04C2" unicode="&#x4c2;" horiz-adv-x="1556" 
d="M879 1214q-123 0 -195.5 76.5t-62.5 196.5h104q15 -141 157 -141t220 141h104q-35 -129 -119.5 -201t-207.5 -72zM-180 0l602 639l-320 420h201l363 -488l104 488h174l-104 -484l546 484h228l-506 -441l336 -618h-201l-264 520l-182 -153l-78 -367h-174l82 383l-111 143
l-473 -526h-223z" />
    <glyph glyph-name="uni04D0" unicode="&#x4d0;" horiz-adv-x="1366" 
d="M1103 1629q-91 -77 -213 -77t-199.5 80t-67.5 203h104q16 -145 166 -145q90 0 140 35.5t91 109.5h105q-35 -129 -126 -206zM449 604h503l-108 686h-4zM-111 0l879 1462h213l264 -1462h-201l-67 440h-617l-256 -440h-215z" />
    <glyph glyph-name="uni04D1" unicode="&#x4d1;" horiz-adv-x="1062" 
d="M841 1286q-85 -72 -208 -72t-194.5 76.5t-63.5 196.5h104q15 -141 157 -141t220 141h105q-35 -129 -120 -201zM344 129q203 0 297 139q41 61 57.5 130t34.5 143h-4q-37 -27 -94 -38t-120.5 -18.5t-212 -23.5t-148.5 -185q0 -74 58 -110.5t132 -36.5zM657 129
q-113 -152 -321 -152q-102 0 -159.5 15.5t-126 73t-68.5 191.5t50 199.5t128 99.5t172 46t173 20q168 16 221.5 42.5t53.5 114.5t-63 119.5t-131 31.5q-129 0 -208.5 -48t-94.5 -143h-174q23 166 150.5 255t307.5 89q387 0 387 -270q0 -54 -32 -192l-68 -289
q-8 -33 -18.5 -74t-10.5 -92t52 -51q13 0 55 14l-27 -129q-58 -23 -118 -23t-97 39t-28 109z" />
    <glyph glyph-name="uni04D2" unicode="&#x4d2;" horiz-adv-x="1366" 
d="M1188 1767l-43 -213h-182l43 213h182zM854 1767l-43 -213h-182l43 213h182zM952 604l-108 686h-4l-391 -686h503zM768 1462h213l264 -1462h-201l-67 440h-617l-256 -440h-215z" />
    <glyph glyph-name="uni04D3" unicode="&#x4d3;" horiz-adv-x="1062" 
d="M934 1425l-43 -213h-182l43 213h182zM600 1425l-43 -213h-182l43 213h182zM344 129q203 0 297 139q41 61 57.5 130t34.5 143h-4q-37 -27 -94 -38t-120.5 -18.5t-212 -23.5t-148.5 -185q0 -74 58 -110.5t132 -36.5zM657 129q-113 -152 -321 -152q-102 0 -159.5 15.5
t-126 73t-68.5 191.5t50 199.5t128 99.5t172 46t173 20q168 16 221.5 42.5t53.5 114.5t-63 119.5t-131 31.5q-129 0 -208.5 -48t-94.5 -143h-174q23 166 150.5 255t307.5 89q387 0 387 -270q0 -54 -32 -192l-68 -289q-8 -33 -18.5 -74t-10.5 -92t52 -51q13 0 55 14l-27 -129
q-58 -23 -118 -23t-97 39t-28 109z" />
    <glyph glyph-name="uni04D4" unicode="&#x4d4;" horiz-adv-x="1896" 
d="M874 590l154 708h-45l-502 -708h393zM903 1462h1073l-34 -164h-719l-97 -464h676l-37 -164h-673l-109 -506h731l-33 -164h-931l88 426h-471l-306 -426h-221z" />
    <glyph glyph-name="uni04D5" unicode="&#x4d5;" horiz-adv-x="1781" 
d="M1043.5 844q-92.5 -86 -123.5 -213h593q18 125 -41 212t-198 87q-138 0 -230.5 -86zM164 270q0 -71 55 -106t134 -35t145.5 20.5t105.5 59.5q101 101 137 336q-71 -35 -188 -50.5t-253 -40t-136 -184.5zM-8 269q0 284 401 325q76 8 239 24t163 170q0 142 -232 142
q-98 0 -168.5 -48t-93.5 -141h-170q26 176 154.5 259t318.5 83q257 0 338 -165q57 80 148.5 122.5t189.5 42.5q205 0 306.5 -108.5t101.5 -306.5q0 -77 -29 -191h-768q-10 -62 -10 -108q0 -100 64 -170t190 -70q229 0 313 203h178q-11 -35 -57 -119q-82 -123 -190.5 -179.5
t-258.5 -56.5q-298 0 -372 228q-136 -228 -416 -228q-239 0 -289.5 102.5t-50.5 189.5z" />
    <glyph glyph-name="uni04D6" unicode="&#x4d6;" horiz-adv-x="1251" 
d="M1052 1629q-91 -77 -213 -77t-199 79.5t-69 203.5h105q16 -145 166 -145q90 0 140 35.5t91 109.5h105q-35 -129 -126 -206zM14 0l310 1462h1007l-33 -164h-813l-98 -464h758l-33 -164h-760l-106 -506h823l-37 -164h-1018z" />
    <glyph glyph-name="uni04D7" unicode="&#x4d7;" horiz-adv-x="1099" 
d="M841 1286q-85 -72 -208 -72t-194.5 76.5t-63.5 196.5h104q15 -141 157 -141t220 141h105q-35 -129 -120 -201zM355.5 847q-91.5 -83 -130.5 -216h615q9 124 -52.5 211.5t-201.5 87.5q-139 0 -230.5 -83zM469 129q229 0 305 203h174q-39 -172 -171 -263.5t-287 -91.5
q-154 0 -240 40t-158 127.5t-72 247.5q0 161 44.5 287t119 216t174 139t207.5 49q449 0 449 -469q0 -39 -17 -137h-796q-6 -47 -6 -100q0 -113 82.5 -180.5t191.5 -67.5z" />
    <glyph glyph-name="uni04D8" unicode="&#x4d8;" horiz-adv-x="1509" 
d="M662 133q229 0 372.5 143.5t194.5 372.5h-963q0 -246 109 -381t287 -135zM78 606q0 136 14 205h1157q2 12 2 15v34q0 340 -160.5 408.5t-271.5 68.5q-162 0 -281.5 -76.5t-185.5 -207.5h-198q120 317 329 381.5t336 64.5q303 0 465 -166t162 -473q0 -371 -152.5 -558
t-299 -260t-332.5 -73q-274 0 -429 165t-155 472z" />
    <glyph glyph-name="afii10846" unicode="&#x4d9;" horiz-adv-x="1136" 
d="M459 131q142 0 233.5 83t130.5 216h-614q-15 -200 80.5 -249.5t169.5 -49.5zM580 932q-229 0 -306 -203h-174q39 171 171 262.5t286 91.5t241 -39.5t158.5 -127t71.5 -248.5t-44 -286.5t-118.5 -215.5t-174 -139.5t-208.5 -49.5q-448 0 -448 469q0 46 16 138h797
q6 45 6 99q0 115 -83 182t-191 67z" />
    <glyph glyph-name="Schwadieresiscyrillic" unicode="&#x4da;" horiz-adv-x="1509" 
d="M662 133q229 0 384 155q132 132 183 361h-963q0 -246 109 -381t287 -135zM1251 836v24q0 336 -240 443q-81 35 -192 34q-161 -1 -281 -77t-186 -207h-198q119 315 433 413q105 33 232 33q303 0 465 -166t162 -473q0 -374 -205 -622q-101 -123 -247 -196t-332 -73
q-274 0 -430 165q-155 165 -154 472q0 136 14 205h1157q2 13 2 25zM1245 1815l-43 -213h-182l43 213h182zM911 1815l-43 -213h-182l43 213h182z" />
    <glyph glyph-name="schwadieresiscyrillic" unicode="&#x4db;" horiz-adv-x="1136" 
d="M459 131q210 0 315 183q31 54 49 116h-614q-9 -124 53 -212q61 -87 197 -87zM1028 668q0 -160 -44 -286q-89 -253 -293 -355q-99 -50 -208 -50q-450 0 -448 469q0 46 16 138h797q6 45 6 99q0 111 -82 179t-192 70q-230 0 -306 -203h-174q39 173 172 265q133 91 308 89
q239 0 356 -142q92 -112 92 -273zM971 1403l-43 -213h-183l43 213h183zM637 1403l-43 -213h-182l43 213h182z" />
    <glyph glyph-name="uni04DC" unicode="&#x4dc;" horiz-adv-x="2070" 
d="M1499 1767l-43 -213h-182l43 213h182zM1165 1767l-43 -213h-182l43 213h182zM664 872l-443 590h223l500 -686l143 686h193l-139 -665l762 665h258l-711 -608l467 -854h-219l-389 733l-224 -188l-114 -545h-193l119 559l-129 174l-684 -733h-252z" />
    <glyph glyph-name="uni04DD" unicode="&#x4dd;" horiz-adv-x="1556" 
d="M1180 1425l-43 -213h-183l43 213h183zM846 1425l-43 -213h-182l43 213h182zM422 639l-320 420h201l363 -488l104 488h174l-104 -484l546 484h228l-506 -441l336 -618h-201l-264 520l-182 -153l-78 -367h-174l82 383l-111 143l-473 -526h-223z" />
    <glyph glyph-name="uni04DE" unicode="&#x4de;" horiz-adv-x="1331" 
d="M1108 1767l-43 -213h-182l43 213h182zM774 1767l-43 -213h-182l43 213h182zM1008 479q0 207 -319 207q-104 0 -148 -4l32 160q25 -4 34 -4h85q249 0 303 112.5t54 194.5q0 192 -283 192q-162 0 -266.5 -67.5t-137.5 -231.5h-186q34 234 200 346.5t396 112.5
q229 0 350 -94t121 -248t-84.5 -251.5t-206.5 -125.5v-6q125 -25 185.5 -109.5t60.5 -195.5t-50 -204t-180 -194.5t-386 -101.5t-400.5 123t-144.5 342q0 21 4 49h184l-2 -30q0 -166 92.5 -246t269.5 -80t300 96t123 258z" />
    </font>
</defs>
</svg>
